{"glyphs":{"0":{"ha":885,"x_min":0,"x_max":0,"o":"m 443 804 b 542 778 481 804 514 795 b 579 746 556 769 568 758 b 608 703 590 734 600 719 b 628 655 616 688 622 672 b 643 603 634 638 639 620 b 651 547 647 585 650 567 b 654 486 653 528 654 507 b 651 425 654 465 653 444 b 643 369 650 406 647 387 b 628 317 639 352 634 334 b 608 269 622 300 616 284 b 579 226 600 253 590 238 b 542 194 568 214 556 204 b 496 175 528 186 513 180 b 443 168 479 170 462 168 b 344 194 405 168 372 177 b 306 226 330 204 317 214 b 278 269 294 238 285 253 b 256 317 269 284 262 300 b 242 369 250 334 245 352 b 234 425 238 387 235 406 b 232 486 233 444 232 465 b 234 547 232 507 233 528 b 242 603 235 567 238 585 b 256 655 245 620 250 638 b 278 703 262 672 269 688 b 306 746 285 719 294 734 b 344 778 317 758 330 769 b 389 798 357 787 372 794 b 443 804 406 802 424 804 m 443 989 b 257 936 374 989 312 971 b 149 837 214 910 178 877 b 78 693 119 797 95 749 b 54 593 68 661 60 627 b 46 486 49 559 46 523 b 54 380 46 450 49 415 b 78 279 60 345 68 312 b 149 135 95 224 119 176 b 257 36 178 95 214 62 b 443 -17 312 1 374 -17 b 628 36 512 -17 573 1 b 737 135 670 62 707 95 b 807 279 767 176 790 224 b 831 380 818 312 826 345 b 839 486 836 415 839 450 b 831 593 839 523 836 559 b 807 693 826 627 818 661 b 737 837 790 749 767 797 b 628 936 707 877 670 910 b 443 989 573 971 512 989 "},"1":{"ha":636,"x_min":0,"x_max":0,"o":"m 63 756 l 182 614 l 321 731 l 321 0 l 507 0 l 507 972 l 321 972 "},"2":{"ha":726,"x_min":0,"x_max":0,"o":"m 344 990 b 147 919 270 990 205 967 b 39 739 90 871 54 811 l 221 701 b 236 744 224 717 229 731 b 265 778 244 756 253 768 b 350 804 289 795 318 804 b 443 769 386 804 417 793 b 481 679 468 746 481 716 b 432 574 481 643 464 608 l 32 185 l 32 0 l 667 0 l 667 185 l 301 185 l 572 453 b 665 679 634 517 665 592 b 569 899 665 764 633 838 b 344 990 506 960 431 990 "},"3":{"ha":729,"x_min":0,"x_max":0,"o":"m 357 989 b 169 932 288 989 226 970 b 60 788 113 895 76 847 l 236 735 b 276 783 244 755 257 771 b 313 799 288 791 300 796 b 357 804 325 803 340 804 b 440 776 389 804 417 795 b 476 703 464 758 476 733 b 442 626 476 671 465 646 b 357 596 419 606 390 596 l 292 596 l 292 411 l 357 411 b 454 376 395 411 427 400 b 493 290 480 354 493 325 b 453 204 493 255 480 226 b 360 171 426 182 395 171 b 316 176 344 171 329 172 b 278 189 303 179 290 183 b 247 212 266 195 256 203 b 226 243 239 221 232 231 l 50 192 b 93 109 59 161 74 134 b 167 43 113 84 137 63 b 357 -15 225 4 288 -15 b 583 72 445 -15 520 14 b 679 286 647 131 679 203 b 638 415 679 330 665 373 b 557 506 617 448 590 478 b 632 599 589 536 614 567 b 653 651 641 616 648 634 b 663 704 659 669 662 687 b 572 907 663 784 632 851 b 357 989 512 962 440 989 "},"4":{"ha":826,"x_min":0,"x_max":0,"o":"m 32 369 l 32 185 l 457 185 l 457 0 l 643 0 l 643 185 l 785 185 l 785 369 l 643 369 l 643 635 l 457 635 l 457 369 l 236 369 l 488 896 l 319 972 "},"5":{"ha":747,"x_min":0,"x_max":0,"o":"m 124 446 l 378 446 b 474 403 416 445 448 431 b 513 306 500 376 513 344 b 503 252 513 286 509 268 b 472 208 496 236 486 221 b 372 168 445 181 412 168 b 233 238 307 168 261 191 l 57 192 b 176 40 80 131 120 80 b 375 -17 233 2 299 -17 b 603 78 464 -17 540 15 b 697 306 666 141 697 217 b 603 535 697 394 666 471 b 378 631 541 599 466 631 l 310 631 l 310 788 l 642 788 l 642 972 l 124 972 "},"6":{"ha":757,"x_min":0,"x_max":0,"o":"m 383 464 b 488 421 424 464 459 450 b 531 317 516 392 531 357 b 519 258 531 295 527 276 b 488 211 512 241 501 225 b 383 168 459 182 424 168 b 278 211 342 168 306 182 b 235 317 249 240 235 275 b 278 421 235 357 249 392 b 383 464 306 450 342 464 m 94 481 b 61 401 80 456 69 429 b 50 317 54 374 50 345 b 147 81 50 224 82 145 b 383 -17 212 16 291 -17 b 618 81 475 -17 553 16 b 691 188 650 113 675 149 b 715 317 707 228 715 270 b 632 535 715 401 688 474 b 450 633 581 589 520 622 l 421 633 b 394 631 412 633 403 632 l 600 989 l 388 989 "},"7":{"ha":775,"x_min":0,"x_max":0,"o":"m 529 788 l 136 0 l 343 0 l 735 788 l 735 972 l 44 972 l 44 788 "},"8":{"ha":785,"x_min":0,"x_max":0,"o":"m 393 422 b 500 385 433 422 469 410 b 544 292 530 361 544 330 b 500 199 544 254 530 223 b 393 163 469 175 434 163 b 286 199 352 163 317 175 b 240 292 256 223 240 254 b 286 385 240 330 256 361 b 393 422 317 410 352 422 m 393 807 b 475 779 425 807 452 798 b 510 708 498 762 510 738 b 475 635 510 678 498 653 b 436 615 463 626 450 620 b 393 608 422 611 408 608 b 310 636 361 608 333 618 b 275 708 287 655 275 679 b 310 779 275 738 287 762 b 393 807 334 798 362 807 m 393 989 b 178 915 308 989 236 964 b 90 728 119 866 90 804 b 178 539 90 651 119 588 b 187 533 181 537 184 535 b 196 525 190 530 193 528 b 153 494 181 517 167 506 b 56 281 88 439 56 368 b 153 67 56 194 88 122 b 393 -17 218 11 298 -17 b 633 67 488 -17 568 11 b 729 281 697 122 729 194 b 633 494 729 368 697 439 b 612 510 626 500 619 505 b 590 525 605 516 598 520 b 599 533 593 528 596 530 b 607 539 601 535 604 537 b 694 728 665 588 694 651 b 607 915 694 804 665 866 b 393 989 550 964 478 989 "},"9":{"ha":757,"x_min":0,"x_max":0,"o":"m 374 508 b 269 551 333 508 298 523 b 226 657 241 580 226 615 b 269 761 226 698 241 732 b 374 804 298 790 333 804 b 479 761 415 804 450 790 b 522 657 508 732 522 698 b 479 551 522 615 508 580 b 374 508 450 523 415 508 m 663 492 b 707 657 691 543 706 598 b 610 892 707 749 675 827 b 374 989 544 956 465 989 b 139 892 282 989 204 956 b 66 784 106 859 82 823 b 42 657 50 745 42 702 b 125 438 42 572 69 499 b 307 339 176 383 237 350 l 335 339 b 363 342 344 339 353 340 l 150 0 l 363 0 "},"Ɛ":{"ha":694,"x_min":0,"x_max":0,"o":"m 69 1111 l 625 1111 l 625 -278 l 69 -278 m 556 -208 l 556 1042 l 139 1042 l 139 -208 "},"Ƒ":{"ha":694,"x_min":0,"x_max":0,"o":"m 69 -278 l 625 -278 l 625 1111 l 69 1111 m 139 -208 l 139 1042 l 556 1042 l 556 -208 "},"ƞ":{"ha":694,"x_min":0,"x_max":0,"o":"m 69 1111 l 625 1111 l 625 -278 l 69 -278 m 556 -208 l 556 1042 l 139 1042 l 139 -208 "},"Ɵ":{"ha":694,"x_min":0,"x_max":0,"o":"m 69 -278 l 625 -278 l 625 1111 l 69 1111 m 139 -208 l 139 1042 l 556 1042 l 556 -208 "},"ɚ":{"ha":694,"x_min":0,"x_max":0,"o":"m 69 1111 l 625 1111 l 625 -278 l 69 -278 m 556 -208 l 556 1042 l 139 1042 l 139 -208 "},"̉":{"ha":694,"x_min":0,"x_max":0,"o":"m 69 -278 l 625 -278 l 625 1111 l 69 1111 m 139 -208 l 139 1042 l 556 1042 l 556 -208 "},"̤":{"ha":694,"x_min":0,"x_max":0,"o":"m 69 1111 l 625 1111 l 625 -278 l 69 -278 m 556 -208 l 556 1042 l 139 1042 l 139 -208 "},"̥":{"ha":694,"x_min":0,"x_max":0,"o":"m 69 -278 l 625 -278 l 625 1111 l 69 1111 m 139 -208 l 139 1042 l 556 1042 l 556 -208 "},"Ҕ":{"ha":694,"x_min":0,"x_max":0,"o":"m 69 1111 l 625 1111 l 625 -278 l 69 -278 m 556 -208 l 556 1042 l 139 1042 l 139 -208 "},"ҕ":{"ha":694,"x_min":0,"x_max":0,"o":"m 69 -278 l 625 -278 l 625 1111 l 69 1111 m 139 -208 l 139 1042 l 556 1042 l 556 -208 "},"Ҙ":{"ha":694,"x_min":0,"x_max":0,"o":"m 69 1111 l 625 1111 l 625 -278 l 69 -278 m 556 -208 l 556 1042 l 139 1042 l 139 -208 "},"ҙ":{"ha":694,"x_min":0,"x_max":0,"o":"m 69 -278 l 625 -278 l 625 1111 l 69 1111 m 139 -208 l 139 1042 l 556 1042 l 556 -208 "},"Ҹ":{"ha":694,"x_min":0,"x_max":0,"o":"m 69 1111 l 625 1111 l 625 -278 l 69 -278 m 556 -208 l 556 1042 l 139 1042 l 139 -208 "},"ҹ":{"ha":694,"x_min":0,"x_max":0,"o":"m 69 -278 l 625 -278 l 625 1111 l 69 1111 m 139 -208 l 139 1042 l 556 1042 l 556 -208 "},"Ӓ":{"ha":694,"x_min":0,"x_max":0,"o":"m 69 1111 l 625 1111 l 625 -278 l 69 -278 m 556 -208 l 556 1042 l 139 1042 l 139 -208 "},"ӓ":{"ha":694,"x_min":0,"x_max":0,"o":"m 69 -278 l 625 -278 l 625 1111 l 69 1111 m 139 -208 l 139 1042 l 556 1042 l 556 -208 "},"Ӗ":{"ha":694,"x_min":0,"x_max":0,"o":"m 69 1111 l 625 1111 l 625 -278 l 69 -278 m 556 -208 l 556 1042 l 139 1042 l 139 -208 "},"ӗ":{"ha":694,"x_min":0,"x_max":0,"o":"m 69 -278 l 625 -278 l 625 1111 l 69 1111 m 139 -208 l 139 1042 l 556 1042 l 556 -208 "},"―":{"ha":694,"x_min":0,"x_max":0,"o":"m 69 1111 l 625 1111 l 625 -278 l 69 -278 m 556 -208 l 556 1042 l 139 1042 l 139 -208 "},"‖":{"ha":694,"x_min":0,"x_max":0,"o":"m 69 -278 l 625 -278 l 625 1111 l 69 1111 m 139 -208 l 139 1042 l 556 1042 l 556 -208 "},"‗":{"ha":694,"x_min":0,"x_max":0,"o":"m 69 1111 l 625 1111 l 625 -278 l 69 -278 m 556 -208 l 556 1042 l 139 1042 l 139 -208 "},"‛":{"ha":694,"x_min":0,"x_max":0,"o":"m 69 -278 l 625 -278 l 625 1111 l 69 1111 m 139 -208 l 139 1042 l 556 1042 l 556 -208 "},"‟":{"ha":694,"x_min":0,"x_max":0,"o":"m 69 1111 l 625 1111 l 625 -278 l 69 -278 m 556 -208 l 556 1042 l 139 1042 l 139 -208 "},"‣":{"ha":694,"x_min":0,"x_max":0,"o":"m 69 -278 l 625 -278 l 625 1111 l 69 1111 m 139 -208 l 139 1042 l 556 1042 l 556 -208 "},"․":{"ha":694,"x_min":0,"x_max":0,"o":"m 69 1111 l 625 1111 l 625 -278 l 69 -278 m 556 -208 l 556 1042 l 139 1042 l 139 -208 "},"‥":{"ha":694,"x_min":0,"x_max":0,"o":"m 69 -278 l 625 -278 l 625 1111 l 69 1111 m 139 -208 l 139 1042 l 556 1042 l 556 -208 "},"₾":{"ha":694,"x_min":0,"x_max":0,"o":"m 69 1111 l 625 1111 l 625 -278 l 69 -278 m 556 -208 l 556 1042 l 139 1042 l 139 -208 "},"∁":{"ha":694,"x_min":0,"x_max":0,"o":"m 69 -278 l 625 -278 l 625 1111 l 69 1111 m 139 -208 l 139 1042 l 556 1042 l 556 -208 "},"∂":{"ha":694,"x_min":0,"x_max":0,"o":"m 69 1111 l 625 1111 l 625 -278 l 69 -278 m 556 -208 l 556 1042 l 139 1042 l 139 -208 "},"∄":{"ha":694,"x_min":0,"x_max":0,"o":"m 69 -278 l 625 -278 l 625 1111 l 69 1111 m 139 -208 l 139 1042 l 556 1042 l 556 -208 "},"∓":{"ha":694,"x_min":0,"x_max":0,"o":"m 69 1111 l 625 1111 l 625 -278 l 69 -278 m 556 -208 l 556 1042 l 139 1042 l 139 -208 "},"∔":{"ha":694,"x_min":0,"x_max":0,"o":"m 69 -278 l 625 -278 l 625 1111 l 69 1111 m 139 -208 l 139 1042 l 556 1042 l 556 -208 "},"≡":{"ha":694,"x_min":0,"x_max":0,"o":"m 69 1111 l 625 1111 l 625 -278 l 69 -278 m 556 -208 l 556 1042 l 139 1042 l 139 -208 "},"≢":{"ha":694,"x_min":0,"x_max":0,"o":"m 69 -278 l 625 -278 l 625 1111 l 69 1111 m 139 -208 l 139 1042 l 556 1042 l 556 -208 "},"≣":{"ha":694,"x_min":0,"x_max":0,"o":"m 69 1111 l 625 1111 l 625 -278 l 69 -278 m 556 -208 l 556 1042 l 139 1042 l 139 -208 "},"\r":{"ha":833,"x_min":0,"x_max":0,"o":""}," ":{"ha":329,"x_min":0,"x_max":0,"o":""},"!":{"ha":436,"x_min":0,"x_max":0,"o":"m 126 322 l 311 322 l 311 972 l 126 972 m 218 213 b 136 178 186 213 158 201 b 101 96 113 156 101 128 b 136 13 101 63 113 36 b 218 -21 158 -10 186 -21 b 301 13 250 -21 278 -10 b 335 96 324 36 335 63 b 301 178 335 128 324 156 b 218 213 278 201 250 213 "},"\"":{"ha":653,"x_min":0,"x_max":0,"o":"m 397 643 l 556 643 l 582 994 l 369 994 m 122 643 l 281 643 l 308 994 l 96 994 "},"#":{"ha":876,"x_min":0,"x_max":0,"o":"m 549 740 l 413 740 l 454 972 l 265 972 l 225 740 l 71 740 l 38 556 l 192 556 l 167 415 l 14 415 l -19 229 l 135 229 l 94 0 l 283 0 l 322 229 l 458 229 l 418 0 l 607 0 l 647 229 l 811 229 l 843 415 l 679 415 l 704 556 l 850 556 l 883 740 l 738 740 l 778 972 l 589 972 m 492 415 l 356 415 l 381 556 l 517 556 "},"$":{"ha":763,"x_min":0,"x_max":0,"o":"m 281 975 b 153 907 231 963 189 940 b 85 816 123 880 101 850 b 63 706 70 782 63 745 b 147 518 63 626 91 563 b 361 425 203 472 274 441 b 486 374 416 416 457 399 b 524 294 511 352 524 326 b 482 204 524 257 510 227 b 375 168 452 180 417 168 b 283 193 340 168 309 176 b 232 256 257 209 240 230 l 53 206 b 172 46 72 140 112 87 b 224 16 189 34 206 24 b 281 -3 241 8 260 2 l 281 -126 l 465 -126 l 465 -4 b 613 74 521 8 570 34 b 710 294 677 134 710 207 b 619 501 710 381 680 450 b 388 604 559 554 482 588 b 274 650 334 614 296 630 b 249 706 257 665 249 683 b 283 776 249 735 260 759 b 375 804 307 795 338 804 b 453 786 406 804 431 798 b 493 735 474 773 488 756 l 672 786 b 564 932 655 846 619 895 b 517 958 549 942 533 951 b 465 976 500 966 483 972 l 465 1099 l 281 1099 "},"%":{"ha":1258,"x_min":0,"x_max":0,"o":"m 954 482 b 779 408 886 482 827 457 b 724 328 754 384 736 358 b 706 232 712 299 706 267 b 779 57 706 163 730 105 b 954 -17 827 8 886 -17 b 1131 57 1023 -17 1081 8 b 1203 232 1179 105 1203 163 b 1131 408 1203 301 1179 360 b 954 482 1081 457 1023 482 m 954 296 b 999 278 972 296 987 290 b 1018 232 1012 265 1018 250 b 999 188 1018 215 1012 200 b 954 168 987 175 972 168 b 910 188 937 168 922 175 b 890 232 897 200 890 215 b 910 278 890 250 897 265 b 954 296 922 290 937 296 m 251 107 l 403 0 l 1010 865 l 858 972 m 304 989 b 129 917 236 989 177 965 b 56 740 80 868 56 809 b 129 564 56 671 80 612 b 304 490 177 515 236 490 b 481 564 374 490 432 515 b 535 644 505 588 523 615 b 554 740 548 673 554 705 b 481 917 554 809 530 868 b 304 989 432 965 374 989 m 304 804 b 350 785 322 804 337 798 b 368 740 362 773 368 758 b 350 694 368 723 362 707 b 304 676 337 682 322 676 b 260 694 287 676 272 682 b 240 740 247 707 240 723 b 260 785 240 758 247 773 b 304 804 272 798 287 804 "},"&":{"ha":879,"x_min":0,"x_max":0,"o":"m 340 -17 b 435 -9 372 -17 403 -14 b 528 14 466 -4 497 4 b 696 106 592 34 648 65 b 874 418 794 189 853 293 l 688 418 b 583 260 670 355 635 302 b 453 186 544 228 500 204 b 349 167 419 173 384 167 b 271 188 318 167 292 174 b 240 240 252 201 242 219 b 241 271 239 250 240 261 b 250 303 242 281 245 292 b 274 336 256 314 263 325 b 313 371 284 347 297 359 b 378 415 334 387 356 401 b 444 451 400 429 422 441 b 498 482 464 462 482 472 b 543 515 514 492 529 503 b 597 569 564 534 582 552 b 632 624 612 587 624 605 b 651 680 640 641 647 660 b 657 743 655 700 657 721 b 579 921 657 816 631 875 b 389 989 527 966 464 989 b 204 922 317 989 255 967 b 125 751 151 877 125 820 b 204 544 123 681 150 612 l 647 0 l 888 0 l 347 651 b 311 731 323 680 311 706 b 333 782 311 750 319 767 b 390 804 349 797 368 804 b 449 783 414 804 434 797 b 466 759 456 776 462 768 b 472 729 470 750 472 740 b 421 653 472 702 455 677 b 392 636 413 649 404 644 b 349 610 380 629 365 620 b 272 565 321 595 295 580 b 203 519 248 549 225 534 b 93 394 155 486 118 444 b 56 244 69 345 56 295 b 138 57 55 169 82 106 b 340 -17 192 8 260 -17 "},"'":{"ha":378,"x_min":0,"x_max":0,"o":"m 110 643 l 268 643 l 296 994 l 83 994 "},"(":{"ha":485,"x_min":0,"x_max":0,"o":"m 297 1110 b 199 972 260 1066 227 1020 b 125 819 170 924 145 873 b 65 486 85 712 65 601 b 80 317 65 429 70 372 b 125 153 90 261 105 206 b 199 0 145 99 170 48 b 297 -137 227 -48 260 -94 l 422 1 b 294 229 368 69 325 145 b 262 356 281 271 270 313 b 250 486 254 398 250 442 b 263 621 250 531 254 576 b 299 753 271 665 283 709 b 356 875 314 795 334 836 b 435 985 379 914 405 950 l 297 1110 "},")":{"ha":485,"x_min":0,"x_max":0,"o":"m 189 1110 b 109 1038 155 1079 128 1055 b 69 1001 90 1021 77 1009 b 54 987 61 993 56 988 l 51 985 b 130 875 81 950 107 914 b 188 753 153 836 172 795 b 223 621 203 709 215 665 b 235 486 231 576 235 531 b 190 229 235 398 220 313 b 63 1 161 145 118 69 b 136 -80 94 -34 119 -61 b 173 -121 154 -99 166 -112 b 186 -135 180 -129 184 -134 l 189 -137 b 361 153 263 -51 320 45 b 406 317 381 206 395 261 b 421 486 416 372 421 429 b 406 656 421 544 416 600 b 361 819 395 711 381 766 b 288 972 341 873 316 924 b 189 1110 260 1020 227 1066 "},"*":{"ha":692,"x_min":0,"x_max":0,"o":"m 317 646 l 375 822 l 125 901 l 69 725 m 421 679 l 271 788 l 117 576 l 268 468 m 421 788 l 271 679 l 424 468 l 575 576 m 317 822 l 375 646 l 622 725 l 565 901 m 253 733 l 438 733 l 438 994 l 253 994 "},"+":{"ha":861,"x_min":0,"x_max":0,"o":"m 339 508 l 118 508 l 118 322 l 339 322 l 339 101 l 524 101 l 524 322 l 743 322 l 743 508 l 524 508 l 524 726 l 339 726 "},",":{"ha":358,"x_min":0,"x_max":0,"o":"m 124 175 b 102 3 124 116 116 58 b 38 -158 88 -53 66 -106 l 196 -158 b 319 175 278 -67 319 44 l 124 175 "},"-":{"ha":619,"x_min":0,"x_max":0,"o":"m 546 321 l 546 507 l 74 507 l 74 321 "},".":{"ha":353,"x_min":0,"x_max":0,"o":"m 293 96 b 260 179 293 128 282 156 b 176 213 237 201 209 213 b 94 179 144 213 117 201 b 60 96 71 156 60 128 b 94 14 60 63 71 36 b 176 -21 117 -9 144 -21 b 260 14 209 -21 237 -9 b 293 96 282 37 293 64 "},"/":{"ha":581,"x_min":0,"x_max":0,"o":"m 21 -62 l 196 -121 l 560 979 l 385 1038 "},":":{"ha":428,"x_min":0,"x_max":0,"o":"m 214 463 b 296 497 245 463 273 474 b 331 579 319 519 331 547 b 296 661 331 611 319 638 b 214 696 273 684 245 696 b 132 661 182 696 155 684 b 97 579 109 638 97 611 b 132 497 97 547 109 519 b 214 463 154 474 181 463 m 215 -1 b 297 33 247 -1 274 10 b 332 115 320 56 332 84 b 297 197 332 147 320 174 b 215 232 274 220 247 232 b 133 197 183 232 156 220 b 99 115 110 174 99 147 b 133 33 99 83 110 56 b 215 -1 156 10 183 -1 "},";":{"ha":436,"x_min":0,"x_max":0,"o":"m 133 175 b 112 3 133 116 126 58 b 47 -158 97 -53 76 -106 l 204 -158 b 328 175 287 -67 328 44 l 133 175 m 224 458 b 306 493 255 458 282 470 b 340 575 329 516 340 544 b 306 657 340 606 329 634 b 224 692 282 680 255 692 b 142 657 191 692 164 680 b 107 575 119 634 107 606 b 142 493 107 543 119 515 b 224 458 164 470 191 458 "},"<":{"ha":879,"x_min":0,"x_max":0,"o":"m 175 510 l 175 310 l 699 85 l 699 285 l 414 410 l 699 535 l 699 735 "},"=":{"ha":879,"x_min":0,"x_max":0,"o":"m 736 460 l 736 646 l 163 646 l 163 460 m 736 182 l 736 368 l 163 368 l 163 182 "},">":{"ha":879,"x_min":0,"x_max":0,"o":"m 704 510 l 704 310 l 179 85 l 179 285 l 465 410 l 179 535 l 179 735 "},"?":{"ha":701,"x_min":0,"x_max":0,"o":"m 439 96 b 406 179 439 128 428 156 b 322 213 382 201 355 213 b 240 179 291 213 263 201 b 206 96 217 156 206 128 b 240 14 206 64 217 37 b 322 -21 263 -9 291 -21 b 406 14 355 -21 382 -9 b 439 96 428 37 439 64 m 340 989 b 136 914 263 989 195 964 b 31 725 78 864 43 801 l 214 697 b 257 774 219 729 233 754 b 340 804 281 794 309 804 b 433 767 377 804 408 792 b 469 674 457 742 469 711 b 450 604 469 648 463 625 b 426 578 444 595 436 586 b 394 558 417 569 406 563 b 325 511 369 545 345 530 b 271 444 305 493 287 470 b 224 282 239 394 224 339 l 408 282 b 425 344 408 306 414 327 b 474 390 435 364 451 379 b 549 440 501 403 526 420 b 606 507 571 459 590 482 b 656 674 639 558 656 613 b 563 896 656 761 625 835 b 340 989 501 958 427 989 "},"@":{"ha":1358,"x_min":0,"x_max":0,"o":"m 689 992 b 563 979 646 992 604 988 b 443 943 522 971 482 959 b 331 884 403 927 366 908 b 235 803 297 860 264 833 b 155 706 205 773 178 741 b 94 596 131 672 111 635 b 46 350 62 516 46 434 b 58 224 46 307 50 266 b 94 103 67 183 79 143 b 155 -8 111 64 131 27 b 235 -104 178 -42 205 -75 b 331 -185 264 -135 297 -162 b 443 -243 366 -208 403 -227 b 563 -281 482 -260 522 -272 b 689 -292 604 -289 646 -293 b 771 -286 716 -292 743 -290 b 853 -268 799 -282 826 -276 l 813 -135 b 751 -148 792 -140 772 -145 b 689 -153 730 -151 709 -153 b 569 -139 647 -153 607 -148 b 458 -97 530 -130 494 -116 b 391 -56 434 -84 412 -71 b 333 -7 370 -42 351 -25 b 283 53 315 13 298 33 b 243 119 267 74 254 96 b 200 231 224 156 209 193 b 186 350 191 270 186 309 b 203 481 186 395 192 439 b 254 601 214 523 231 563 b 333 706 276 640 303 675 b 436 785 364 736 398 763 b 689 853 513 830 597 853 b 808 839 730 853 769 848 b 918 796 846 830 883 815 b 983 757 941 784 963 771 b 1042 708 1004 743 1023 727 b 1093 648 1061 690 1078 670 b 1135 579 1108 626 1122 603 b 1192 350 1173 509 1192 432 b 1060 13 1192 221 1148 109 b 1042 4 1055 7 1049 4 b 1024 11 1035 4 1029 6 b 1018 29 1020 17 1018 23 l 1018 350 b 921 582 1018 441 986 518 b 689 678 857 646 780 678 b 457 582 598 678 521 646 b 360 350 392 518 360 441 b 457 117 360 259 392 181 b 689 21 521 53 598 21 b 860 76 752 21 809 39 l 860 29 b 910 -92 860 -18 876 -58 b 1032 -143 944 -126 985 -143 b 1154 -90 1081 -143 1122 -125 b 1230 4 1183 -61 1208 -29 b 1285 108 1252 38 1270 72 b 1319 227 1300 147 1311 187 b 1331 350 1327 267 1331 308 b 1318 475 1331 393 1326 434 b 1282 596 1310 516 1298 556 b 1222 706 1265 635 1245 672 b 1143 803 1199 741 1173 773 b 1045 884 1113 833 1080 860 b 933 943 1010 908 973 927 b 814 979 894 959 855 971 b 689 992 773 988 731 992 m 689 521 b 810 471 736 521 776 504 b 860 350 843 438 860 397 b 810 228 860 303 843 262 b 689 179 776 195 736 179 b 568 228 642 179 601 195 b 518 350 535 262 518 303 b 568 471 518 396 535 437 b 689 521 601 504 642 521 "},"A":{"ha":917,"x_min":0,"x_max":0,"o":"m 453 700 l 575 367 l 336 367 m 643 181 l 708 0 l 906 0 l 547 972 l 354 972 l 11 0 l 208 0 l 272 181 "},"B":{"ha":856,"x_min":0,"x_max":0,"o":"m 496 408 b 581 376 530 408 558 398 b 615 297 604 355 615 329 b 581 218 615 266 604 239 b 496 186 558 197 530 186 l 288 186 l 288 408 m 443 786 b 521 760 475 786 500 777 b 551 690 541 741 551 718 b 521 621 551 663 541 639 b 443 594 500 603 475 594 l 288 594 l 288 786 m 101 0 l 510 0 b 715 86 590 0 659 29 b 801 292 773 143 801 211 b 768 426 801 340 790 385 b 676 528 746 468 715 502 b 738 696 717 577 738 633 b 657 892 738 772 711 837 b 461 972 603 945 538 972 l 101 972 "},"C":{"ha":922,"x_min":0,"x_max":0,"o":"m 539 989 b 185 839 398 989 280 939 b 81 677 139 790 105 736 b 46 486 58 618 46 555 b 81 294 46 417 58 353 b 185 133 105 236 139 182 b 539 -17 280 33 398 -17 b 732 24 607 -17 672 -3 b 816 71 762 37 790 52 b 890 133 842 89 867 110 l 758 265 b 539 168 699 200 626 168 b 319 261 452 168 379 199 b 254 363 291 292 269 326 b 232 486 239 401 232 442 b 254 608 232 530 239 570 b 319 710 269 645 291 679 b 539 804 379 773 452 804 b 760 707 626 803 700 771 l 890 838 b 817 901 868 862 844 883 b 732 949 791 920 763 936 b 639 978 702 962 671 972 b 539 989 606 985 573 989 "},"D":{"ha":971,"x_min":0,"x_max":0,"o":"m 439 788 b 651 700 522 788 593 758 b 739 486 710 641 739 569 b 651 274 739 403 710 332 b 439 185 593 214 522 185 l 288 185 l 288 788 l 439 788 m 101 972 l 101 0 l 439 0 b 782 143 572 0 687 48 b 889 299 829 190 865 242 b 925 486 913 356 925 419 b 782 831 925 620 877 735 b 439 972 688 925 573 972 "},"E":{"ha":817,"x_min":0,"x_max":0,"o":"m 729 0 l 729 185 l 288 185 l 288 399 l 633 399 l 633 583 l 288 583 l 288 788 l 728 788 l 728 972 l 101 972 l 101 0 "},"F":{"ha":771,"x_min":0,"x_max":0,"o":"m 288 0 l 288 386 l 640 386 l 640 571 l 288 571 l 288 788 l 732 788 l 732 972 l 101 972 l 101 0 "},"G":{"ha":1061,"x_min":0,"x_max":0,"o":"m 538 989 b 189 843 400 989 283 940 b 46 486 94 745 46 626 b 188 131 46 347 93 229 b 538 -17 282 32 399 -17 b 731 22 605 -17 669 -4 b 815 69 760 35 788 51 b 889 133 842 88 867 109 b 1029 486 982 231 1029 349 l 1029 579 l 576 579 l 576 393 l 825 393 b 800 324 819 368 811 345 b 758 265 789 302 775 283 b 538 168 699 200 625 168 b 319 261 450 168 378 199 b 232 486 261 323 232 398 b 319 710 232 574 261 649 b 538 804 378 773 450 804 b 760 707 625 803 700 771 l 890 838 b 817 902 868 863 844 884 b 732 950 790 920 762 936 b 638 979 701 963 670 973 b 538 989 605 986 572 989 "},"H":{"ha":1010,"x_min":0,"x_max":0,"o":"m 288 0 l 288 404 l 724 404 l 724 0 l 908 0 l 908 972 l 724 972 l 724 589 l 288 589 l 288 974 l 101 974 l 101 0 "},"I":{"ha":389,"x_min":0,"x_max":0,"o":"m 288 0 l 288 972 l 101 972 l 101 0 "},"J":{"ha":613,"x_min":0,"x_max":0,"o":"m 340 281 b 306 200 340 249 329 222 b 225 165 283 177 256 165 b 143 199 193 165 165 176 l 13 68 b 225 -19 71 10 142 -19 b 438 68 307 -19 378 10 b 525 281 496 127 525 198 l 525 972 l 340 972 "},"K":{"ha":900,"x_min":0,"x_max":0,"o":"m 288 0 l 288 310 l 365 399 l 661 0 l 889 0 l 489 544 l 864 972 l 621 972 l 288 596 l 288 972 l 101 972 l 101 0 "},"L":{"ha":749,"x_min":0,"x_max":0,"o":"m 726 0 l 726 185 l 288 185 l 288 972 l 101 972 l 101 0 "},"M":{"ha":1129,"x_min":0,"x_max":0,"o":"m 15 0 l 203 0 l 293 592 l 467 78 l 664 78 l 838 592 l 928 0 l 1115 0 l 972 972 l 765 972 l 565 376 l 365 972 l 160 972 "},"N":{"ha":1000,"x_min":0,"x_max":0,"o":"m 101 0 l 288 0 l 288 635 l 713 0 l 899 0 l 899 972 l 713 972 l 713 338 l 288 972 l 101 972 "},"O":{"ha":1075,"x_min":0,"x_max":0,"o":"m 538 804 b 756 710 624 804 696 773 b 822 608 785 679 807 645 b 844 486 837 570 844 530 b 756 261 844 398 815 323 b 538 168 696 199 624 168 b 319 261 451 168 379 199 b 232 486 261 323 232 398 b 253 608 232 530 239 570 b 319 710 268 645 290 679 b 538 804 379 773 451 804 m 538 989 b 186 840 399 989 281 939 b 46 486 93 743 46 625 b 186 131 46 347 93 229 b 538 -17 281 32 398 -17 b 883 125 675 -17 790 31 b 1029 486 981 223 1029 344 b 886 844 1029 627 981 746 b 538 989 792 941 675 989 "},"P":{"ha":817,"x_min":0,"x_max":0,"o":"m 471 788 b 571 744 509 788 542 773 b 613 644 599 717 613 683 b 571 546 613 606 599 574 b 471 503 542 517 509 503 l 288 503 l 288 788 m 101 0 l 288 0 l 288 318 l 471 318 b 703 414 561 318 638 350 b 799 644 767 478 799 555 b 703 876 799 735 767 813 b 471 972 639 940 562 972 l 101 972 "},"Q":{"ha":1075,"x_min":0,"x_max":0,"o":"m 538 804 b 756 710 624 804 696 773 b 822 608 785 679 807 645 b 844 486 837 570 844 530 b 806 338 844 431 831 381 l 722 422 l 590 290 l 676 206 b 538 168 637 181 590 168 b 319 261 451 168 379 199 b 232 486 261 323 232 398 b 253 608 232 530 239 570 b 319 710 268 645 290 679 b 538 804 379 773 451 804 m 538 989 b 186 840 399 989 281 939 b 46 486 93 743 46 625 b 185 133 46 348 92 231 b 538 -17 279 33 397 -17 b 813 68 643 -17 735 12 l 899 -17 l 1029 114 l 944 199 b 1029 486 1001 281 1029 377 b 883 846 1029 628 981 748 b 538 989 790 941 675 989 "},"R":{"ha":835,"x_min":0,"x_max":0,"o":"m 479 788 b 574 747 515 788 547 774 b 613 653 600 720 613 689 b 574 558 613 617 600 585 b 479 518 547 531 515 518 l 288 518 l 288 788 m 101 0 l 288 0 l 288 333 l 465 333 l 600 0 l 799 0 l 643 385 b 757 496 690 412 728 449 b 799 653 785 544 799 596 b 704 879 799 741 767 816 b 479 972 642 941 567 972 l 101 972 "},"S":{"ha":763,"x_min":0,"x_max":0,"o":"m 375 989 b 153 907 287 989 213 962 b 85 816 123 880 101 850 b 63 706 70 782 63 745 b 147 518 63 626 91 563 b 361 425 203 472 274 441 b 485 376 415 416 456 400 b 524 294 511 354 524 327 b 482 204 524 257 510 227 b 375 168 452 180 417 168 b 283 193 340 168 309 176 b 232 256 257 209 240 230 l 53 206 b 172 46 72 140 112 87 b 375 -17 231 4 299 -17 b 613 74 469 -17 548 13 b 710 294 677 134 710 207 b 619 501 710 381 680 450 b 388 604 559 554 482 588 b 275 647 336 613 298 628 b 249 706 257 663 249 682 b 283 776 249 735 260 759 b 375 804 307 795 338 804 b 453 786 406 804 431 798 b 493 735 474 773 488 756 l 672 786 b 564 932 655 846 619 895 b 375 989 509 970 446 989 "},"T":{"ha":819,"x_min":0,"x_max":0,"o":"m 21 788 l 318 788 l 318 0 l 503 0 l 503 788 l 799 788 l 799 972 l 21 972 "},"U":{"ha":976,"x_min":0,"x_max":0,"o":"m 88 425 b 204 107 88 295 126 189 b 488 -17 281 25 375 -17 b 772 107 600 -17 695 25 b 860 249 811 149 840 196 b 889 425 879 301 889 360 l 889 972 l 703 972 l 703 425 b 642 239 703 347 682 285 b 488 168 600 192 549 168 b 336 239 427 168 377 192 b 274 425 294 285 274 347 l 274 972 l 88 972 "},"V":{"ha":924,"x_min":0,"x_max":0,"o":"m 365 0 l 560 0 l 911 972 l 715 972 l 463 274 l 207 972 l 11 972 "},"W":{"ha":1311,"x_min":0,"x_max":0,"o":"m 929 353 l 754 972 l 557 972 l 383 353 l 207 972 l 11 972 l 286 0 l 481 0 l 656 618 l 832 0 l 1028 0 l 1300 972 l 1103 972 "},"X":{"ha":857,"x_min":0,"x_max":0,"o":"m 429 667 l 238 972 l 19 972 l 321 490 l 14 0 l 232 0 l 429 315 l 626 0 l 844 0 l 538 490 l 839 972 l 621 972 "},"Y":{"ha":831,"x_min":0,"x_max":0,"o":"m 324 433 l 324 0 l 508 0 l 508 433 l 821 972 l 604 972 l 417 647 l 228 972 l 10 972 "},"Z":{"ha":839,"x_min":0,"x_max":0,"o":"m 785 0 l 785 185 l 297 185 l 789 788 l 789 972 l 56 972 l 56 788 l 543 788 l 51 185 l 51 0 "},"[":{"ha":481,"x_min":0,"x_max":0,"o":"m 407 1110 l 407 925 l 290 925 b 288 922 288 925 288 924 l 288 50 b 290 46 288 47 288 46 l 407 46 l 407 -139 l 272 -139 b 151 -89 225 -139 185 -122 b 101 31 118 -56 101 -17 l 101 940 b 151 1061 101 988 118 1028 b 272 1110 185 1094 225 1110 "},"\\":{"ha":582,"x_min":0,"x_max":0,"o":"m 560 -62 l 385 -121 l 21 979 l 196 1038 "},"]":{"ha":481,"x_min":0,"x_max":0,"o":"m 79 1110 l 79 925 l 196 925 b 199 922 198 925 199 924 l 199 50 b 196 46 199 47 198 46 l 79 46 l 79 -139 l 214 -139 b 335 -89 261 -139 301 -122 b 385 31 368 -56 385 -17 l 385 940 b 335 1061 385 988 368 1028 b 214 1110 301 1094 261 1110 "},"^":{"ha":817,"x_min":0,"x_max":0,"o":"m 715 518 l 511 972 l 310 972 l 511 518 m 306 518 l 510 972 l 310 972 l 103 518 "},"_":{"ha":647,"x_min":0,"x_max":0,"o":"m 615 -185 l 615 0 l 32 0 l 32 -185 "},"`":{"ha":374,"x_min":0,"x_max":0,"o":"m 378 779 l 228 974 l 6 974 l 179 779 "},"a":{"ha":831,"x_min":0,"x_max":0,"o":"m 590 619 b 582 630 588 623 585 627 b 574 639 579 633 576 636 b 385 711 524 687 461 711 b 138 606 286 711 203 676 b 39 347 72 535 39 449 b 138 89 39 245 72 159 b 385 -17 203 19 286 -17 b 572 51 462 -17 524 6 b 581 60 576 54 579 57 b 590 69 584 64 587 67 l 590 0 l 754 0 l 754 694 l 590 694 m 400 528 b 522 476 449 528 490 511 b 557 418 537 459 549 439 b 569 347 565 397 569 373 b 557 277 569 322 565 299 b 522 219 549 255 537 236 b 400 167 490 184 449 167 b 276 219 350 167 309 184 b 228 347 244 255 228 297 b 276 476 228 398 244 441 b 400 528 309 511 350 528 "},"b":{"ha":831,"x_min":0,"x_max":0,"o":"m 431 528 b 556 476 481 528 522 511 b 604 347 588 441 604 398 b 556 219 604 297 588 255 b 431 167 522 184 481 167 b 310 219 381 167 341 184 b 274 277 294 236 282 255 b 261 347 265 299 261 322 b 274 418 261 373 265 397 b 310 476 282 439 294 459 b 431 528 341 511 381 528 m 447 711 b 286 657 383 711 330 693 b 274 647 282 654 278 651 b 261 636 270 644 266 640 l 261 972 l 76 972 l 76 0 l 242 0 l 242 69 b 251 59 244 66 247 62 b 261 50 254 56 257 53 b 447 -17 309 6 371 -17 b 694 89 546 -17 629 19 b 792 347 759 159 792 245 b 694 606 792 449 759 535 b 447 711 629 676 546 711 "},"c":{"ha":671,"x_min":0,"x_max":0,"o":"m 396 711 b 142 606 295 711 210 676 b 39 347 73 534 39 448 b 142 90 39 246 73 161 b 396 -17 210 19 295 -17 b 647 89 495 -17 579 19 l 517 221 b 396 168 484 186 444 168 b 274 221 347 168 306 186 b 225 347 241 255 225 297 b 274 474 225 397 241 439 b 396 526 306 509 347 526 b 517 474 444 526 484 509 l 647 606 b 396 711 579 676 495 711 "},"d":{"ha":831,"x_min":0,"x_max":0,"o":"m 400 528 b 276 476 350 528 309 511 b 228 347 244 441 228 398 b 276 219 228 297 244 255 b 400 167 309 184 350 167 b 522 219 449 167 490 184 b 557 277 537 236 549 255 b 569 347 565 299 569 322 b 557 418 569 373 565 397 b 522 476 549 439 537 459 b 400 528 490 511 449 528 m 385 711 b 539 660 445 711 496 694 b 555 649 544 657 550 653 b 569 636 560 645 565 641 l 569 972 l 754 972 l 754 0 l 590 0 l 590 69 b 576 56 586 65 581 60 b 563 44 572 52 567 48 b 385 -17 515 4 456 -17 b 138 89 286 -17 203 19 b 39 347 72 159 39 245 b 138 606 39 449 72 535 b 385 711 203 676 286 711 "},"e":{"ha":757,"x_min":0,"x_max":0,"o":"m 732 347 b 638 606 732 452 700 538 b 396 711 572 676 491 711 b 143 606 295 711 211 676 b 39 347 74 534 39 448 b 147 90 39 247 75 162 b 404 -17 219 19 304 -17 b 679 89 518 -17 610 19 l 550 221 b 404 168 515 186 466 168 b 301 203 365 168 331 180 b 270 236 289 212 279 223 b 250 278 261 249 255 263 l 732 278 m 392 535 b 482 504 428 535 458 525 b 528 426 503 485 519 459 l 246 426 b 293 501 255 456 271 481 b 392 535 321 524 354 535 "},"f":{"ha":521,"x_min":0,"x_max":0,"o":"m 415 1000 b 225 921 340 1000 277 974 b 146 732 172 869 146 806 l 146 694 l 32 694 l 32 510 l 146 510 l 146 0 l 331 0 l 331 510 l 514 510 l 514 694 l 331 694 l 331 732 b 356 790 331 754 339 774 b 415 815 372 807 392 815 l 514 815 l 514 1000 l 415 1000 "},"g":{"ha":831,"x_min":0,"x_max":0,"o":"m 385 710 b 138 604 286 710 203 675 b 39 346 72 534 39 448 b 138 88 39 245 72 159 b 385 -18 203 17 286 -18 b 553 38 452 -18 508 0 l 559 44 b 565 51 561 46 563 49 l 565 40 l 565 29 b 553 -25 563 10 559 -8 b 526 -71 546 -42 538 -57 b 400 -125 499 -107 456 -125 b 288 -112 357 -125 320 -121 b 189 -65 256 -103 223 -87 l 103 -215 b 172 -256 123 -230 146 -244 b 267 -286 197 -269 229 -279 b 408 -297 305 -294 352 -297 b 661 -197 514 -297 598 -264 b 754 76 724 -131 755 -39 l 754 693 l 590 693 l 590 619 l 578 631 l 567 643 b 385 710 519 688 458 710 m 400 526 b 521 474 449 526 489 509 b 557 416 537 456 549 437 b 569 346 565 395 569 372 b 557 276 569 321 565 298 b 521 218 549 255 537 236 b 400 165 489 183 449 165 b 276 218 350 165 309 183 b 228 346 244 253 228 296 b 276 474 228 397 244 439 b 400 526 309 509 350 526 "},"h":{"ha":793,"x_min":0,"x_max":0,"o":"m 729 361 b 709 502 729 413 722 460 b 650 614 696 544 676 581 b 438 711 596 679 525 711 b 281 657 375 711 322 693 b 272 649 278 654 275 651 b 264 640 268 646 266 643 l 264 972 l 78 972 l 78 0 l 264 0 l 264 368 b 304 482 264 415 277 453 b 404 526 330 512 363 526 b 504 482 444 526 477 512 b 543 368 530 454 543 416 l 543 0 l 729 0 "},"i":{"ha":369,"x_min":0,"x_max":0,"o":"m 278 0 l 278 694 l 92 694 l 92 0 m 296 910 b 264 989 296 941 285 968 b 185 1021 243 1010 216 1021 b 107 989 154 1021 128 1010 b 74 910 85 967 74 940 b 107 832 74 880 85 854 b 185 799 129 810 155 799 b 264 832 215 799 242 810 b 296 910 285 853 296 879 "},"j":{"ha":361,"x_min":0,"x_max":0,"o":"m 82 47 b 35 -67 82 3 66 -35 b -79 -114 3 -98 -35 -114 l -79 -299 b 165 -197 16 -299 98 -265 b 242 -85 200 -163 225 -125 b 267 47 258 -44 267 0 l 267 694 l 82 694 m 288 908 b 256 989 288 941 277 968 b 174 1022 233 1011 206 1022 b 93 989 142 1022 115 1011 b 60 908 71 967 60 940 b 93 828 60 877 71 850 b 174 794 115 806 142 794 b 256 828 206 794 233 806 b 288 908 277 850 288 877 "},"k":{"ha":760,"x_min":0,"x_max":0,"o":"m 261 0 l 261 169 l 340 256 l 521 0 l 750 0 l 468 394 l 742 694 l 493 694 l 261 444 l 261 972 l 76 972 l 76 0 "},"l":{"ha":338,"x_min":0,"x_max":0,"o":"m 76 0 l 261 0 l 261 972 l 76 972 "},"m":{"ha":1238,"x_min":0,"x_max":0,"o":"m 1174 361 b 1154 502 1174 413 1167 460 b 1096 614 1141 544 1122 581 b 886 711 1044 679 974 711 b 685 615 799 711 732 679 b 674 598 681 610 677 604 b 664 578 670 592 667 585 b 653 597 660 584 656 591 b 640 614 649 603 645 608 b 431 711 588 679 518 711 b 263 643 360 711 304 688 b 256 638 261 641 259 639 b 250 631 254 636 252 633 l 250 694 l 76 694 l 76 0 l 261 0 l 261 368 b 300 483 261 416 274 455 b 397 526 326 512 358 526 b 494 483 436 526 469 512 b 532 368 519 455 532 416 l 532 0 l 718 0 l 718 368 b 756 483 718 416 731 455 b 853 526 781 512 814 526 b 950 483 892 526 924 512 b 989 368 976 455 989 416 l 989 0 l 1174 0 "},"n":{"ha":792,"x_min":0,"x_max":0,"o":"m 726 361 b 707 502 726 413 720 460 b 649 614 694 544 675 581 b 436 711 595 679 524 711 b 272 651 369 711 314 691 l 261 640 l 250 629 l 250 694 l 76 694 l 76 0 l 261 0 l 261 368 b 301 482 261 415 275 453 b 403 526 328 512 362 526 b 501 482 443 526 475 512 b 542 368 528 454 542 416 l 542 0 l 726 0 "},"o":{"ha":790,"x_min":0,"x_max":0,"o":"m 396 526 b 517 474 444 526 484 509 b 565 347 549 439 565 397 b 553 278 565 322 561 299 b 517 221 546 256 533 238 b 396 168 484 186 444 168 b 274 221 347 168 306 186 b 225 347 241 255 225 297 b 237 417 225 372 229 395 b 274 474 245 438 257 457 b 396 526 306 509 347 526 m 396 711 b 143 604 295 711 211 675 b 39 347 74 534 39 448 b 143 90 39 246 74 161 b 396 -17 211 19 295 -17 b 647 90 496 -17 580 19 b 751 347 717 161 751 246 b 647 604 751 448 717 534 b 396 711 580 675 496 711 "},"p":{"ha":838,"x_min":0,"x_max":0,"o":"m 249 625 b 260 637 252 629 256 633 b 272 649 263 641 268 645 b 454 711 319 690 380 711 b 701 606 553 711 636 676 b 799 347 766 535 799 449 b 701 89 799 245 766 159 b 454 -17 636 19 553 -17 b 283 43 387 -17 330 3 b 276 50 281 45 278 47 b 268 58 273 53 271 56 l 268 -278 l 83 -278 l 83 694 l 249 694 m 438 167 b 563 219 488 167 529 184 b 611 347 595 255 611 297 b 563 476 611 398 595 441 b 438 528 529 511 488 528 b 317 476 388 528 348 511 b 268 347 284 441 268 398 b 317 219 268 297 284 255 b 438 167 348 184 388 167 "},"q":{"ha":826,"x_min":0,"x_max":0,"o":"m 590 625 b 576 638 586 630 581 634 b 561 651 572 642 567 647 b 385 711 515 691 456 711 b 138 606 286 711 203 676 b 39 347 72 535 39 449 b 138 89 39 245 72 159 b 385 -17 203 19 286 -17 b 542 36 447 -17 499 1 b 556 47 547 39 552 42 b 569 58 560 51 565 55 l 569 -278 l 754 -278 l 754 694 l 590 694 m 400 167 b 276 219 350 167 309 184 b 228 347 244 255 228 297 b 276 476 228 398 244 441 b 400 528 309 511 350 528 b 522 476 449 528 490 511 b 557 418 537 459 549 439 b 569 347 565 397 569 373 b 557 277 569 322 565 299 b 522 219 549 255 537 236 b 400 167 490 184 449 167 "},"r":{"ha":525,"x_min":0,"x_max":0,"o":"m 76 0 l 261 0 l 261 317 b 344 471 272 383 300 435 b 507 526 390 508 444 526 l 507 711 b 344 674 446 711 392 699 b 271 621 318 660 293 642 b 260 610 267 617 264 613 b 250 599 257 606 254 602 l 250 694 l 76 694 "},"s":{"ha":614,"x_min":0,"x_max":0,"o":"m 556 563 b 465 672 535 611 505 647 b 308 711 423 699 370 712 b 131 653 240 710 181 691 b 57 493 81 615 57 562 b 110 356 58 439 75 394 b 173 307 127 336 148 320 b 256 278 197 294 225 284 b 278 272 263 276 271 274 b 301 265 286 269 294 267 b 382 213 354 252 381 235 b 361 168 383 195 376 180 b 300 151 347 157 327 151 b 219 200 261 151 234 168 l 44 138 b 144 24 64 88 97 50 b 308 -17 193 -2 247 -16 b 485 35 381 -17 440 0 b 571 204 541 76 570 133 b 494 371 571 272 545 327 b 356 435 460 400 414 422 b 335 440 350 437 343 438 b 307 446 326 442 317 444 b 243 492 265 455 244 470 b 261 531 242 507 248 520 b 311 546 273 541 290 546 b 354 535 328 546 342 542 b 382 503 367 527 376 517 l 556 563 "},"t":{"ha":529,"x_min":0,"x_max":0,"o":"m 129 694 l 18 694 l 18 510 l 129 510 l 129 310 b 219 92 129 225 159 152 b 439 0 281 31 354 0 l 493 0 l 493 185 l 439 185 b 350 222 405 185 375 197 b 314 310 326 246 314 275 l 314 510 l 493 510 l 493 694 l 314 694 l 314 911 l 129 911 "},"u":{"ha":779,"x_min":0,"x_max":0,"o":"m 65 333 b 160 83 65 232 97 149 b 390 -17 223 17 300 -17 b 621 83 481 -17 558 17 b 715 333 684 149 715 232 l 715 694 l 531 694 l 531 326 b 490 213 531 279 517 241 b 390 168 463 183 430 168 b 290 213 350 168 317 183 b 250 326 263 241 250 279 l 250 694 l 65 694 "},"v":{"ha":767,"x_min":0,"x_max":0,"o":"m 285 0 l 482 0 l 757 694 l 558 694 l 383 251 l 208 694 l 10 694 "},"w":{"ha":1135,"x_min":0,"x_max":0,"o":"m 793 297 l 665 694 l 471 694 l 336 297 l 208 694 l 14 694 l 238 0 l 432 0 l 567 397 l 694 0 l 889 0 l 1122 694 l 928 694 "},"x":{"ha":718,"x_min":0,"x_max":0,"o":"m 482 0 l 706 0 l 471 346 l 706 694 l 483 694 l 360 513 l 236 694 l 14 694 l 247 347 l 14 0 l 239 0 l 360 179 "},"y":{"ha":804,"x_min":0,"x_max":0,"o":"m 308 6 l 290 -36 b 244 -90 280 -59 265 -77 b 171 -110 223 -103 199 -110 l 93 -110 l 93 -294 l 171 -294 b 344 -243 234 -294 292 -277 b 413 -185 370 -226 393 -207 b 461 -110 432 -162 448 -137 l 799 694 l 597 694 l 407 240 l 208 694 l 7 694 "},"z":{"ha":636,"x_min":0,"x_max":0,"o":"m 594 0 l 594 185 l 303 185 l 594 510 l 594 694 l 42 694 l 42 510 l 335 510 l 42 185 l 42 0 "},"{":{"ha":549,"x_min":0,"x_max":0,"o":"m 475 46 b 407 86 443 48 420 61 b 382 260 390 117 382 175 b 300 457 382 347 355 413 b 278 472 294 463 286 468 b 254 486 271 477 263 481 b 281 503 263 492 272 497 b 307 524 290 509 299 516 b 382 713 357 567 382 630 b 388 818 382 754 384 789 b 404 885 391 847 397 869 b 475 926 418 912 442 925 l 475 1111 b 269 1014 385 1111 317 1079 b 196 711 220 946 196 845 b 171 613 196 665 188 632 b 74 579 151 590 119 579 l 74 393 b 168 364 117 393 149 383 b 196 261 187 344 196 309 b 214 85 196 194 202 136 b 269 -40 226 35 244 -7 b 475 -139 317 -106 385 -139 "},"|":{"ha":388,"x_min":0,"x_max":0,"o":"m 101 -306 l 286 -306 l 286 1097 l 101 1097 "},"}":{"ha":549,"x_min":0,"x_max":0,"o":"m 74 46 b 142 86 106 48 129 61 b 168 260 159 117 168 175 b 249 457 168 347 195 413 b 272 472 256 463 264 468 b 296 486 279 477 288 481 b 267 503 286 492 276 497 b 242 524 259 509 250 516 b 168 713 193 566 168 629 b 144 885 168 796 160 853 b 74 926 131 912 107 925 l 74 1111 b 281 1014 164 1111 233 1079 b 353 711 329 946 353 845 b 379 613 353 665 362 632 b 475 579 398 590 430 579 l 475 393 b 382 364 431 393 400 383 b 360 323 372 354 364 340 b 353 261 355 306 353 285 b 335 85 353 194 347 136 b 281 -40 323 35 305 -7 b 74 -139 233 -106 164 -139 "},"~":{"ha":929,"x_min":0,"x_max":0,"o":"m 326 635 b 150 556 254 635 195 608 b 74 350 103 501 77 432 l 260 350 b 289 431 264 387 274 414 b 338 450 301 444 317 450 b 371 442 349 450 360 447 b 417 389 384 434 399 417 b 649 244 470 292 548 244 b 825 324 721 244 780 271 b 901 529 872 378 898 447 l 717 529 b 689 449 713 492 704 465 b 642 429 678 436 662 429 b 588 458 619 429 601 439 b 576 476 584 463 580 469 b 563 497 572 483 567 490 b 326 635 516 589 438 635 "}," ":{"ha":347,"x_min":0,"x_max":0,"o":""},"¡":{"ha":436,"x_min":0,"x_max":0,"o":"m 218 478 b 136 513 186 478 158 489 b 101 594 113 535 101 562 b 136 678 101 627 113 655 b 218 711 158 700 186 711 b 301 678 251 711 279 700 b 335 594 324 655 335 627 b 301 513 335 562 324 535 b 218 478 278 489 250 478 m 126 368 l 311 368 l 311 -282 l 126 -282 "},"¢":{"ha":667,"x_min":0,"x_max":0,"o":"m 439 972 l 319 972 l 319 843 b 225 808 286 836 255 824 b 143 743 195 791 168 770 b 39 486 74 673 39 587 b 143 229 39 385 74 300 b 225 165 168 202 195 181 b 319 129 255 148 286 137 l 319 0 l 439 0 l 439 125 b 647 228 519 133 589 168 l 517 360 b 481 331 506 348 495 338 b 439 317 468 323 454 319 l 439 656 b 517 613 469 651 495 637 l 647 744 b 439 847 589 805 519 839 m 319 331 b 294 342 310 332 302 336 b 274 360 286 347 279 353 b 225 486 241 395 225 437 b 237 556 225 511 229 534 b 274 613 245 577 257 596 b 294 631 279 620 286 626 b 319 642 302 635 310 639 "},"£":{"ha":831,"x_min":0,"x_max":0,"o":"m 333 196 b 349 244 340 212 345 228 b 354 293 352 260 354 276 l 354 367 l 638 367 l 638 563 l 354 563 l 354 681 b 388 761 354 712 365 739 b 469 796 411 784 438 796 b 550 761 500 796 527 784 b 585 681 573 738 585 711 l 781 681 b 689 900 781 767 750 840 b 469 992 629 961 556 992 b 249 900 383 992 310 961 b 157 681 188 840 157 767 l 157 563 l 60 563 l 60 367 l 157 367 l 157 293 b 129 224 157 266 148 243 b 60 196 110 205 87 196 l 60 0 l 781 0 l 781 196 "},"¤":{"ha":846,"x_min":0,"x_max":0,"o":"m 492 556 b 521 486 511 536 521 513 b 492 417 521 459 511 436 b 424 389 473 398 450 389 b 354 417 397 389 374 398 b 326 486 336 436 326 459 b 354 556 326 513 336 536 b 424 583 374 574 397 583 b 492 556 450 583 473 574 m 546 740 b 489 761 528 750 509 756 b 424 768 469 766 447 768 b 359 761 401 768 380 766 b 300 740 338 756 319 750 l 225 817 l 93 686 l 169 610 b 149 550 160 590 153 570 b 142 486 144 530 142 508 b 169 363 142 441 151 400 l 93 286 l 225 156 l 300 232 b 359 211 319 223 338 216 b 424 204 380 206 401 204 b 489 211 447 204 469 206 b 546 232 509 216 528 223 l 624 156 l 754 286 l 676 363 b 699 422 687 382 694 402 b 707 486 704 443 707 464 b 676 610 707 531 697 572 l 754 686 l 624 817 "},"¥":{"ha":808,"x_min":0,"x_max":0,"o":"m 313 357 l 313 274 l 106 274 l 106 124 l 313 124 l 313 0 l 499 0 l 499 124 l 703 124 l 703 274 l 499 274 l 499 357 l 703 357 l 703 507 l 556 507 l 796 978 l 588 978 l 404 619 l 221 978 l 14 978 l 254 507 l 106 507 l 106 357 "},"¦":{"ha":463,"x_min":0,"x_max":0,"o":"m 324 -306 l 324 306 l 139 306 l 139 -306 m 324 486 l 324 1097 l 139 1097 l 139 486 "},"§":{"ha":633,"x_min":0,"x_max":0,"o":"m 317 988 b 144 922 248 988 191 966 b 75 760 98 878 75 824 b 128 615 75 704 93 656 b 137 605 131 612 134 608 b 147 596 140 602 144 599 l 137 585 l 126 575 b 74 431 91 534 74 486 b 144 269 74 367 97 313 b 317 201 191 224 248 201 b 397 174 349 201 376 192 b 431 103 419 154 431 131 b 397 33 431 76 419 53 b 317 4 376 14 349 4 b 236 33 284 4 257 14 b 204 103 215 52 204 75 l 75 103 b 144 -58 75 39 98 -15 b 317 -126 191 -104 248 -126 b 490 -58 386 -126 444 -104 b 560 103 537 -15 560 39 b 507 247 560 158 542 206 b 497 258 504 251 501 254 b 486 267 494 261 490 264 b 497 276 490 270 493 274 b 506 286 500 279 503 282 b 547 353 524 306 538 329 b 560 431 555 377 560 403 b 490 594 560 494 537 549 b 317 660 444 638 386 660 b 236 689 284 660 257 669 b 204 760 215 707 204 731 b 236 829 204 788 215 811 b 317 858 257 849 284 858 b 397 829 349 858 376 849 b 431 760 419 810 431 787 l 560 760 b 490 922 560 824 537 878 b 317 988 444 966 386 988 m 317 531 b 399 501 350 531 377 521 b 431 431 420 482 431 458 b 399 361 431 403 420 380 b 317 332 377 342 350 332 b 236 361 284 332 257 342 b 204 431 215 380 204 403 b 236 501 204 458 215 482 b 317 531 257 521 284 531 "},"¨":{"ha":682,"x_min":0,"x_max":0,"o":"m 160 1018 b 90 989 133 1018 110 1008 b 60 918 70 969 60 946 b 90 849 60 891 70 868 b 160 818 110 828 133 818 b 231 849 188 818 211 828 b 260 918 250 868 260 891 b 231 989 260 946 250 969 b 160 1018 211 1008 188 1018 m 522 1018 b 451 989 494 1018 471 1008 b 422 918 432 969 422 946 b 451 849 422 891 432 868 b 522 818 472 828 495 818 b 593 849 549 818 573 828 b 622 918 613 868 622 891 b 593 989 622 946 613 969 b 522 1018 574 1008 550 1018 "},"©":{"ha":1096,"x_min":0,"x_max":0,"o":"m 549 989 b 296 922 458 989 374 967 b 192 842 257 899 222 872 b 113 739 162 812 136 778 b 46 488 68 662 46 578 b 113 235 46 396 68 312 b 296 51 158 158 219 97 b 549 -15 374 7 458 -15 b 679 1 594 -15 638 -10 b 800 51 721 13 761 29 b 983 235 878 97 939 158 b 1033 356 1006 274 1022 314 b 1050 488 1044 397 1050 441 b 983 739 1050 578 1028 662 b 800 922 939 816 878 877 b 549 989 723 967 639 989 m 549 850 b 806 743 649 850 734 814 b 911 488 876 673 911 588 b 806 231 911 387 876 301 b 549 124 735 159 650 124 b 292 231 448 124 362 159 b 185 488 220 301 185 387 b 292 743 185 588 220 673 b 549 850 362 814 448 850 m 549 761 b 358 681 474 761 410 734 b 281 488 306 628 281 563 b 300 381 281 449 287 413 b 358 292 313 348 332 319 b 549 213 410 239 474 213 b 739 292 625 213 688 239 l 640 390 b 549 351 616 364 586 351 b 457 390 513 351 482 364 b 419 488 432 416 419 449 b 457 582 419 525 432 556 b 549 622 482 609 513 622 b 642 582 586 622 617 609 l 740 681 b 549 761 688 734 625 761 "},"ª":{"ha":504,"x_min":0,"x_max":0,"o":"m 354 932 b 235 982 324 965 284 982 b 86 918 175 982 126 961 b 28 764 47 877 28 826 b 86 608 28 703 47 651 b 235 546 126 567 175 546 b 354 592 285 546 325 561 l 354 556 l 461 556 l 461 972 l 354 972 m 246 863 b 314 835 274 863 296 853 b 340 764 331 815 340 792 b 314 693 340 736 331 713 b 246 664 296 674 274 664 b 176 693 219 664 196 674 b 150 764 159 713 150 736 b 176 835 150 792 159 815 b 246 863 195 853 218 863 "},"«":{"ha":1014,"x_min":0,"x_max":0,"o":"m 74 414 l 401 86 l 533 217 l 335 414 l 533 611 l 401 742 m 474 414 l 801 86 l 932 217 l 735 414 l 932 611 l 801 742 "},"¬":{"ha":879,"x_min":0,"x_max":0,"o":"m 504 358 l 504 218 l 690 218 l 690 543 l 181 543 l 181 358 "},"­":{"ha":564,"x_min":0,"x_max":0,"o":"m 510 321 l 510 507 l 56 507 l 56 321 "},"®":{"ha":853,"x_min":0,"x_max":0,"o":"m 426 989 b 153 875 320 989 229 951 b 39 601 77 800 39 709 b 153 328 39 495 77 404 b 426 215 228 253 319 215 b 700 328 534 215 625 253 b 814 601 776 404 814 495 b 700 875 814 709 776 800 b 426 989 624 951 533 989 m 426 868 b 615 790 500 868 563 842 b 693 601 667 738 693 675 b 615 414 693 528 667 466 b 426 335 563 361 500 335 b 238 414 353 335 290 361 b 160 601 186 466 160 528 b 238 790 160 675 186 738 b 426 868 290 842 353 868 m 286 403 l 390 403 l 390 536 l 419 536 l 472 403 l 583 403 l 524 558 b 567 606 542 570 556 586 b 583 672 578 626 583 648 b 544 767 583 709 570 741 b 449 807 518 794 486 807 l 286 807 m 438 708 b 468 697 449 708 459 705 b 481 672 476 692 481 683 b 468 646 481 661 476 652 b 438 636 459 639 449 636 l 390 636 l 390 708 "},"¯":{"ha":417,"x_min":0,"x_max":0,"o":"m 435 776 l 435 944 l -18 944 l -18 776 "},"°":{"ha":526,"x_min":0,"x_max":0,"o":"m 264 1003 b 114 942 205 1003 155 982 b 51 790 72 900 51 850 b 114 639 51 731 72 681 b 264 578 155 598 205 578 b 414 639 322 578 372 598 b 476 790 456 681 476 731 b 414 942 476 850 456 900 b 264 1003 372 982 322 1003 m 264 846 b 303 829 279 846 292 840 b 319 790 314 819 319 806 b 303 751 319 775 314 762 b 264 736 292 741 279 736 b 225 751 248 736 235 741 b 208 790 214 762 208 775 b 225 829 208 806 214 819 b 264 846 236 840 249 846 "},"±":{"ha":879,"x_min":0,"x_max":0,"o":"m 761 0 l 761 185 l 118 185 l 118 0 m 347 429 l 347 229 l 532 229 l 532 429 l 733 429 l 733 615 l 532 615 l 532 817 l 347 817 l 347 615 l 146 615 l 146 429 "},"²":{"ha":510,"x_min":0,"x_max":0,"o":"m 243 1122 b 121 1078 197 1122 156 1107 b 57 967 86 1048 64 1011 l 176 943 b 185 966 178 951 181 959 b 200 983 188 973 194 979 b 247 1000 214 994 230 1000 b 296 982 266 1000 282 994 b 311 960 302 975 307 968 b 317 932 315 953 317 943 b 290 876 317 913 308 895 l 54 650 l 54 528 l 439 528 l 439 650 l 232 650 l 382 796 b 439 932 420 834 439 879 b 382 1067 439 985 420 1030 b 243 1122 342 1104 296 1122 "},"³":{"ha":492,"x_min":0,"x_max":0,"o":"m 249 1121 b 132 1085 205 1121 166 1109 b 65 992 98 1061 75 1030 l 182 960 b 203 986 186 972 193 981 b 249 999 214 994 229 999 b 294 983 265 999 281 994 b 314 946 307 974 314 962 b 294 903 314 928 307 914 b 249 888 281 893 266 888 l 214 888 l 214 765 l 249 765 b 300 749 269 765 286 760 b 319 703 313 737 319 721 b 300 658 319 684 313 669 b 250 642 285 647 269 642 b 207 651 233 642 219 645 b 178 681 193 658 183 668 l 60 650 b 86 598 65 631 74 614 b 131 556 98 582 113 568 b 249 519 166 531 205 519 b 385 571 301 519 347 537 b 442 700 423 607 442 650 b 419 775 442 725 434 750 b 375 828 407 794 393 811 b 399 855 384 837 392 846 b 417 881 406 864 412 872 b 431 915 423 893 428 904 b 436 946 434 925 436 936 b 381 1069 436 995 418 1036 b 249 1121 344 1104 300 1121 "},"´":{"ha":374,"x_min":0,"x_max":0,"o":"m 197 779 l 369 974 l 147 974 l -1 779 "},"µ":{"ha":792,"x_min":0,"x_max":0,"o":"m 531 694 l 531 333 b 490 214 531 284 517 244 b 390 168 463 183 429 168 b 292 214 350 168 318 183 b 250 333 264 244 250 284 l 250 694 l 65 694 l 65 -278 l 229 -278 l 229 58 b 390 -17 266 8 320 -17 b 550 61 464 -17 518 9 l 550 0 l 715 0 l 715 694 "},"¶":{"ha":857,"x_min":0,"x_max":0,"o":"m 346 972 b 114 876 255 972 178 940 b 18 644 50 813 18 735 b 114 414 18 555 50 478 b 346 318 179 350 256 318 l 381 318 l 381 -117 l 535 -117 l 535 788 l 601 788 l 601 -117 l 756 -117 l 756 972 l 381 972 l 346 972 "},"·":{"ha":363,"x_min":0,"x_max":0,"o":"m 299 472 b 264 554 299 505 287 532 b 182 589 242 577 214 589 b 99 554 149 589 121 577 b 65 472 76 532 65 505 b 99 389 65 440 76 412 b 182 356 122 367 150 356 b 264 389 214 356 242 367 b 299 472 287 412 299 440 "},"¸":{"ha":331,"x_min":0,"x_max":0,"o":"m 163 1 b 204 -26 179 -2 193 -12 b 219 -74 214 -40 219 -56 b 196 -131 219 -96 212 -115 b 139 -154 180 -146 161 -154 b 88 -133 119 -154 102 -147 l 67 -162 b 7 -246 53 -181 33 -209 b 139 -292 45 -276 89 -292 b 293 -228 199 -292 250 -270 b 357 -74 336 -185 357 -134 b 281 92 357 -7 331 48 "},"¹":{"ha":389,"x_min":0,"x_max":0,"o":"m 15 978 l 93 883 l 175 951 l 175 528 l 297 528 l 297 1111 l 175 1111 "},"º":{"ha":485,"x_min":0,"x_max":0,"o":"m 243 982 b 90 918 182 982 131 961 b 28 764 49 875 28 824 b 90 610 28 704 49 652 b 243 546 131 567 182 546 b 396 610 303 546 354 567 b 458 764 438 652 458 704 b 396 918 458 824 438 875 b 243 982 354 961 303 982 m 243 860 b 310 832 270 860 292 850 b 336 764 327 813 336 791 b 310 696 336 737 327 714 b 243 668 292 677 270 668 b 176 696 216 668 194 677 b 150 764 159 714 150 737 b 176 832 150 791 159 813 b 243 860 194 850 216 860 "},"»":{"ha":1014,"x_min":0,"x_max":0,"o":"m 533 414 l 204 86 l 74 217 l 271 414 l 74 611 l 204 742 m 929 414 l 601 86 l 471 217 l 668 414 l 471 611 l 601 742 "},"¼":{"ha":1167,"x_min":0,"x_max":0,"o":"m 663 225 l 663 103 l 919 103 l 919 0 l 1042 0 l 1042 103 l 1122 103 l 1122 225 l 1042 225 l 1042 383 l 919 383 l 919 225 l 797 225 l 944 532 l 833 583 m 188 85 l 294 11 l 922 894 l 813 969 m 15 839 l 93 744 l 175 813 l 175 389 l 297 389 l 297 972 l 175 972 "},"½":{"ha":1208,"x_min":0,"x_max":0,"o":"m 942 594 b 819 550 895 594 855 580 b 756 439 784 519 763 482 l 875 415 b 899 457 878 433 886 447 b 946 472 913 467 928 472 b 993 454 964 472 980 466 b 1015 404 1008 441 1015 425 b 988 349 1015 386 1006 367 l 751 122 l 751 0 l 1138 0 l 1138 122 l 929 122 l 1081 268 b 1138 404 1119 306 1138 351 b 1079 539 1138 457 1118 502 b 942 594 1040 576 994 594 m 188 85 l 294 11 l 922 894 l 813 969 m 15 839 l 93 744 l 175 813 l 175 389 l 297 389 l 297 972 l 175 972 "},"¾":{"ha":1269,"x_min":0,"x_max":0,"o":"m 767 225 l 767 103 l 1022 103 l 1022 0 l 1144 0 l 1144 103 l 1226 103 l 1226 225 l 1144 225 l 1144 383 l 1022 383 l 1022 225 l 901 225 l 1049 532 l 938 583 m 290 85 l 399 11 l 1025 894 l 915 969 m 249 982 b 132 946 205 982 166 970 b 65 853 98 922 75 891 l 182 821 b 203 847 186 833 193 842 b 249 860 214 856 229 860 b 294 844 265 860 281 855 b 314 807 307 835 314 823 b 294 764 314 789 307 775 b 249 749 281 754 266 749 l 214 749 l 214 626 l 249 626 b 300 610 269 626 286 621 b 319 564 313 598 319 582 b 300 519 319 545 313 531 b 250 503 285 508 269 503 b 207 513 233 503 219 506 b 178 542 193 519 183 529 l 60 511 b 86 459 65 493 74 475 b 131 417 98 443 113 429 b 249 381 166 393 205 381 b 385 432 301 381 347 398 b 442 561 423 468 442 511 b 419 636 442 585 434 610 b 375 688 407 655 393 672 b 399 716 384 698 392 707 b 417 742 406 725 412 733 b 431 776 423 754 428 765 b 436 807 434 786 436 797 b 381 931 436 856 418 897 b 249 982 344 965 300 982 "},"¿":{"ha":640,"x_min":0,"x_max":0,"o":"m 225 594 b 258 513 225 562 236 535 b 342 478 281 489 309 478 b 424 513 374 478 401 489 b 458 594 447 536 458 563 b 424 678 458 627 447 655 b 342 711 401 700 374 711 b 258 678 309 711 281 700 b 225 594 236 656 225 628 m 324 -297 b 528 -222 401 -297 469 -272 b 635 -33 587 -172 623 -109 l 451 -7 b 407 -83 446 -37 431 -63 b 324 -112 383 -103 355 -112 b 232 -75 288 -112 257 -100 b 194 17 207 -50 194 -19 b 215 86 194 43 201 66 b 239 113 222 96 230 105 b 271 133 248 121 259 128 b 340 181 296 146 319 162 b 394 247 360 199 379 221 b 430 325 410 272 422 298 b 442 410 438 352 442 380 l 257 410 b 240 346 257 386 251 364 b 190 301 229 326 213 312 b 116 251 163 288 138 271 b 58 183 94 232 75 209 b 22 104 43 158 31 132 b 10 17 14 76 10 47 b 101 -206 10 -69 40 -144 b 324 -297 163 -267 238 -297 "},"À":{"ha":917,"x_min":0,"x_max":0,"o":"m 544 1043 l 394 1238 l 172 1238 l 346 1043 m 453 700 l 575 367 l 336 367 m 643 181 l 708 0 l 906 0 l 547 972 l 354 972 l 11 0 l 208 0 l 272 181 "},"Á":{"ha":917,"x_min":0,"x_max":0,"o":"m 451 701 l 574 368 l 333 368 m 642 183 l 707 1 l 904 1 l 546 974 l 353 974 l 10 1 l 206 1 l 269 183 m 549 1033 l 722 1228 l 499 1228 l 350 1033 "},"Â":{"ha":917,"x_min":0,"x_max":0,"o":"m 369 1043 l 451 1128 l 533 1043 l 724 1043 l 547 1236 l 356 1236 l 178 1043 m 453 700 l 575 367 l 336 367 m 643 181 l 708 0 l 906 0 l 547 972 l 354 972 l 11 0 l 208 0 l 272 181 "},"Ã":{"ha":917,"x_min":0,"x_max":0,"o":"m 546 1024 b 665 1074 592 1024 632 1040 b 722 1201 698 1107 717 1150 l 588 1201 b 546 1147 582 1165 568 1147 b 511 1163 532 1147 520 1152 b 498 1178 507 1167 503 1172 b 482 1197 493 1184 488 1191 b 358 1247 453 1231 412 1247 b 239 1196 314 1247 274 1230 b 199 1140 222 1180 209 1162 b 182 1069 190 1119 184 1095 l 317 1069 b 364 1124 325 1106 341 1124 b 400 1108 378 1124 390 1119 b 415 1092 405 1104 409 1098 b 429 1074 420 1086 425 1080 b 546 1024 456 1040 495 1024 m 453 700 l 575 367 l 336 367 m 643 181 l 708 0 l 906 0 l 547 972 l 354 972 l 11 0 l 208 0 l 272 181 "},"Ä":{"ha":917,"x_min":0,"x_max":0,"o":"m 264 1282 b 194 1253 237 1282 214 1272 b 164 1182 174 1233 164 1210 b 194 1113 164 1155 174 1132 b 264 1082 214 1092 237 1082 b 335 1113 292 1082 315 1092 b 364 1182 354 1132 364 1155 b 335 1253 364 1210 354 1233 b 264 1282 315 1272 292 1282 m 626 1282 b 556 1253 599 1282 575 1272 b 526 1182 536 1233 526 1210 b 556 1113 526 1155 536 1132 b 626 1082 575 1092 599 1082 b 697 1113 653 1082 677 1092 b 726 1182 717 1132 726 1155 b 697 1253 726 1210 717 1233 b 626 1282 678 1272 654 1282 m 453 700 l 575 367 l 336 367 m 643 181 l 708 0 l 906 0 l 547 972 l 354 972 l 11 0 l 208 0 l 272 181 "},"Å":{"ha":917,"x_min":0,"x_max":0,"o":"m 450 1325 b 338 1278 406 1325 368 1309 b 303 1226 322 1262 310 1245 b 292 1167 295 1208 292 1188 b 338 1053 292 1122 307 1084 b 450 1006 369 1021 406 1006 b 564 1053 494 1006 532 1021 b 610 1167 594 1084 610 1122 b 564 1278 610 1210 594 1247 b 450 1325 532 1309 494 1325 m 450 1214 b 485 1200 463 1214 475 1209 b 495 1184 489 1195 493 1190 b 499 1167 497 1178 499 1172 b 485 1132 499 1153 494 1141 b 450 1117 475 1122 463 1117 b 415 1132 437 1117 425 1122 b 403 1167 407 1141 403 1153 b 415 1200 403 1180 407 1191 b 450 1214 425 1209 437 1214 m 453 700 l 575 367 l 336 367 m 643 181 l 708 0 l 906 0 l 547 972 l 354 972 l 11 0 l 208 0 l 272 181 "},"Æ":{"ha":1417,"x_min":0,"x_max":0,"o":"m 21 0 l 246 0 l 376 186 l 693 186 l 693 0 l 1319 0 l 1319 185 l 878 185 l 878 400 l 1225 400 l 1225 583 l 878 583 l 878 788 l 1319 788 l 1319 972 l 693 972 m 693 368 l 500 368 l 693 646 "},"Ç":{"ha":922,"x_min":0,"x_max":0,"o":"m 489 1 b 531 -26 506 -2 519 -12 b 546 -74 541 -40 546 -56 b 522 -131 546 -96 538 -115 b 467 -154 506 -146 488 -154 b 414 -133 446 -154 429 -147 l 394 -162 b 333 -246 380 -181 360 -209 b 467 -292 372 -276 417 -292 b 621 -228 526 -292 577 -270 b 683 -74 663 -185 683 -134 b 607 92 683 -7 658 48 m 539 989 b 185 839 398 989 280 939 b 81 677 139 790 105 736 b 46 486 58 618 46 555 b 81 294 46 417 58 353 b 185 133 105 236 139 182 b 539 -17 280 33 398 -17 b 732 24 607 -17 672 -3 b 816 71 762 37 790 52 b 890 133 842 89 867 110 l 758 265 b 539 168 699 200 626 168 b 319 261 452 168 379 199 b 254 363 291 292 269 326 b 232 486 239 401 232 442 b 254 608 232 530 239 570 b 319 710 269 645 291 679 b 539 804 379 773 452 804 b 760 707 626 803 700 771 l 890 838 b 817 901 868 862 844 883 b 732 949 791 920 763 936 b 639 978 702 962 671 972 b 539 989 606 985 573 989 "},"È":{"ha":817,"x_min":0,"x_max":0,"o":"m 535 1043 l 385 1238 l 163 1238 l 336 1043 m 729 0 l 729 185 l 288 185 l 288 399 l 633 399 l 633 583 l 288 583 l 288 788 l 728 788 l 728 972 l 101 972 l 101 0 "},"É":{"ha":817,"x_min":0,"x_max":0,"o":"m 729 0 l 729 185 l 288 185 l 288 399 l 633 399 l 633 583 l 288 583 l 288 788 l 728 788 l 728 972 l 101 972 l 101 0 m 507 1040 l 681 1235 l 457 1235 l 308 1040 "},"Ê":{"ha":817,"x_min":0,"x_max":0,"o":"m 329 1043 l 411 1128 l 493 1043 l 685 1043 l 507 1236 l 315 1236 l 139 1043 m 729 0 l 729 185 l 288 185 l 288 399 l 633 399 l 633 583 l 288 583 l 288 788 l 728 788 l 728 972 l 101 972 l 101 0 "},"Ë":{"ha":817,"x_min":0,"x_max":0,"o":"m 233 1282 b 164 1253 206 1282 183 1272 b 133 1182 144 1233 133 1210 b 164 1113 133 1155 144 1132 b 233 1082 183 1092 206 1082 b 304 1113 261 1082 285 1092 b 333 1182 324 1132 333 1155 b 304 1253 333 1210 324 1233 b 233 1282 285 1272 261 1282 m 596 1282 b 525 1253 568 1282 544 1272 b 496 1182 506 1233 496 1210 b 525 1113 496 1155 506 1132 b 596 1082 544 1092 568 1082 b 667 1113 624 1082 647 1092 b 696 1182 686 1132 696 1155 b 667 1253 696 1210 686 1233 b 596 1282 647 1272 624 1282 m 729 0 l 729 185 l 288 185 l 288 399 l 633 399 l 633 583 l 288 583 l 288 788 l 728 788 l 728 972 l 101 972 l 101 0 "},"Ì":{"ha":389,"x_min":0,"x_max":0,"o":"m 294 1043 l 146 1238 l -78 1238 l 97 1043 m 288 0 l 288 972 l 101 972 l 101 0 "},"Í":{"ha":389,"x_min":0,"x_max":0,"o":"m 288 0 l 288 972 l 101 972 l 101 0 m 293 1038 l 467 1232 l 243 1232 l 94 1038 "},"Î":{"ha":389,"x_min":0,"x_max":0,"o":"m 118 1043 l 200 1128 l 282 1043 l 472 1043 l 296 1236 l 104 1236 l -72 1043 m 288 0 l 288 972 l 101 972 l 101 0 "},"Ï":{"ha":389,"x_min":0,"x_max":0,"o":"m 288 0 l 288 972 l 101 972 l 101 0 m 51 1310 b -19 1281 24 1310 0 1300 b -49 1210 -39 1261 -49 1238 b -19 1140 -49 1183 -39 1160 b 51 1110 0 1120 24 1110 b 121 1140 77 1110 100 1120 b 151 1210 141 1160 151 1183 b 121 1281 151 1238 141 1261 b 51 1310 101 1300 78 1310 m 338 1310 b 267 1281 310 1310 286 1300 b 238 1210 247 1261 238 1238 b 267 1140 238 1183 247 1160 b 338 1110 287 1120 311 1110 b 408 1140 364 1110 388 1120 b 438 1210 428 1160 438 1183 b 408 1281 438 1238 428 1261 b 338 1310 389 1300 365 1310 "},"Ð":{"ha":971,"x_min":0,"x_max":0,"o":"m 439 788 b 651 700 522 788 593 758 b 739 486 710 641 739 569 b 651 274 739 403 710 332 b 439 185 593 214 522 185 l 288 185 l 288 788 l 439 788 m 101 972 l 101 0 l 439 0 b 782 143 572 0 687 48 b 889 299 829 190 865 242 b 925 486 913 356 925 419 b 782 831 925 620 877 735 b 439 972 688 925 573 972 m 469 394 l 469 578 l 42 578 l 42 394 "},"Ñ":{"ha":1000,"x_min":0,"x_max":0,"o":"m 592 1004 b 710 1056 638 1004 677 1021 b 768 1182 742 1088 762 1130 l 632 1182 b 590 1129 627 1147 613 1129 b 557 1144 577 1129 566 1134 b 542 1160 552 1149 547 1154 b 526 1179 537 1166 532 1173 b 404 1229 498 1213 457 1229 b 285 1178 360 1229 320 1212 b 244 1122 267 1161 253 1142 b 226 1051 234 1101 228 1077 l 363 1051 b 410 1104 371 1087 387 1104 b 444 1089 423 1104 434 1099 b 459 1073 449 1084 454 1079 b 475 1054 464 1067 469 1061 b 592 1004 501 1021 540 1004 m 101 0 l 288 0 l 288 635 l 713 0 l 899 0 l 899 972 l 713 972 l 713 338 l 288 972 l 101 972 "},"Ò":{"ha":1075,"x_min":0,"x_max":0,"o":"m 658 1043 l 510 1238 l 286 1238 l 461 1043 m 538 804 b 756 710 624 804 696 773 b 822 608 785 679 807 645 b 844 486 837 570 844 530 b 756 261 844 398 815 323 b 538 168 696 199 624 168 b 319 261 451 168 379 199 b 232 486 261 323 232 398 b 253 608 232 530 239 570 b 319 710 268 645 290 679 b 538 804 379 773 451 804 m 538 989 b 186 840 399 989 281 939 b 46 486 93 743 46 625 b 186 131 46 347 93 229 b 538 -17 281 32 398 -17 b 883 125 675 -17 790 31 b 1029 486 981 223 1029 344 b 886 844 1029 627 981 746 b 538 989 792 941 675 989 "},"Ó":{"ha":1075,"x_min":0,"x_max":0,"o":"m 538 804 b 756 710 624 804 696 773 b 822 608 785 679 807 645 b 844 486 837 570 844 530 b 756 261 844 398 815 323 b 538 168 696 199 624 168 b 319 261 451 168 379 199 b 232 486 261 323 232 398 b 253 608 232 530 239 570 b 319 710 268 645 290 679 b 538 804 379 773 451 804 m 538 989 b 186 840 399 989 281 939 b 46 486 93 743 46 625 b 186 131 46 347 93 229 b 538 -17 281 32 398 -17 b 883 125 675 -17 790 31 b 1029 486 981 223 1029 344 b 886 844 1029 627 981 746 b 538 989 792 941 675 989 m 632 1038 l 806 1232 l 583 1232 l 435 1038 "},"Ô":{"ha":1075,"x_min":0,"x_max":0,"o":"m 454 1043 l 536 1128 l 617 1043 l 807 1043 l 632 1236 l 439 1236 l 263 1043 m 538 804 b 756 710 624 804 696 773 b 822 608 785 679 807 645 b 844 486 837 570 844 530 b 756 261 844 398 815 323 b 538 168 696 199 624 168 b 319 261 451 168 379 199 b 232 486 261 323 232 398 b 253 608 232 530 239 570 b 319 710 268 645 290 679 b 538 804 379 773 451 804 m 538 989 b 186 840 399 989 281 939 b 46 486 93 743 46 625 b 186 131 46 347 93 229 b 538 -17 281 32 398 -17 b 883 125 675 -17 790 31 b 1029 486 981 223 1029 344 b 886 844 1029 627 981 746 b 538 989 792 941 675 989 "},"Õ":{"ha":1075,"x_min":0,"x_max":0,"o":"m 654 1024 b 772 1074 700 1024 740 1040 b 831 1201 805 1106 824 1149 l 696 1201 b 654 1147 690 1165 676 1147 b 619 1163 640 1147 629 1152 b 606 1178 615 1167 610 1172 b 590 1197 601 1184 596 1191 b 467 1247 561 1231 519 1247 b 347 1196 422 1247 382 1230 b 290 1069 313 1163 294 1120 l 425 1069 b 472 1124 433 1106 449 1124 b 508 1108 486 1124 498 1119 b 522 1092 513 1104 518 1098 b 538 1074 527 1086 532 1080 b 654 1024 563 1040 602 1024 m 538 804 b 756 710 624 804 696 773 b 822 608 785 679 807 645 b 844 486 837 570 844 530 b 756 261 844 398 815 323 b 538 168 696 199 624 168 b 319 261 451 168 379 199 b 232 486 261 323 232 398 b 253 608 232 530 239 570 b 319 710 268 645 290 679 b 538 804 379 773 451 804 m 538 989 b 186 840 399 989 281 939 b 46 486 93 743 46 625 b 186 131 46 347 93 229 b 538 -17 281 32 398 -17 b 883 125 675 -17 790 31 b 1029 486 981 223 1029 344 b 886 844 1029 627 981 746 b 538 989 792 941 675 989 "},"Ö":{"ha":1075,"x_min":0,"x_max":0,"o":"m 368 1282 b 297 1253 340 1282 317 1272 b 268 1182 278 1233 268 1210 b 297 1113 268 1155 278 1132 b 368 1082 318 1092 341 1082 b 439 1113 395 1082 419 1092 b 468 1182 458 1132 468 1155 b 439 1253 468 1210 458 1233 b 368 1282 419 1272 395 1282 m 731 1282 b 660 1253 703 1282 679 1272 b 631 1182 640 1233 631 1210 b 660 1113 631 1155 640 1132 b 731 1082 679 1092 703 1082 b 801 1113 757 1082 781 1092 b 831 1182 821 1132 831 1155 b 801 1253 831 1210 821 1233 b 731 1282 782 1272 758 1282 m 538 804 b 756 710 624 804 696 773 b 822 608 785 679 807 645 b 844 486 837 570 844 530 b 756 261 844 398 815 323 b 538 168 696 199 624 168 b 319 261 451 168 379 199 b 232 486 261 323 232 398 b 253 608 232 530 239 570 b 319 710 268 645 290 679 b 538 804 379 773 451 804 m 538 989 b 186 840 399 989 281 939 b 46 486 93 743 46 625 b 186 131 46 347 93 229 b 538 -17 281 32 398 -17 b 883 125 675 -17 790 31 b 1029 486 981 223 1029 344 b 886 844 1029 627 981 746 b 538 989 792 941 675 989 "},"×":{"ha":879,"x_min":0,"x_max":0,"o":"m 440 282 l 611 111 l 743 243 l 571 413 l 743 583 l 611 715 l 440 544 l 269 715 l 139 583 l 310 413 l 139 243 l 269 111 "},"Ø":{"ha":1075,"x_min":0,"x_max":0,"o":"m 539 804 b 757 710 625 804 698 773 b 824 608 787 679 809 645 b 846 486 838 570 846 530 b 757 261 846 398 816 323 b 539 168 698 199 625 168 b 321 261 453 168 380 199 b 233 486 263 323 233 398 b 255 608 233 530 241 570 b 321 710 269 645 291 679 b 539 804 380 773 453 804 m 539 989 b 188 840 400 989 283 939 b 47 486 94 743 47 625 b 188 131 47 347 94 229 b 539 -17 282 32 399 -17 b 885 125 676 -17 791 31 b 1031 486 982 223 1031 344 b 888 844 1031 627 983 746 b 539 989 793 941 677 989 m 947 875 l 796 983 l 132 96 l 281 -12 "},"Ù":{"ha":976,"x_min":0,"x_max":0,"o":"m 599 1043 l 449 1238 l 226 1238 l 400 1043 m 88 425 b 204 107 88 295 126 189 b 488 -17 281 25 375 -17 b 772 107 600 -17 695 25 b 860 249 811 149 840 196 b 889 425 879 301 889 360 l 889 972 l 703 972 l 703 425 b 642 239 703 347 682 285 b 488 168 600 192 549 168 b 336 239 427 168 377 192 b 274 425 294 285 274 347 l 274 972 l 88 972 "},"Ú":{"ha":976,"x_min":0,"x_max":0,"o":"m 586 1015 l 758 1210 l 536 1210 l 388 1015 m 88 425 b 204 107 88 295 126 189 b 488 -17 281 25 375 -17 b 772 107 600 -17 695 25 b 860 249 811 149 840 196 b 889 425 879 301 889 360 l 889 972 l 703 972 l 703 425 b 642 239 703 347 682 285 b 488 168 600 192 549 168 b 336 239 427 168 377 192 b 274 425 294 285 274 347 l 274 972 l 88 972 "},"Û":{"ha":976,"x_min":0,"x_max":0,"o":"m 392 1043 l 474 1128 l 556 1043 l 746 1043 l 569 1236 l 378 1236 l 201 1043 m 88 425 b 204 107 88 295 126 189 b 488 -17 281 25 375 -17 b 772 107 600 -17 695 25 b 860 249 811 149 840 196 b 889 425 879 301 889 360 l 889 972 l 703 972 l 703 425 b 642 239 703 347 682 285 b 488 168 600 192 549 168 b 336 239 427 168 377 192 b 274 425 294 285 274 347 l 274 972 l 88 972 "},"Ü":{"ha":976,"x_min":0,"x_max":0,"o":"m 303 1282 b 232 1253 275 1282 251 1272 b 203 1182 213 1233 203 1210 b 232 1113 203 1155 213 1132 b 303 1082 252 1092 276 1082 b 374 1113 331 1082 354 1092 b 403 1182 393 1132 403 1155 b 374 1253 403 1210 393 1233 b 303 1282 354 1272 331 1282 m 665 1282 b 594 1253 638 1282 614 1272 b 565 1182 575 1233 565 1210 b 594 1113 565 1155 575 1132 b 665 1082 614 1092 638 1082 b 736 1113 693 1082 717 1092 b 765 1182 756 1132 765 1155 b 736 1253 765 1210 756 1233 b 665 1282 717 1272 693 1282 m 88 425 b 204 107 88 295 126 189 b 488 -17 281 25 375 -17 b 772 107 600 -17 695 25 b 860 249 811 149 840 196 b 889 425 879 301 889 360 l 889 972 l 703 972 l 703 425 b 642 239 703 347 682 285 b 488 168 600 192 549 168 b 336 239 427 168 377 192 b 274 425 294 285 274 347 l 274 972 l 88 972 "},"Ý":{"ha":831,"x_min":0,"x_max":0,"o":"m 496 1015 l 669 1210 l 446 1210 l 297 1015 m 324 433 l 324 0 l 508 0 l 508 433 l 821 972 l 604 972 l 417 647 l 228 972 l 10 972 "},"Þ":{"ha":826,"x_min":0,"x_max":0,"o":"m 111 1 l 296 1 l 296 169 l 478 169 b 708 265 568 169 644 201 b 804 497 772 329 804 406 b 708 728 804 587 772 664 b 478 824 644 792 568 824 l 296 824 l 296 974 l 111 974 m 478 639 b 576 597 516 639 549 625 b 619 497 605 569 619 535 b 576 396 619 458 605 425 b 478 354 549 368 516 354 l 296 354 l 296 639 "},"ß":{"ha":774,"x_min":0,"x_max":0,"o":"m 390 989 b 168 900 302 989 228 959 b 76 688 107 841 76 770 l 76 0 l 261 0 l 261 688 b 299 769 261 719 274 746 b 390 804 324 793 354 804 b 482 772 426 804 457 794 b 518 694 506 751 518 725 b 486 619 518 666 507 641 b 410 588 465 598 439 588 l 367 588 l 367 403 l 410 403 b 504 371 447 403 478 392 b 542 294 529 350 542 324 b 504 217 542 264 529 238 b 410 185 478 195 447 185 l 364 185 l 364 0 l 410 0 b 635 86 498 0 573 29 b 728 294 697 144 728 213 b 720 359 728 317 725 338 b 697 418 715 380 707 400 b 667 465 689 435 679 450 b 628 504 656 479 643 492 b 660 546 640 517 651 531 b 683 593 670 561 678 576 b 703 694 696 625 703 659 b 613 903 703 776 673 845 b 390 989 551 960 477 989 "},"à":{"ha":831,"x_min":0,"x_max":0,"o":"m 508 779 l 358 974 l 136 974 l 310 779 m 590 619 b 582 630 588 623 585 627 b 574 639 579 633 576 636 b 385 711 524 687 461 711 b 138 606 286 711 203 676 b 39 347 72 535 39 449 b 138 89 39 245 72 159 b 385 -17 203 19 286 -17 b 572 51 462 -17 524 6 b 581 60 576 54 579 57 b 590 69 584 64 587 67 l 590 0 l 754 0 l 754 694 l 590 694 m 400 528 b 522 476 449 528 490 511 b 557 418 537 459 549 439 b 569 347 565 397 569 373 b 557 277 569 322 565 299 b 522 219 549 255 537 236 b 400 167 490 184 449 167 b 276 219 350 167 309 184 b 228 347 244 255 228 297 b 276 476 228 398 244 441 b 400 528 309 511 350 528 "},"á":{"ha":831,"x_min":0,"x_max":0,"o":"m 488 779 l 661 974 l 438 974 l 289 779 m 590 619 b 582 630 588 623 585 627 b 574 639 579 633 576 636 b 385 711 524 687 461 711 b 138 606 286 711 203 676 b 39 347 72 535 39 449 b 138 89 39 245 72 159 b 385 -17 203 19 286 -17 b 572 51 462 -17 524 6 b 581 60 576 54 579 57 b 590 69 584 64 587 67 l 590 0 l 754 0 l 754 694 l 590 694 m 400 528 b 522 476 449 528 490 511 b 557 418 537 459 549 439 b 569 347 565 397 569 373 b 557 277 569 322 565 299 b 522 219 549 255 537 236 b 400 167 490 184 449 167 b 276 219 350 167 309 184 b 228 347 244 255 228 297 b 276 476 228 398 244 441 b 400 528 309 511 350 528 "},"â":{"ha":831,"x_min":0,"x_max":0,"o":"m 325 779 l 407 864 l 489 779 l 681 779 l 503 972 l 311 972 l 135 779 m 590 619 b 582 630 588 623 585 627 b 574 639 579 633 576 636 b 385 711 524 687 461 711 b 138 606 286 711 203 676 b 39 347 72 535 39 449 b 138 89 39 245 72 159 b 385 -17 203 19 286 -17 b 572 51 462 -17 524 6 b 581 60 576 54 579 57 b 590 69 584 64 587 67 l 590 0 l 754 0 l 754 694 l 590 694 m 400 528 b 522 476 449 528 490 511 b 557 418 537 459 549 439 b 569 347 565 397 569 373 b 557 277 569 322 565 299 b 522 219 549 255 537 236 b 400 167 490 184 449 167 b 276 219 350 167 309 184 b 228 347 244 255 228 297 b 276 476 228 398 244 441 b 400 528 309 511 350 528 "},"ã":{"ha":831,"x_min":0,"x_max":0,"o":"m 511 760 b 629 810 556 760 596 776 b 688 938 662 843 681 886 l 551 938 b 510 883 547 901 533 883 b 476 899 496 883 485 888 b 462 915 472 903 467 909 b 446 933 457 921 451 927 b 324 983 417 967 376 983 b 204 932 279 983 239 966 b 163 876 187 916 173 898 b 146 806 153 855 148 831 l 282 806 b 329 860 290 842 306 860 b 364 844 343 860 355 855 b 378 828 369 840 373 834 b 393 810 384 822 388 816 b 511 760 420 776 459 760 m 590 619 b 582 630 588 623 585 627 b 574 639 579 633 576 636 b 385 711 524 687 461 711 b 138 606 286 711 203 676 b 39 347 72 535 39 449 b 138 89 39 245 72 159 b 385 -17 203 19 286 -17 b 572 51 462 -17 524 6 b 581 60 576 54 579 57 b 590 69 584 64 587 67 l 590 0 l 754 0 l 754 694 l 590 694 m 400 528 b 522 476 449 528 490 511 b 557 418 537 459 549 439 b 569 347 565 397 569 373 b 557 277 569 322 565 299 b 522 219 549 255 537 236 b 400 167 490 184 449 167 b 276 219 350 167 309 184 b 228 347 244 255 228 297 b 276 476 228 398 244 441 b 400 528 309 511 350 528 "},"ä":{"ha":831,"x_min":0,"x_max":0,"o":"m 225 1018 b 154 989 197 1018 174 1008 b 125 918 135 969 125 946 b 154 849 125 891 135 868 b 225 818 174 828 197 818 b 296 849 252 818 275 828 b 325 918 315 868 325 891 b 296 989 325 946 315 969 b 225 1018 276 1008 253 1018 m 588 1018 b 517 989 560 1018 536 1008 b 488 918 497 969 488 946 b 517 849 488 891 497 868 b 588 818 536 828 560 818 b 658 849 614 818 638 828 b 688 918 678 868 688 891 b 658 989 688 946 678 969 b 588 1018 639 1008 615 1018 m 590 619 b 582 630 588 623 585 627 b 574 639 579 633 576 636 b 385 711 524 687 461 711 b 138 606 286 711 203 676 b 39 347 72 535 39 449 b 138 89 39 245 72 159 b 385 -17 203 19 286 -17 b 572 51 462 -17 524 6 b 581 60 576 54 579 57 b 590 69 584 64 587 67 l 590 0 l 754 0 l 754 694 l 590 694 m 400 528 b 522 476 449 528 490 511 b 557 418 537 459 549 439 b 569 347 565 397 569 373 b 557 277 569 322 565 299 b 522 219 549 255 537 236 b 400 167 490 184 449 167 b 276 219 350 167 309 184 b 228 347 244 255 228 297 b 276 476 228 398 244 441 b 400 528 309 511 350 528 "},"å":{"ha":831,"x_min":0,"x_max":0,"o":"m 400 1061 b 288 1014 356 1061 318 1045 b 253 963 272 998 260 981 b 242 903 245 944 242 924 b 288 789 242 858 257 820 b 400 742 318 757 356 742 b 514 789 444 742 482 757 b 560 903 544 820 560 858 b 514 1014 560 946 544 983 b 400 1061 482 1045 444 1061 m 400 950 b 435 936 413 950 425 945 b 445 920 439 931 443 926 b 449 903 447 914 449 908 b 435 868 449 889 444 877 b 400 853 425 858 413 853 b 365 868 387 853 375 858 b 353 903 357 877 353 889 b 365 936 353 916 357 927 b 400 950 375 945 387 950 m 590 619 b 582 630 588 623 585 627 b 574 639 579 633 576 636 b 385 711 524 687 461 711 b 138 606 286 711 203 676 b 39 347 72 535 39 449 b 138 89 39 245 72 159 b 385 -17 203 19 286 -17 b 572 51 462 -17 524 6 b 581 60 576 54 579 57 b 590 69 584 64 587 67 l 590 0 l 754 0 l 754 694 l 590 694 m 400 528 b 522 476 449 528 490 511 b 557 418 537 459 549 439 b 569 347 565 397 569 373 b 557 277 569 322 565 299 b 522 219 549 255 537 236 b 400 167 490 184 449 167 b 276 219 350 167 309 184 b 228 347 244 255 228 297 b 276 476 228 398 244 441 b 400 528 309 511 350 528 "},"æ":{"ha":1518,"x_min":0,"x_max":0,"o":"m 590 619 b 582 630 588 623 585 627 b 574 639 579 633 576 636 b 385 711 524 687 461 711 b 138 606 286 711 203 676 b 39 347 72 535 39 449 b 138 89 39 245 72 159 b 385 -17 203 19 286 -17 b 572 51 462 -17 524 6 b 581 60 576 54 579 57 b 590 69 584 64 587 67 l 590 0 l 754 0 l 754 694 l 590 694 m 400 528 b 522 476 449 528 490 511 b 557 418 537 459 549 439 b 569 347 565 397 569 373 b 557 277 569 322 565 299 b 522 219 549 255 537 236 b 400 167 490 184 449 167 b 276 219 350 167 309 184 b 228 347 244 255 228 297 b 276 476 228 398 244 441 b 400 528 309 511 350 528 m 1469 342 b 1375 600 1469 446 1438 532 b 1133 706 1309 670 1229 706 b 881 600 1032 706 948 670 b 776 342 811 529 776 443 b 885 85 776 242 813 156 b 1142 -22 956 13 1042 -22 b 1417 83 1256 -22 1347 13 l 1288 215 b 1142 163 1252 180 1204 163 b 1039 197 1103 163 1069 174 b 1008 231 1027 206 1016 218 b 988 272 999 244 992 257 l 1469 272 m 1129 529 b 1219 499 1165 529 1195 519 b 1265 421 1241 479 1256 453 l 983 421 b 1002 462 988 436 994 449 b 1031 496 1010 474 1019 486 b 1129 529 1058 518 1091 529 "},"ç":{"ha":671,"x_min":0,"x_max":0,"o":"m 367 1 b 407 -26 383 -3 397 -12 b 424 -75 418 -41 424 -57 b 400 -132 424 -97 416 -116 b 343 -156 384 -148 365 -156 b 292 -135 325 -156 307 -149 l 272 -163 b 211 -247 258 -182 238 -210 b 343 -293 250 -278 294 -293 b 497 -228 403 -293 455 -271 b 561 -75 540 -186 561 -135 b 485 92 561 -8 536 47 m 396 711 b 142 606 295 711 210 676 b 39 347 73 534 39 448 b 142 90 39 246 73 161 b 396 -17 210 19 295 -17 b 647 89 495 -17 579 19 l 517 221 b 396 168 484 186 444 168 b 274 221 347 168 306 186 b 225 347 241 255 225 297 b 274 474 225 397 241 439 b 396 526 306 509 347 526 b 517 474 444 526 484 509 l 647 606 b 396 711 579 676 495 711 "},"è":{"ha":757,"x_min":0,"x_max":0,"o":"m 514 779 l 365 974 l 142 974 l 317 779 m 732 347 b 638 606 732 452 700 538 b 396 711 572 676 491 711 b 143 606 295 711 211 676 b 39 347 74 534 39 448 b 147 90 39 247 75 162 b 404 -17 219 19 304 -17 b 679 89 518 -17 610 19 l 550 221 b 404 168 515 186 466 168 b 301 203 365 168 331 180 b 270 236 289 212 279 223 b 250 278 261 249 255 263 l 732 278 m 392 535 b 482 504 428 535 458 525 b 528 426 503 485 519 459 l 246 426 b 293 501 255 456 271 481 b 392 535 321 524 354 535 "},"é":{"ha":757,"x_min":0,"x_max":0,"o":"m 490 779 l 663 974 l 440 974 l 292 779 m 732 347 b 638 606 732 452 700 538 b 396 711 572 676 491 711 b 143 606 295 711 211 676 b 39 347 74 534 39 448 b 147 90 39 247 75 162 b 404 -17 219 19 304 -17 b 679 89 518 -17 610 19 l 550 221 b 404 168 515 186 466 168 b 301 203 365 168 331 180 b 270 236 289 212 279 223 b 250 278 261 249 255 263 l 732 278 m 392 535 b 482 504 428 535 458 525 b 528 426 503 485 519 459 l 246 426 b 293 501 255 456 271 481 b 392 535 321 524 354 535 "},"ê":{"ha":757,"x_min":0,"x_max":0,"o":"m 308 779 l 390 864 l 472 779 l 663 779 l 486 972 l 294 972 l 118 779 m 732 347 b 638 606 732 452 700 538 b 396 711 572 676 491 711 b 143 606 295 711 211 676 b 39 347 74 534 39 448 b 147 90 39 247 75 162 b 404 -17 219 19 304 -17 b 679 89 518 -17 610 19 l 550 221 b 404 168 515 186 466 168 b 301 203 365 168 331 180 b 270 236 289 212 279 223 b 250 278 261 249 255 263 l 732 278 m 392 535 b 482 504 428 535 458 525 b 528 426 503 485 519 459 l 246 426 b 293 501 255 456 271 481 b 392 535 321 524 354 535 "},"ë":{"ha":757,"x_min":0,"x_max":0,"o":"m 211 1018 b 142 989 184 1018 161 1008 b 111 918 121 969 111 946 b 142 849 111 891 121 868 b 211 818 161 828 184 818 b 282 849 239 818 263 828 b 311 918 301 868 311 891 b 282 989 311 946 301 969 b 211 1018 263 1008 239 1018 m 574 1018 b 503 989 546 1018 522 1008 b 474 918 483 969 474 946 b 503 849 474 891 483 868 b 574 818 522 828 546 818 b 644 849 601 818 625 828 b 674 918 664 868 674 891 b 644 989 674 946 664 969 b 574 1018 625 1008 601 1018 m 732 347 b 638 606 732 452 700 538 b 396 711 572 676 491 711 b 143 606 295 711 211 676 b 39 347 74 534 39 448 b 147 90 39 247 75 162 b 404 -17 219 19 304 -17 b 679 89 518 -17 610 19 l 550 221 b 404 168 515 186 466 168 b 301 203 365 168 331 180 b 270 236 289 212 279 223 b 250 278 261 249 255 263 l 732 278 m 392 535 b 482 504 428 535 458 525 b 528 426 503 485 519 459 l 246 426 b 293 501 255 456 271 481 b 392 535 321 524 354 535 "},"ì":{"ha":369,"x_min":0,"x_max":0,"o":"m 285 779 l 136 974 l -87 974 l 88 779 m 278 0 l 278 694 l 92 694 l 92 0 "},"í":{"ha":369,"x_min":0,"x_max":0,"o":"m 282 779 l 454 974 l 232 974 l 83 779 m 278 0 l 278 694 l 92 694 l 92 0 "},"î":{"ha":369,"x_min":0,"x_max":0,"o":"m 107 779 l 189 864 l 271 779 l 461 779 l 285 972 l 93 972 l -85 779 m 278 0 l 278 694 l 92 694 l 92 0 "},"ï":{"ha":369,"x_min":0,"x_max":0,"o":"m 278 0 l 278 694 l 92 694 l 92 0 m 42 1018 b -29 989 14 1018 -10 1008 b -58 918 -49 969 -58 946 b -29 849 -58 891 -49 868 b 42 818 -9 828 15 818 b 113 849 69 818 92 828 b 142 918 132 868 142 891 b 113 989 142 946 132 969 b 42 1018 93 1008 69 1018 m 329 1018 b 258 989 301 1018 278 1008 b 229 918 239 969 229 946 b 258 849 229 891 239 868 b 329 818 278 828 301 818 b 399 849 356 818 379 828 b 429 918 419 868 429 891 b 399 989 429 946 419 969 b 329 1018 379 1008 356 1018 "},"ð":{"ha":790,"x_min":0,"x_max":0,"o":"m 389 693 b 143 590 292 693 210 659 b 43 338 76 521 43 437 b 143 88 43 239 76 156 b 389 -17 210 18 292 -17 b 636 88 487 -17 569 18 b 736 338 703 156 736 239 b 636 590 736 437 703 521 b 389 693 569 659 487 693 m 389 507 b 504 458 435 507 474 491 b 551 338 536 425 551 385 b 504 218 551 291 536 251 b 389 168 474 185 435 168 b 274 218 343 168 304 185 b 228 338 243 251 228 291 b 274 458 228 385 243 425 b 389 507 304 491 343 507 m 165 819 b 304 790 208 820 254 811 b 419 715 344 774 382 749 b 508 586 456 684 485 641 b 540 474 522 553 533 515 b 551 338 548 432 551 387 l 736 338 b 708 576 736 425 727 505 b 676 673 699 612 688 644 b 638 749 664 702 651 727 b 592 810 624 770 609 790 b 540 864 576 829 559 847 b 485 907 521 881 502 895 b 435 936 467 919 450 929 b 338 972 403 952 371 964 b 282 985 317 978 299 982 b 239 989 265 988 251 989 l 165 819 m 300 693 l 601 876 l 540 979 l 238 794 "},"ñ":{"ha":792,"x_min":0,"x_max":0,"o":"m 497 760 b 615 810 543 760 582 776 b 674 938 648 843 667 886 l 538 938 b 496 883 533 901 519 883 b 463 899 482 883 471 888 b 448 915 458 903 453 909 b 432 933 443 921 438 927 b 310 983 403 967 363 983 b 190 932 265 983 225 966 b 132 806 155 899 136 856 l 268 806 b 315 860 276 842 292 860 b 350 844 329 860 341 855 b 365 828 355 840 359 834 b 379 810 370 822 375 816 b 497 760 406 776 445 760 m 726 361 b 707 502 726 413 720 460 b 649 614 694 544 675 581 b 436 711 595 679 524 711 b 272 651 369 711 314 691 l 261 640 l 250 629 l 250 694 l 76 694 l 76 0 l 261 0 l 261 368 b 301 482 261 415 275 453 b 403 526 328 512 362 526 b 501 482 443 526 475 512 b 542 368 528 454 542 416 l 542 0 l 726 0 "},"ò":{"ha":790,"x_min":0,"x_max":0,"o":"m 508 779 l 360 974 l 136 974 l 311 779 m 396 526 b 517 474 444 526 484 509 b 565 347 549 439 565 397 b 553 278 565 322 561 299 b 517 221 546 256 533 238 b 396 168 484 186 444 168 b 274 221 347 168 306 186 b 225 347 241 255 225 297 b 237 417 225 372 229 395 b 274 474 245 438 257 457 b 396 526 306 509 347 526 m 396 711 b 143 604 295 711 211 675 b 39 347 74 534 39 448 b 143 90 39 246 74 161 b 396 -17 211 19 295 -17 b 647 90 496 -17 580 19 b 751 347 717 161 751 246 b 647 604 751 448 717 534 b 396 711 580 675 496 711 "},"ó":{"ha":790,"x_min":0,"x_max":0,"o":"m 490 779 l 664 974 l 440 974 l 292 779 m 396 526 b 517 474 444 526 484 509 b 565 347 549 439 565 397 b 553 278 565 322 561 299 b 517 221 546 256 533 238 b 396 168 484 186 444 168 b 274 221 347 168 306 186 b 225 347 241 255 225 297 b 237 417 225 372 229 395 b 274 474 245 438 257 457 b 396 526 306 509 347 526 m 396 711 b 143 604 295 711 211 675 b 39 347 74 534 39 448 b 143 90 39 246 74 161 b 396 -17 211 19 295 -17 b 647 90 496 -17 580 19 b 751 347 717 161 751 246 b 647 604 751 448 717 534 b 396 711 580 675 496 711 "},"ô":{"ha":790,"x_min":0,"x_max":0,"o":"m 318 779 l 400 864 l 482 779 l 672 779 l 496 972 l 304 972 l 128 779 m 396 526 b 517 474 444 526 484 509 b 565 347 549 439 565 397 b 553 278 565 322 561 299 b 517 221 546 256 533 238 b 396 168 484 186 444 168 b 274 221 347 168 306 186 b 225 347 241 255 225 297 b 237 417 225 372 229 395 b 274 474 245 438 257 457 b 396 526 306 509 347 526 m 396 711 b 143 604 295 711 211 675 b 39 347 74 534 39 448 b 143 90 39 246 74 161 b 396 -17 211 19 295 -17 b 647 90 496 -17 580 19 b 751 347 717 161 751 246 b 647 604 751 448 717 534 b 396 711 580 675 496 711 "},"õ":{"ha":790,"x_min":0,"x_max":0,"o":"m 500 760 b 617 810 545 760 584 776 b 676 938 649 843 669 886 l 540 938 b 499 883 536 901 522 883 b 465 899 485 883 474 888 b 451 915 461 903 456 909 b 435 933 446 921 440 927 b 313 983 405 967 364 983 b 193 932 268 983 228 966 b 152 876 175 916 162 898 b 135 806 142 855 137 831 l 271 806 b 318 860 279 842 295 860 b 353 844 331 860 343 855 b 367 828 357 840 362 834 b 382 810 371 822 376 816 b 500 760 409 776 448 760 m 396 526 b 517 474 444 526 484 509 b 565 347 549 439 565 397 b 553 278 565 322 561 299 b 517 221 546 256 533 238 b 396 168 484 186 444 168 b 274 221 347 168 306 186 b 225 347 241 255 225 297 b 237 417 225 372 229 395 b 274 474 245 438 257 457 b 396 526 306 509 347 526 m 396 711 b 143 604 295 711 211 675 b 39 347 74 534 39 448 b 143 90 39 246 74 161 b 396 -17 211 19 295 -17 b 647 90 496 -17 580 19 b 751 347 717 161 751 246 b 647 604 751 448 717 534 b 396 711 580 675 496 711 "},"ö":{"ha":790,"x_min":0,"x_max":0,"o":"m 219 1018 b 149 989 192 1018 168 1008 b 119 918 129 969 119 946 b 149 849 119 891 129 868 b 219 818 168 828 192 818 b 290 849 246 818 270 828 b 319 918 310 868 319 891 b 290 989 319 946 310 969 b 219 1018 270 1008 246 1018 m 582 1018 b 511 989 554 1018 531 1008 b 482 918 492 969 482 946 b 511 849 482 891 492 868 b 582 818 531 828 554 818 b 651 849 608 818 631 828 b 682 918 672 868 682 891 b 651 989 682 946 672 969 b 582 1018 632 1008 609 1018 m 396 526 b 517 474 444 526 484 509 b 565 347 549 439 565 397 b 553 278 565 322 561 299 b 517 221 546 256 533 238 b 396 168 484 186 444 168 b 274 221 347 168 306 186 b 225 347 241 255 225 297 b 237 417 225 372 229 395 b 274 474 245 438 257 457 b 396 526 306 509 347 526 m 396 711 b 143 604 295 711 211 675 b 39 347 74 534 39 448 b 143 90 39 246 74 161 b 396 -17 211 19 295 -17 b 647 90 496 -17 580 19 b 751 347 717 161 751 246 b 647 604 751 448 717 534 b 396 711 580 675 496 711 "},"÷":{"ha":879,"x_min":0,"x_max":0,"o":"m 440 729 b 379 706 416 729 396 721 b 354 644 363 689 354 669 b 379 583 354 620 363 600 b 440 558 396 567 416 558 b 500 583 463 558 483 567 b 526 644 518 600 526 620 b 500 706 526 669 518 689 b 440 729 483 721 463 729 m 153 321 l 726 321 l 726 507 l 153 507 m 440 268 b 379 243 416 268 396 260 b 354 183 363 226 354 206 b 379 122 354 159 363 139 b 440 97 396 106 416 97 b 501 122 463 97 484 106 b 526 183 518 139 526 159 b 500 243 526 206 518 226 b 440 268 483 260 463 268 "},"ø":{"ha":790,"x_min":0,"x_max":0,"o":"m 396 526 b 517 474 444 526 484 509 b 565 347 549 439 565 397 b 553 278 565 322 561 299 b 517 221 546 256 533 238 b 396 168 484 186 444 168 b 274 221 347 168 306 186 b 225 347 241 255 225 297 b 237 417 225 372 229 395 b 274 474 245 438 257 457 b 396 526 306 509 347 526 m 396 711 b 143 604 295 711 211 675 b 39 347 74 534 39 448 b 143 90 39 246 74 161 b 396 -17 211 19 295 -17 b 647 90 496 -17 580 19 b 751 347 717 161 751 246 b 647 604 751 448 717 534 b 396 711 580 675 496 711 m 76 74 l 185 -17 l 719 621 l 611 711 "},"ù":{"ha":779,"x_min":0,"x_max":0,"o":"m 500 779 l 351 974 l 128 974 l 303 779 m 65 333 b 160 83 65 232 97 149 b 390 -17 223 17 300 -17 b 621 83 481 -17 558 17 b 715 333 684 149 715 232 l 715 694 l 531 694 l 531 326 b 490 213 531 279 517 241 b 390 168 463 183 430 168 b 290 213 350 168 317 183 b 250 326 263 241 250 279 l 250 694 l 65 694 "},"ú":{"ha":779,"x_min":0,"x_max":0,"o":"m 494 779 l 668 974 l 446 974 l 297 779 m 65 333 b 160 83 65 232 97 149 b 390 -17 223 17 300 -17 b 621 83 481 -17 558 17 b 715 333 684 149 715 232 l 715 694 l 531 694 l 531 326 b 490 213 531 279 517 241 b 390 168 463 183 430 168 b 290 213 350 168 317 183 b 250 326 263 241 250 279 l 250 694 l 65 694 "},"û":{"ha":779,"x_min":0,"x_max":0,"o":"m 306 779 l 388 864 l 469 779 l 660 779 l 483 972 l 292 972 l 114 779 m 65 333 b 160 83 65 232 97 149 b 390 -17 223 17 300 -17 b 621 83 481 -17 558 17 b 715 333 684 149 715 232 l 715 694 l 531 694 l 531 326 b 490 213 531 279 517 241 b 390 168 463 183 430 168 b 290 213 350 168 317 183 b 250 326 263 241 250 279 l 250 694 l 65 694 "},"ü":{"ha":779,"x_min":0,"x_max":0,"o":"m 215 1018 b 144 989 188 1018 164 1008 b 115 918 125 969 115 946 b 144 849 115 891 125 868 b 215 818 164 828 188 818 b 286 849 242 818 266 828 b 315 918 306 868 315 891 b 286 989 315 946 306 969 b 215 1018 267 1008 243 1018 m 576 1018 b 507 989 550 1018 526 1008 b 476 918 487 969 476 946 b 507 849 476 891 487 868 b 576 818 526 828 550 818 b 647 849 604 818 628 828 b 676 918 667 868 676 891 b 647 989 676 946 667 969 b 576 1018 628 1008 604 1018 m 65 333 b 160 83 65 232 97 149 b 390 -17 223 17 300 -17 b 621 83 481 -17 558 17 b 715 333 684 149 715 232 l 715 694 l 531 694 l 531 326 b 490 213 531 279 517 241 b 390 168 463 183 430 168 b 290 213 350 168 317 183 b 250 326 263 241 250 279 l 250 694 l 65 694 "},"ý":{"ha":804,"x_min":0,"x_max":0,"o":"m 490 779 l 664 974 l 442 974 l 293 779 m 308 6 l 290 -36 b 244 -90 280 -59 265 -77 b 171 -110 223 -103 199 -110 l 93 -110 l 93 -294 l 171 -294 b 344 -243 234 -294 292 -277 b 413 -185 370 -226 393 -207 b 461 -110 432 -162 448 -137 l 799 694 l 597 694 l 407 240 l 208 694 l 7 694 "},"þ":{"ha":847,"x_min":0,"x_max":0,"o":"m 261 56 b 269 46 264 52 267 49 l 278 38 b 446 -17 323 1 379 -17 b 693 89 545 -17 627 19 b 792 347 759 159 792 245 b 693 606 792 449 759 535 b 446 711 627 676 545 711 b 282 656 381 711 326 693 b 272 647 278 653 275 650 l 261 636 l 261 972 l 76 972 l 76 -278 l 261 -278 m 431 528 b 554 476 480 528 521 511 b 603 347 587 440 603 397 b 554 219 603 297 587 255 b 431 167 521 184 480 167 b 310 219 381 167 341 184 b 273 277 293 236 281 255 b 261 347 265 299 261 322 b 273 418 261 373 265 397 b 310 476 281 439 293 459 b 431 528 341 511 381 528 "},"ÿ":{"ha":804,"x_min":0,"x_max":0,"o":"m 215 1018 b 146 989 188 1018 165 1008 b 115 918 125 969 115 946 b 146 849 115 891 125 868 b 215 818 165 828 188 818 b 286 849 243 818 267 828 b 315 918 306 868 315 891 b 286 989 315 946 306 969 b 215 1018 267 1008 243 1018 m 578 1018 b 507 989 550 1018 526 1008 b 478 918 488 969 478 946 b 507 849 478 891 488 868 b 578 818 526 828 550 818 b 649 849 605 818 628 828 b 678 918 668 868 678 891 b 649 989 678 946 668 969 b 578 1018 629 1008 606 1018 m 308 6 l 290 -36 b 244 -90 280 -59 265 -77 b 171 -110 223 -103 199 -110 l 93 -110 l 93 -294 l 171 -294 b 344 -243 234 -294 292 -277 b 413 -185 370 -226 393 -207 b 461 -110 432 -162 448 -137 l 799 694 l 597 694 l 407 240 l 208 694 l 7 694 "},"Ā":{"ha":917,"x_min":0,"x_max":0,"o":"m 679 1040 l 679 1208 l 225 1208 l 225 1040 m 453 700 l 575 367 l 336 367 m 643 181 l 708 0 l 906 0 l 547 972 l 354 972 l 11 0 l 208 0 l 272 181 "},"ā":{"ha":831,"x_min":0,"x_max":0,"o":"m 628 776 l 628 944 l 174 944 l 174 776 m 590 619 b 582 630 588 623 585 627 b 574 639 579 633 576 636 b 385 711 524 687 461 711 b 138 606 286 711 203 676 b 39 347 72 535 39 449 b 138 89 39 245 72 159 b 385 -17 203 19 286 -17 b 572 51 462 -17 524 6 b 581 60 576 54 579 57 b 590 69 584 64 587 67 l 590 0 l 754 0 l 754 694 l 590 694 m 400 528 b 522 476 449 528 490 511 b 557 418 537 459 549 439 b 569 347 565 397 569 373 b 557 277 569 322 565 299 b 522 219 549 255 537 236 b 400 167 490 184 449 167 b 276 219 350 167 309 184 b 228 347 244 255 228 297 b 276 476 228 398 244 441 b 400 528 309 511 350 528 "},"Ă":{"ha":917,"x_min":0,"x_max":0,"o":"m 219 1236 b 286 1089 219 1179 242 1130 b 451 1029 330 1049 385 1029 b 619 1089 519 1029 575 1049 b 685 1236 663 1130 685 1179 l 539 1236 b 514 1188 539 1217 531 1200 b 451 1167 496 1174 475 1167 b 390 1188 427 1167 407 1174 b 364 1236 373 1200 364 1217 l 219 1236 m 453 700 l 575 367 l 336 367 m 643 181 l 708 0 l 906 0 l 547 972 l 354 972 l 11 0 l 208 0 l 272 181 "},"ă":{"ha":831,"x_min":0,"x_max":0,"o":"m 164 972 b 231 825 164 915 186 866 b 397 765 274 785 330 765 b 564 825 464 765 519 785 b 629 972 607 866 629 915 l 485 972 b 458 924 485 953 476 937 b 397 903 442 910 421 903 b 335 924 373 903 352 910 b 310 972 318 937 310 953 l 164 972 m 590 619 b 582 630 588 623 585 627 b 574 639 579 633 576 636 b 385 711 524 687 461 711 b 138 606 286 711 203 676 b 39 347 72 535 39 449 b 138 89 39 245 72 159 b 385 -17 203 19 286 -17 b 572 51 462 -17 524 6 b 581 60 576 54 579 57 b 590 69 584 64 587 67 l 590 0 l 754 0 l 754 694 l 590 694 m 400 528 b 522 476 449 528 490 511 b 557 418 537 459 549 439 b 569 347 565 397 569 373 b 557 277 569 322 565 299 b 522 219 549 255 537 236 b 400 167 490 184 449 167 b 276 219 350 167 309 184 b 228 347 244 255 228 297 b 276 476 228 398 244 441 b 400 528 309 511 350 528 "},"Ą":{"ha":917,"x_min":0,"x_max":0,"o":"m 803 -149 b 801 -151 802 -150 801 -150 b 799 -154 800 -152 800 -153 b 774 -164 791 -161 783 -164 b 750 -154 764 -164 756 -161 b 739 -129 743 -147 739 -138 b 742 -116 739 -125 740 -120 b 750 -104 744 -112 746 -108 l 875 22 l 708 22 b 681 8 698 19 689 14 b 660 -8 672 3 665 -3 b 608 -129 625 -43 608 -83 b 657 -246 608 -175 625 -213 b 774 -294 689 -278 728 -294 b 890 -246 819 -294 858 -278 l 901 -235 b 910 -224 904 -232 907 -228 m 453 700 l 575 367 l 336 367 m 643 181 l 708 0 l 906 0 l 547 972 l 354 972 l 11 0 l 208 0 l 272 181 "},"ą":{"ha":831,"x_min":0,"x_max":0,"o":"m 681 -149 b 678 -151 680 -150 679 -150 b 676 -154 678 -152 677 -153 b 651 -164 670 -161 662 -164 b 628 -154 642 -164 634 -161 b 617 -129 620 -147 617 -138 b 619 -116 617 -125 618 -120 b 628 -104 621 -112 624 -108 l 753 22 l 586 22 b 558 8 576 19 567 14 b 538 -8 550 3 543 -3 b 486 -129 503 -43 486 -83 b 535 -246 486 -175 502 -213 b 651 -294 567 -278 606 -294 b 768 -246 697 -294 736 -278 l 778 -235 b 788 -224 782 -232 785 -228 m 590 619 b 582 630 588 623 585 627 b 574 639 579 633 576 636 b 385 711 524 687 461 711 b 138 606 286 711 203 676 b 39 347 72 535 39 449 b 138 89 39 245 72 159 b 385 -17 203 19 286 -17 b 572 51 462 -17 524 6 b 581 60 576 54 579 57 b 590 69 584 64 587 67 l 590 0 l 754 0 l 754 694 l 590 694 m 400 528 b 522 476 449 528 490 511 b 557 418 537 459 549 439 b 569 347 565 397 569 373 b 557 277 569 322 565 299 b 522 219 549 255 537 236 b 400 167 490 184 449 167 b 276 219 350 167 309 184 b 228 347 244 255 228 297 b 276 476 228 398 244 441 b 400 528 309 511 350 528 "},"Ć":{"ha":922,"x_min":0,"x_max":0,"o":"m 614 1043 l 786 1238 l 564 1238 l 415 1043 m 539 989 b 185 839 398 989 280 939 b 81 677 139 790 105 736 b 46 486 58 618 46 555 b 81 294 46 417 58 353 b 185 133 105 236 139 182 b 539 -17 280 33 398 -17 b 732 24 607 -17 672 -3 b 816 71 762 37 790 52 b 890 133 842 89 867 110 l 758 265 b 539 168 699 200 626 168 b 319 261 452 168 379 199 b 254 363 291 292 269 326 b 232 486 239 401 232 442 b 254 608 232 530 239 570 b 319 710 269 645 291 679 b 539 804 379 773 452 804 b 760 707 626 803 700 771 l 890 838 b 817 901 868 862 844 883 b 732 949 791 920 763 936 b 639 978 702 962 671 972 b 539 989 606 985 573 989 "},"ć":{"ha":671,"x_min":0,"x_max":0,"o":"m 485 779 l 658 974 l 435 974 l 286 779 m 396 711 b 142 606 295 711 210 676 b 39 347 73 534 39 448 b 142 90 39 246 73 161 b 396 -17 210 19 295 -17 b 647 89 495 -17 579 19 l 517 221 b 396 168 484 186 444 168 b 274 221 347 168 306 186 b 225 347 241 255 225 297 b 274 474 225 397 241 439 b 396 526 306 509 347 526 b 517 474 444 526 484 509 l 647 606 b 396 711 579 676 495 711 "},"Ĉ":{"ha":922,"x_min":0,"x_max":0,"o":"m 451 1043 l 533 1128 l 615 1043 l 806 1043 l 631 1236 l 438 1236 l 261 1043 m 539 989 b 185 839 398 989 280 939 b 81 677 139 790 105 736 b 46 486 58 618 46 555 b 81 294 46 417 58 353 b 185 133 105 236 139 182 b 539 -17 280 33 398 -17 b 732 24 607 -17 672 -3 b 816 71 762 37 790 52 b 890 133 842 89 867 110 l 758 265 b 539 168 699 200 626 168 b 319 261 452 168 379 199 b 254 363 291 292 269 326 b 232 486 239 401 232 442 b 254 608 232 530 239 570 b 319 710 269 645 291 679 b 539 804 379 773 452 804 b 760 707 626 803 700 771 l 890 838 b 817 901 868 862 844 883 b 732 949 791 920 763 936 b 639 978 702 962 671 972 b 539 989 606 985 573 989 "},"ĉ":{"ha":671,"x_min":0,"x_max":0,"o":"m 286 779 l 368 864 l 450 779 l 640 779 l 464 972 l 272 972 l 96 779 m 396 711 b 142 606 295 711 210 676 b 39 347 73 534 39 448 b 142 90 39 246 73 161 b 396 -17 210 19 295 -17 b 647 89 495 -17 579 19 l 517 221 b 396 168 484 186 444 168 b 274 221 347 168 306 186 b 225 347 241 255 225 297 b 274 474 225 397 241 439 b 396 526 306 509 347 526 b 517 474 444 526 484 509 l 647 606 b 396 711 579 676 495 711 "},"Ċ":{"ha":922,"x_min":0,"x_max":0,"o":"m 636 1174 b 604 1253 636 1204 625 1231 b 525 1285 582 1274 556 1285 b 447 1253 494 1285 469 1274 b 414 1174 425 1231 414 1205 b 447 1096 414 1143 425 1117 b 525 1063 469 1074 494 1063 b 604 1096 556 1063 582 1074 b 636 1174 625 1118 636 1144 m 539 989 b 185 839 398 989 280 939 b 81 677 139 790 105 736 b 46 486 58 618 46 555 b 81 294 46 417 58 353 b 185 133 105 236 139 182 b 539 -17 280 33 398 -17 b 732 24 607 -17 672 -3 b 816 71 762 37 790 52 b 890 133 842 89 867 110 l 758 265 b 539 168 699 200 626 168 b 319 261 452 168 379 199 b 254 363 291 292 269 326 b 232 486 239 401 232 442 b 254 608 232 530 239 570 b 319 710 269 645 291 679 b 539 804 379 773 452 804 b 760 707 626 803 700 771 l 890 838 b 817 901 868 862 844 883 b 732 949 791 920 763 936 b 639 978 702 962 671 972 b 539 989 606 985 573 989 "},"ċ":{"ha":671,"x_min":0,"x_max":0,"o":"m 503 910 b 471 989 503 940 492 967 b 392 1021 449 1010 422 1021 b 314 989 361 1021 335 1010 b 281 910 292 968 281 941 b 314 832 281 879 292 853 b 392 799 335 810 361 799 b 471 832 422 799 449 810 b 503 910 492 854 503 880 m 396 711 b 142 606 295 711 210 676 b 39 347 73 534 39 448 b 142 90 39 246 73 161 b 396 -17 210 19 295 -17 b 647 89 495 -17 579 19 l 517 221 b 396 168 484 186 444 168 b 274 221 347 168 306 186 b 225 347 241 255 225 297 b 274 474 225 397 241 439 b 396 526 306 509 347 526 b 517 474 444 526 484 509 l 647 606 b 396 711 579 676 495 711 "},"Č":{"ha":922,"x_min":0,"x_max":0,"o":"m 425 1043 l 633 1043 l 800 1236 l 611 1236 l 529 1149 l 447 1236 l 258 1236 m 539 989 b 185 839 398 989 280 939 b 81 677 139 790 105 736 b 46 486 58 618 46 555 b 81 294 46 417 58 353 b 185 133 105 236 139 182 b 539 -17 280 33 398 -17 b 732 24 607 -17 672 -3 b 816 71 762 37 790 52 b 890 133 842 89 867 110 l 758 265 b 539 168 699 200 626 168 b 319 261 452 168 379 199 b 254 363 291 292 269 326 b 232 486 239 401 232 442 b 254 608 232 530 239 570 b 319 710 269 645 291 679 b 539 804 379 773 452 804 b 760 707 626 803 700 771 l 890 838 b 817 901 868 862 844 883 b 732 949 791 920 763 936 b 639 978 702 962 671 972 b 539 989 606 985 573 989 "},"č":{"ha":671,"x_min":0,"x_max":0,"o":"m 272 779 l 481 779 l 647 972 l 458 972 l 376 885 l 293 972 l 106 972 m 396 711 b 142 606 295 711 210 676 b 39 347 73 534 39 448 b 142 90 39 246 73 161 b 396 -17 210 19 295 -17 b 647 89 495 -17 579 19 l 517 221 b 396 168 484 186 444 168 b 274 221 347 168 306 186 b 225 347 241 255 225 297 b 274 474 225 397 241 439 b 396 526 306 509 347 526 b 517 474 444 526 484 509 l 647 606 b 396 711 579 676 495 711 "},"Ď":{"ha":971,"x_min":0,"x_max":0,"o":"m 313 1043 l 521 1043 l 688 1236 l 499 1236 l 417 1149 l 335 1236 l 146 1236 m 439 788 b 651 700 522 788 593 758 b 739 486 710 641 739 569 b 651 274 739 403 710 332 b 439 185 593 214 522 185 l 288 185 l 288 788 l 439 788 m 101 972 l 101 0 l 439 0 b 782 143 572 0 687 48 b 889 299 829 190 865 242 b 925 486 913 356 925 419 b 782 831 925 620 877 735 b 439 972 688 925 573 972 "},"ď":{"ha":831,"x_min":0,"x_max":0,"o":"m 904 753 l 975 972 l 803 972 l 758 753 m 400 528 b 276 476 350 528 309 511 b 228 347 244 441 228 398 b 276 219 228 297 244 255 b 400 167 309 184 350 167 b 522 219 449 167 490 184 b 557 277 537 236 549 255 b 569 347 565 299 569 322 b 557 418 569 373 565 397 b 522 476 549 439 537 459 b 400 528 490 511 449 528 m 385 711 b 539 660 445 711 496 694 b 555 649 544 657 550 653 b 569 636 560 645 565 641 l 569 972 l 754 972 l 754 0 l 590 0 l 590 69 b 576 56 586 65 581 60 b 563 44 572 52 567 48 b 385 -17 515 4 456 -17 b 138 89 286 -17 203 19 b 39 347 72 159 39 245 b 138 606 39 449 72 535 b 385 711 203 676 286 711 "},"Đ":{"ha":971,"x_min":0,"x_max":0,"o":"m 439 788 b 651 700 522 788 593 758 b 739 486 710 641 739 569 b 651 274 739 403 710 332 b 439 185 593 214 522 185 l 288 185 l 288 788 l 439 788 m 101 972 l 101 0 l 439 0 b 782 143 572 0 687 48 b 889 299 829 190 865 242 b 925 486 913 356 925 419 b 782 831 925 620 877 735 b 439 972 688 925 573 972 m 469 394 l 469 578 l 42 578 l 42 394 "},"đ":{"ha":882,"x_min":0,"x_max":0,"o":"m 400 528 b 276 476 350 528 309 511 b 228 347 244 441 228 398 b 276 219 228 297 244 255 b 400 167 309 184 350 167 b 522 219 449 167 490 184 b 557 277 537 236 549 255 b 569 347 565 299 569 322 b 557 418 569 373 565 397 b 522 476 549 439 537 459 b 400 528 490 511 449 528 m 385 711 b 539 660 445 711 496 694 b 555 649 544 657 550 653 b 569 636 560 645 565 641 l 569 972 l 754 972 l 754 0 l 590 0 l 590 69 b 576 56 586 65 581 60 b 563 44 572 52 567 48 b 385 -17 515 4 456 -17 b 138 89 286 -17 203 19 b 39 347 72 159 39 245 b 138 606 39 449 72 535 b 385 711 203 676 286 711 m 424 747 l 424 892 l 872 892 l 872 747 "},"Ē":{"ha":817,"x_min":0,"x_max":0,"o":"m 636 1040 l 636 1208 l 182 1208 l 182 1040 m 729 0 l 729 185 l 288 185 l 288 399 l 633 399 l 633 583 l 288 583 l 288 788 l 728 788 l 728 972 l 101 972 l 101 0 "},"ē":{"ha":757,"x_min":0,"x_max":0,"o":"m 624 776 l 624 944 l 169 944 l 169 776 m 732 347 b 638 606 732 452 700 538 b 396 711 572 676 491 711 b 143 606 295 711 211 676 b 39 347 74 534 39 448 b 147 90 39 247 75 162 b 404 -17 219 19 304 -17 b 679 89 518 -17 610 19 l 550 221 b 404 168 515 186 466 168 b 301 203 365 168 331 180 b 270 236 289 212 279 223 b 250 278 261 249 255 263 l 732 278 m 392 535 b 482 504 428 535 458 525 b 528 426 503 485 519 459 l 246 426 b 293 501 255 456 271 481 b 392 535 321 524 354 535 "},"Ĕ":{"ha":817,"x_min":0,"x_max":0,"o":"m 729 0 l 729 185 l 288 185 l 288 399 l 633 399 l 633 583 l 288 583 l 288 788 l 728 788 l 728 972 l 101 972 l 101 0 m 182 1236 b 249 1089 182 1179 204 1130 b 414 1029 292 1049 347 1029 b 582 1089 481 1029 538 1049 b 647 1236 625 1130 647 1179 l 501 1236 b 476 1188 501 1217 493 1200 b 414 1167 459 1174 438 1167 b 353 1188 390 1167 369 1174 b 326 1236 335 1200 326 1217 l 182 1236 "},"ĕ":{"ha":757,"x_min":0,"x_max":0,"o":"m 732 347 b 638 606 732 452 700 538 b 396 711 572 676 491 711 b 143 606 295 711 211 676 b 39 347 74 534 39 448 b 147 90 39 247 75 162 b 404 -17 219 19 304 -17 b 679 89 518 -17 610 19 l 550 221 b 404 168 515 186 466 168 b 301 203 365 168 331 180 b 270 236 289 212 279 223 b 250 278 261 249 255 263 l 732 278 m 392 535 b 482 504 428 535 458 525 b 528 426 503 485 519 459 l 246 426 b 293 501 255 456 271 481 b 392 535 321 524 354 535 m 163 972 b 231 825 163 915 185 866 b 396 765 274 785 329 765 b 563 825 463 765 519 785 b 629 972 607 866 629 915 l 483 972 b 458 924 483 953 475 937 b 396 903 441 910 420 903 b 333 924 372 903 351 910 b 308 972 317 937 308 953 l 163 972 "},"Ė":{"ha":817,"x_min":0,"x_max":0,"o":"m 521 1174 b 488 1253 521 1204 510 1231 b 410 1285 466 1274 440 1285 b 331 1253 378 1285 352 1274 b 299 1174 309 1231 299 1205 b 331 1096 299 1143 309 1117 b 410 1063 353 1074 379 1063 b 488 1096 439 1063 465 1074 b 521 1174 510 1118 521 1144 m 729 0 l 729 185 l 288 185 l 288 399 l 633 399 l 633 583 l 288 583 l 288 788 l 728 788 l 728 972 l 101 972 l 101 0 "},"ė":{"ha":757,"x_min":0,"x_max":0,"o":"m 517 910 b 485 989 517 940 506 967 b 406 1021 463 1010 436 1021 b 328 989 375 1021 349 1010 b 294 910 306 968 294 941 b 328 832 294 879 306 853 b 406 799 349 810 375 799 b 485 832 436 799 463 810 b 517 910 506 854 517 880 m 732 347 b 638 606 732 452 700 538 b 396 711 572 676 491 711 b 143 606 295 711 211 676 b 39 347 74 534 39 448 b 147 90 39 247 75 162 b 404 -17 219 19 304 -17 b 679 89 518 -17 610 19 l 550 221 b 404 168 515 186 466 168 b 301 203 365 168 331 180 b 270 236 289 212 279 223 b 250 278 261 249 255 263 l 732 278 m 392 535 b 482 504 428 535 458 525 b 528 426 503 485 519 459 l 246 426 b 293 501 255 456 271 481 b 392 535 321 524 354 535 "},"Ę":{"ha":817,"x_min":0,"x_max":0,"o":"m 656 -149 l 653 -151 b 651 -154 652 -152 651 -153 b 626 -164 644 -161 636 -164 b 601 -154 617 -164 609 -161 b 590 -129 594 -147 590 -138 b 601 -104 590 -119 594 -111 l 728 22 l 560 22 b 513 -8 540 14 525 4 b 461 -129 478 -43 461 -83 b 510 -246 461 -175 477 -213 b 626 -294 542 -278 581 -294 b 743 -246 672 -294 711 -278 b 753 -235 747 -242 750 -239 b 763 -224 756 -232 759 -228 m 729 0 l 729 185 l 288 185 l 288 399 l 633 399 l 633 583 l 288 583 l 288 788 l 728 788 l 728 972 l 101 972 l 101 0 "},"ę":{"ha":757,"x_min":0,"x_max":0,"o":"m 732 347 b 638 606 732 452 700 538 b 396 711 572 676 491 711 b 143 606 295 711 211 676 b 39 347 74 534 39 448 b 147 90 39 247 75 162 b 404 -17 219 19 304 -17 b 679 89 518 -17 610 19 l 550 221 b 404 168 515 186 466 168 b 301 203 365 168 331 180 b 270 236 289 212 279 223 b 250 278 261 249 255 263 l 732 278 m 392 535 b 482 504 428 535 458 525 b 528 426 503 485 519 459 l 246 426 b 293 501 255 456 271 481 b 392 535 321 524 354 535 m 524 -142 b 521 -144 523 -143 522 -143 b 519 -146 520 -144 519 -145 b 494 -156 512 -152 504 -156 b 469 -146 485 -156 477 -152 b 458 -121 462 -138 458 -130 b 461 -108 458 -116 459 -112 b 469 -96 463 -103 466 -100 l 596 31 l 428 31 b 381 -1 408 22 393 12 b 329 -122 346 -35 329 -75 b 378 -237 329 -167 345 -205 b 494 -286 410 -270 449 -286 b 611 -237 540 -286 579 -270 b 622 -228 615 -235 618 -231 b 631 -217 625 -224 628 -220 "},"Ě":{"ha":817,"x_min":0,"x_max":0,"o":"m 299 1043 l 507 1043 l 674 1236 l 485 1236 l 403 1149 l 321 1236 l 132 1236 m 729 0 l 729 185 l 288 185 l 288 399 l 633 399 l 633 583 l 288 583 l 288 788 l 728 788 l 728 972 l 101 972 l 101 0 "},"ě":{"ha":757,"x_min":0,"x_max":0,"o":"m 296 779 l 504 779 l 671 972 l 482 972 l 400 885 l 318 972 l 129 972 m 732 347 b 638 606 732 452 700 538 b 396 711 572 676 491 711 b 143 606 295 711 211 676 b 39 347 74 534 39 448 b 147 90 39 247 75 162 b 404 -17 219 19 304 -17 b 679 89 518 -17 610 19 l 550 221 b 404 168 515 186 466 168 b 301 203 365 168 331 180 b 270 236 289 212 279 223 b 250 278 261 249 255 263 l 732 278 m 392 535 b 482 504 428 535 458 525 b 528 426 503 485 519 459 l 246 426 b 293 501 255 456 271 481 b 392 535 321 524 354 535 "},"Ĝ":{"ha":1061,"x_min":0,"x_max":0,"o":"m 461 1043 l 543 1128 l 624 1043 l 814 1043 l 639 1236 l 446 1236 l 269 1043 m 538 989 b 189 843 400 989 283 940 b 46 486 94 745 46 626 b 188 131 46 347 93 229 b 538 -17 282 32 399 -17 b 731 22 605 -17 669 -4 b 815 69 760 35 788 51 b 889 133 842 88 867 109 b 1029 486 982 231 1029 349 l 1029 579 l 576 579 l 576 393 l 825 393 b 800 324 819 368 811 345 b 758 265 789 302 775 283 b 538 168 699 200 625 168 b 319 261 450 168 378 199 b 232 486 261 323 232 398 b 319 710 232 574 261 649 b 538 804 378 773 450 804 b 760 707 625 803 700 771 l 890 838 b 817 902 868 863 844 884 b 732 950 790 920 762 936 b 638 979 701 963 670 973 b 538 989 605 986 572 989 "},"ĝ":{"ha":788,"x_min":0,"x_max":0,"o":"m 311 779 l 393 864 l 475 779 l 667 779 l 490 972 l 297 972 l 121 779 m 379 524 b 486 478 423 524 458 508 b 528 364 514 446 528 408 b 486 250 528 319 514 281 b 379 204 458 219 423 204 b 271 250 336 204 300 219 b 228 364 242 281 228 319 b 271 478 228 408 242 446 b 379 524 300 508 336 524 m 369 710 b 135 610 276 710 198 676 b 42 364 73 542 42 460 b 135 119 42 267 73 185 b 369 18 198 52 276 18 b 518 67 430 18 479 34 b 523 73 520 69 522 72 l 528 78 l 528 54 b 485 -78 528 -1 513 -45 b 358 -125 457 -109 415 -125 b 147 -65 280 -125 209 -105 l 61 -215 b 367 -297 131 -270 233 -297 b 618 -197 472 -297 556 -264 b 713 76 681 -131 713 -39 l 713 693 l 539 693 l 539 640 l 531 648 b 524 654 529 650 526 652 b 369 710 483 691 431 710 "},"Ğ":{"ha":1061,"x_min":0,"x_max":0,"o":"m 306 1250 b 371 1104 306 1194 327 1145 b 538 1043 415 1063 471 1043 b 704 1104 605 1043 661 1063 b 771 1250 749 1144 771 1193 l 625 1250 b 600 1201 625 1231 617 1214 b 538 1181 582 1188 562 1181 b 476 1201 513 1181 493 1188 b 450 1250 459 1214 450 1231 l 306 1250 m 538 989 b 189 843 400 989 283 940 b 46 486 94 745 46 626 b 188 131 46 347 93 229 b 538 -17 282 32 399 -17 b 731 22 605 -17 669 -4 b 815 69 760 35 788 51 b 889 133 842 88 867 109 b 1029 486 982 231 1029 349 l 1029 579 l 576 579 l 576 393 l 825 393 b 800 324 819 368 811 345 b 758 265 789 302 775 283 b 538 168 699 200 625 168 b 319 261 450 168 378 199 b 232 486 261 323 232 398 b 319 710 232 574 261 649 b 538 804 378 773 450 804 b 760 707 625 803 700 771 l 890 838 b 817 902 868 863 844 884 b 732 950 790 920 762 936 b 638 979 701 963 670 973 b 538 989 605 986 572 989 "},"ğ":{"ha":788,"x_min":0,"x_max":0,"o":"m 163 972 b 229 825 163 915 185 866 b 396 765 273 785 328 765 b 563 825 463 765 518 785 b 629 972 607 866 629 915 l 483 972 b 458 924 483 953 475 937 b 396 903 441 910 420 903 b 333 924 372 903 351 910 b 308 972 317 937 308 953 l 163 972 m 379 524 b 486 478 423 524 458 508 b 528 364 514 446 528 408 b 486 250 528 319 514 281 b 379 204 458 219 423 204 b 271 250 336 204 300 219 b 228 364 242 281 228 319 b 271 478 228 408 242 446 b 379 524 300 508 336 524 m 369 710 b 135 610 276 710 198 676 b 42 364 73 542 42 460 b 135 119 42 267 73 185 b 369 18 198 52 276 18 b 518 67 430 18 479 34 b 523 73 520 69 522 72 l 528 78 l 528 54 b 485 -78 528 -1 513 -45 b 358 -125 457 -109 415 -125 b 147 -65 280 -125 209 -105 l 61 -215 b 367 -297 131 -270 233 -297 b 618 -197 472 -297 556 -264 b 713 76 681 -131 713 -39 l 713 693 l 539 693 l 539 640 l 531 648 b 524 654 529 650 526 652 b 369 710 483 691 431 710 "},"Ġ":{"ha":1061,"x_min":0,"x_max":0,"o":"m 649 1188 b 615 1267 649 1218 638 1244 b 538 1299 594 1288 568 1299 b 458 1267 506 1299 480 1288 b 426 1188 437 1244 426 1218 b 458 1110 426 1157 437 1131 b 538 1076 480 1088 506 1076 b 615 1110 568 1076 594 1088 b 649 1188 638 1131 649 1157 m 538 989 b 189 843 400 989 283 940 b 46 486 94 745 46 626 b 188 131 46 347 93 229 b 538 -17 282 32 399 -17 b 731 22 605 -17 669 -4 b 815 69 760 35 788 51 b 889 133 842 88 867 109 b 1029 486 982 231 1029 349 l 1029 579 l 576 579 l 576 393 l 825 393 b 800 324 819 368 811 345 b 758 265 789 302 775 283 b 538 168 699 200 625 168 b 319 261 450 168 378 199 b 232 486 261 323 232 398 b 319 710 232 574 261 649 b 538 804 378 773 450 804 b 760 707 625 803 700 771 l 890 838 b 817 902 868 863 844 884 b 732 950 790 920 762 936 b 638 979 701 963 670 973 b 538 989 605 986 572 989 "},"ġ":{"ha":788,"x_min":0,"x_max":0,"o":"m 501 910 b 469 989 501 940 491 967 b 390 1021 447 1010 421 1021 b 313 989 360 1021 334 1010 b 279 910 290 968 279 941 b 313 832 279 879 290 853 b 390 799 334 810 360 799 b 469 832 421 799 447 810 b 501 910 491 854 501 880 m 379 524 b 486 478 423 524 458 508 b 528 364 514 446 528 408 b 486 250 528 319 514 281 b 379 204 458 219 423 204 b 271 250 336 204 300 219 b 228 364 242 281 228 319 b 271 478 228 408 242 446 b 379 524 300 508 336 524 m 369 710 b 135 610 276 710 198 676 b 42 364 73 542 42 460 b 135 119 42 267 73 185 b 369 18 198 52 276 18 b 518 67 430 18 479 34 b 523 73 520 69 522 72 l 528 78 l 528 54 b 485 -78 528 -1 513 -45 b 358 -125 457 -109 415 -125 b 147 -65 280 -125 209 -105 l 61 -215 b 367 -297 131 -270 233 -297 b 618 -197 472 -297 556 -264 b 713 76 681 -131 713 -39 l 713 693 l 539 693 l 539 640 l 531 648 b 524 654 529 650 526 652 b 369 710 483 691 431 710 "},"Ģ":{"ha":1061,"x_min":0,"x_max":0,"o":"m 560 -278 l 657 -67 l 468 -67 l 413 -278 m 538 989 b 189 843 400 989 283 940 b 46 486 94 745 46 626 b 188 131 46 347 93 229 b 538 -17 282 32 399 -17 b 731 22 605 -17 669 -4 b 815 69 760 35 788 51 b 889 133 842 88 867 109 b 1029 486 982 231 1029 349 l 1029 579 l 576 579 l 576 393 l 825 393 b 800 324 819 368 811 345 b 758 265 789 302 775 283 b 538 168 699 200 625 168 b 319 261 450 168 378 199 b 232 486 261 323 232 398 b 319 710 232 574 261 649 b 538 804 378 773 450 804 b 760 707 625 803 700 771 l 890 838 b 817 902 868 863 844 884 b 732 950 790 920 762 936 b 638 979 701 963 670 973 b 538 989 605 986 572 989 "},"ģ":{"ha":788,"x_min":0,"x_max":0,"o":"m 379 524 b 486 478 423 524 458 508 b 528 364 514 446 528 408 b 486 250 528 319 514 281 b 379 204 458 219 423 204 b 271 250 336 204 300 219 b 228 364 242 281 228 319 b 271 478 228 408 242 446 b 379 524 300 508 336 524 m 369 710 b 135 610 276 710 198 676 b 42 364 73 542 42 460 b 135 119 42 267 73 185 b 369 18 198 52 276 18 b 518 67 430 18 479 34 b 523 73 520 69 522 72 l 528 78 l 528 54 b 485 -78 528 -1 513 -45 b 358 -125 457 -109 415 -125 b 147 -65 280 -125 209 -105 l 61 -215 b 367 -297 131 -270 233 -297 b 618 -197 472 -297 556 -264 b 713 76 681 -131 713 -39 l 713 693 l 539 693 l 539 640 l 531 648 b 524 654 529 650 526 652 b 369 710 483 691 431 710 m 410 990 l 285 793 l 483 793 l 565 990 "},"Ĥ":{"ha":1010,"x_min":0,"x_max":0,"o":"m 424 1043 l 506 1129 l 588 1043 l 778 1043 l 601 1238 l 410 1238 l 233 1043 m 288 0 l 288 404 l 724 404 l 724 0 l 908 0 l 908 972 l 724 972 l 724 589 l 288 589 l 288 974 l 101 974 l 101 0 "},"ĥ":{"ha":793,"x_min":0,"x_max":0,"o":"m 92 1057 l 174 1142 l 256 1057 l 446 1057 l 269 1250 l 78 1250 l -100 1057 m 729 361 b 709 502 729 413 722 460 b 650 614 696 544 676 581 b 438 711 596 679 525 711 b 281 657 375 711 322 693 b 272 649 278 654 275 651 b 264 640 268 646 266 643 l 264 972 l 78 972 l 78 0 l 264 0 l 264 368 b 304 482 264 415 277 453 b 404 526 330 512 363 526 b 504 482 444 526 477 512 b 543 368 530 454 543 416 l 543 0 l 729 0 "},"Ħ":{"ha":1010,"x_min":0,"x_max":0,"o":"m 288 0 l 288 404 l 724 404 l 724 0 l 908 0 l 908 972 l 724 972 l 724 589 l 288 589 l 288 974 l 101 974 l 101 0 m 1003 683 l 1003 868 l 7 868 l 7 683 "},"ħ":{"ha":793,"x_min":0,"x_max":0,"o":"m 729 361 b 709 502 729 413 722 460 b 650 614 696 544 676 581 b 438 711 596 679 525 711 b 281 657 375 711 322 693 b 272 649 278 654 275 651 b 264 640 268 646 266 643 l 264 972 l 78 972 l 78 0 l 264 0 l 264 368 b 304 482 264 415 277 453 b 404 526 330 512 363 526 b 504 482 444 526 477 512 b 543 368 530 454 543 416 l 543 0 l 729 0 m 471 767 l 471 896 l 0 896 l 0 767 "},"Ĩ":{"ha":389,"x_min":0,"x_max":0,"o":"m 288 0 l 288 972 l 101 972 l 101 0 m 290 1024 b 407 1074 336 1024 375 1040 b 467 1201 439 1107 459 1150 l 331 1201 b 289 1147 326 1165 312 1147 b 256 1163 275 1147 264 1152 b 241 1178 251 1167 246 1172 b 225 1197 236 1184 231 1191 b 103 1247 195 1231 155 1247 b -17 1196 58 1247 19 1230 b -75 1069 -52 1163 -71 1120 l 61 1069 b 108 1124 69 1106 85 1124 b 143 1108 121 1124 133 1119 b 157 1092 148 1104 152 1098 b 172 1074 162 1086 167 1080 b 290 1024 199 1040 238 1024 "},"ĩ":{"ha":369,"x_min":0,"x_max":0,"o":"m 278 0 l 278 694 l 92 694 l 92 0 m 278 760 b 396 810 324 760 363 776 b 454 938 428 843 448 886 l 318 938 b 276 883 313 901 300 883 b 243 899 263 883 252 888 b 229 915 239 903 235 909 b 213 933 224 921 218 927 b 90 983 184 967 143 983 b -29 932 46 983 6 966 b -70 876 -47 916 -60 898 b -87 806 -80 855 -86 831 l 49 806 b 96 860 57 842 73 860 b 131 844 110 860 121 855 b 145 828 135 840 140 834 b 161 810 150 822 156 816 b 278 760 187 776 226 760 "},"Ī":{"ha":389,"x_min":0,"x_max":0,"o":"m 421 1040 l 421 1208 l -32 1208 l -32 1040 m 288 0 l 288 972 l 101 972 l 101 0 "},"ī":{"ha":369,"x_min":0,"x_max":0,"o":"m 381 776 l 381 943 l -12 943 l -12 776 m 278 0 l 278 694 l 92 694 l 92 0 "},"Ĭ":{"ha":389,"x_min":0,"x_max":0,"o":"m 288 0 l 288 972 l 101 972 l 101 0 m -37 1236 b 28 1089 -37 1179 -16 1130 b 194 1029 71 1049 127 1029 b 361 1089 262 1029 318 1049 b 428 1236 406 1130 428 1179 l 282 1236 b 257 1188 282 1217 274 1200 b 194 1167 239 1174 219 1167 b 133 1188 170 1167 150 1174 b 107 1236 116 1200 107 1217 l -37 1236 "},"ĭ":{"ha":369,"x_min":0,"x_max":0,"o":"m 278 0 l 278 694 l 92 694 l 92 0 m -46 972 b 21 825 -46 915 -24 866 b 188 765 64 785 120 765 b 354 825 254 765 310 785 b 419 972 398 866 419 915 l 275 972 b 249 924 275 953 266 937 b 188 903 232 910 212 903 b 125 924 163 903 143 910 b 100 972 108 937 100 953 l -46 972 "},"Į":{"ha":389,"x_min":0,"x_max":0,"o":"m 211 -149 b 210 -151 211 -150 211 -150 b 208 -154 209 -152 208 -153 b 183 -164 201 -161 193 -164 b 157 -154 173 -164 164 -161 b 147 -129 150 -147 147 -138 b 150 -116 147 -125 148 -120 b 157 -104 152 -112 154 -108 l 285 22 l 117 22 b 68 -8 97 14 81 4 b 17 -129 34 -43 17 -83 b 65 -246 17 -175 33 -213 b 183 -294 98 -278 137 -294 b 300 -246 229 -294 268 -278 l 310 -235 b 318 -224 314 -232 316 -228 m 288 0 l 288 972 l 101 972 l 101 0 "},"į":{"ha":369,"x_min":0,"x_max":0,"o":"m 201 -149 b 199 -151 200 -150 200 -150 b 197 -154 199 -152 198 -153 b 172 -164 190 -161 181 -164 b 147 -154 163 -164 155 -161 b 138 -129 141 -147 138 -138 b 147 -104 138 -119 141 -111 l 274 22 l 107 22 b 79 8 97 19 88 14 b 58 -8 71 3 64 -3 b 7 -129 24 -43 7 -83 b 56 -246 7 -175 23 -213 b 172 -294 88 -278 127 -294 b 289 -246 218 -294 256 -278 l 299 -235 b 308 -224 303 -232 306 -228 m 296 910 b 264 989 296 941 285 968 b 185 1021 243 1010 216 1021 b 107 989 154 1021 128 1010 b 74 910 85 967 74 940 b 107 832 74 880 85 854 b 185 799 129 810 155 799 b 264 832 215 799 242 810 b 296 910 285 853 296 879 m 278 0 l 278 694 l 92 694 l 92 0 "},"İ":{"ha":389,"x_min":0,"x_max":0,"o":"m 308 1174 b 275 1253 308 1205 297 1231 b 197 1285 254 1274 228 1285 b 118 1253 166 1285 139 1274 b 86 1174 97 1231 86 1204 b 118 1096 86 1144 97 1118 b 197 1063 140 1074 167 1063 b 275 1096 228 1063 254 1074 b 308 1174 297 1117 308 1143 m 288 0 l 288 972 l 101 972 l 101 0 "},"ı":{"ha":369,"x_min":0,"x_max":0,"o":"m 278 0 l 278 694 l 92 694 l 92 0 "},"Ĳ":{"ha":1179,"x_min":0,"x_max":0,"o":"m 744 281 b 711 200 744 249 733 222 b 629 165 688 177 661 165 b 547 199 597 165 569 176 l 417 68 b 629 -19 476 10 547 -19 b 842 68 712 -19 782 10 b 931 281 901 127 931 198 l 931 972 l 744 972 m 288 0 l 288 972 l 101 972 l 101 0 "},"ĳ":{"ha":778,"x_min":0,"x_max":0,"o":"m 451 47 b 404 -67 451 3 436 -35 b 292 -114 373 -98 335 -114 l 292 -299 b 536 -197 387 -299 469 -265 b 613 -85 570 -163 596 -125 b 638 47 629 -44 638 0 l 638 694 l 451 694 m 658 908 b 625 989 658 940 647 967 b 544 1022 603 1011 576 1022 b 464 989 512 1022 485 1011 b 431 908 442 968 431 941 b 464 828 431 877 442 850 b 544 794 486 806 513 794 b 625 828 576 794 603 806 b 658 908 647 850 658 877 m 296 910 b 264 989 296 941 285 968 b 185 1021 243 1010 216 1021 b 107 989 154 1021 128 1010 b 74 910 85 967 74 940 b 107 832 74 880 85 854 b 185 799 129 810 155 799 b 264 832 215 799 242 810 b 296 910 285 853 296 879 m 278 0 l 278 694 l 92 694 l 92 0 "},"Ĵ":{"ha":613,"x_min":0,"x_max":0,"o":"m 342 1046 l 424 1131 l 506 1046 l 696 1046 l 521 1239 l 328 1239 l 151 1046 m 340 281 b 306 200 340 249 329 222 b 225 165 283 177 256 165 b 143 199 193 165 165 176 l 13 68 b 225 -19 71 10 142 -19 b 438 68 307 -19 378 10 b 525 281 496 127 525 198 l 525 972 l 340 972 "},"ĵ":{"ha":361,"x_min":0,"x_max":0,"o":"m 124 779 l 206 864 l 288 779 l 479 779 l 301 972 l 110 972 l -67 779 m 82 47 b 35 -67 82 3 66 -35 b -79 -114 3 -98 -35 -114 l -79 -299 b 165 -197 16 -299 98 -265 b 242 -85 200 -163 225 -125 b 267 47 258 -44 267 0 l 267 694 l 82 694 "},"Ķ":{"ha":900,"x_min":0,"x_max":0,"o":"m 478 -278 l 575 -67 l 386 -67 l 331 -278 m 288 0 l 288 310 l 365 399 l 661 0 l 889 0 l 489 544 l 864 972 l 621 972 l 288 596 l 288 972 l 101 972 l 101 0 "},"ķ":{"ha":760,"x_min":0,"x_max":0,"o":"m 388 -278 l 485 -67 l 296 -67 l 240 -278 m 261 0 l 261 169 l 340 256 l 521 0 l 750 0 l 468 394 l 742 694 l 493 694 l 261 444 l 261 972 l 76 972 l 76 0 "},"Ĺ":{"ha":749,"x_min":0,"x_max":0,"o":"m 297 1043 l 471 1238 l 247 1238 l 99 1043 m 726 0 l 726 185 l 288 185 l 288 972 l 101 972 l 101 0 "},"ĺ":{"ha":338,"x_min":0,"x_max":0,"o":"m 264 1043 l 436 1238 l 214 1238 l 65 1043 m 76 0 l 261 0 l 261 972 l 76 972 "},"Ļ":{"ha":749,"x_min":0,"x_max":0,"o":"m 406 -278 l 504 -67 l 315 -67 l 260 -278 m 726 0 l 726 185 l 288 185 l 288 972 l 101 972 l 101 0 "},"ļ":{"ha":338,"x_min":0,"x_max":0,"o":"m 168 -278 l 267 -67 l 78 -67 l 22 -278 m 76 0 l 261 0 l 261 972 l 76 972 "},"Ľ":{"ha":749,"x_min":0,"x_max":0,"o":"m 503 835 l 574 1054 l 401 1054 l 357 835 m 726 0 l 726 185 l 288 185 l 288 972 l 101 972 l 101 0 "},"ľ":{"ha":338,"x_min":0,"x_max":0,"o":"m 435 753 l 506 972 l 333 972 l 289 753 m 76 0 l 261 0 l 261 972 l 76 972 "},"Ŀ":{"ha":749,"x_min":0,"x_max":0,"o":"m 726 0 l 726 185 l 288 185 l 288 972 l 101 972 l 101 0 m 647 549 b 615 628 647 579 637 606 b 536 660 593 649 567 660 b 458 628 506 660 480 649 b 425 549 436 606 425 579 b 458 471 425 518 436 492 b 536 438 480 449 506 438 b 615 471 567 438 593 449 b 647 549 637 492 647 518 "},"ŀ":{"ha":564,"x_min":0,"x_max":0,"o":"m 76 0 l 261 0 l 261 972 l 76 972 m 522 513 b 490 590 522 542 512 568 b 411 624 468 613 442 624 b 333 590 381 624 355 613 b 300 513 311 569 300 543 b 333 433 300 481 311 455 b 411 401 355 412 381 401 b 490 433 442 401 468 412 b 522 513 512 456 522 482 "},"Ł":{"ha":749,"x_min":0,"x_max":0,"o":"m 726 0 l 726 185 l 288 185 l 288 972 l 101 972 l 101 0 m 440 544 l 440 753 l 1 528 l 1 319 "},"ł":{"ha":397,"x_min":0,"x_max":0,"o":"m 389 499 l 389 707 l 10 511 l 10 303 m 296 0 l 296 972 l 101 972 l 101 0 "},"Ń":{"ha":1000,"x_min":0,"x_max":0,"o":"m 601 1024 l 775 1218 l 553 1218 l 404 1024 m 101 0 l 288 0 l 288 635 l 713 0 l 899 0 l 899 972 l 713 972 l 713 338 l 288 972 l 101 972 "},"ń":{"ha":792,"x_min":0,"x_max":0,"o":"m 485 779 l 657 974 l 435 974 l 286 779 m 726 361 b 707 502 726 413 720 460 b 649 614 694 544 675 581 b 436 711 595 679 524 711 b 272 651 369 711 314 691 l 261 640 l 250 629 l 250 694 l 76 694 l 76 0 l 261 0 l 261 368 b 301 482 261 415 275 453 b 403 526 328 512 362 526 b 501 482 443 526 475 512 b 542 368 528 454 542 416 l 542 0 l 726 0 "},"Ņ":{"ha":1000,"x_min":0,"x_max":0,"o":"m 528 -278 l 625 -67 l 436 -67 l 381 -278 m 101 0 l 288 0 l 288 635 l 713 0 l 899 0 l 899 972 l 713 972 l 713 338 l 288 972 l 101 972 "},"ņ":{"ha":792,"x_min":0,"x_max":0,"o":"m 399 -278 l 496 -67 l 307 -67 l 251 -278 m 726 361 b 707 502 726 413 720 460 b 649 614 694 544 675 581 b 436 711 595 679 524 711 b 272 651 369 711 314 691 l 261 640 l 250 629 l 250 694 l 76 694 l 76 0 l 261 0 l 261 368 b 301 482 261 415 275 453 b 403 526 328 512 362 526 b 501 482 443 526 475 512 b 542 368 528 454 542 416 l 542 0 l 726 0 "},"Ň":{"ha":1000,"x_min":0,"x_max":0,"o":"m 413 1024 l 621 1024 l 788 1218 l 599 1218 l 517 1129 l 435 1218 l 246 1218 m 101 0 l 288 0 l 288 635 l 713 0 l 899 0 l 899 972 l 713 972 l 713 338 l 288 972 l 101 972 "},"ň":{"ha":792,"x_min":0,"x_max":0,"o":"m 279 779 l 488 779 l 654 972 l 465 972 l 383 885 l 301 972 l 113 972 m 726 361 b 707 502 726 413 720 460 b 649 614 694 544 675 581 b 436 711 595 679 524 711 b 272 651 369 711 314 691 l 261 640 l 250 629 l 250 694 l 76 694 l 76 0 l 261 0 l 261 368 b 301 482 261 415 275 453 b 403 526 328 512 362 526 b 501 482 443 526 475 512 b 542 368 528 454 542 416 l 542 0 l 726 0 "},"Ŋ":{"ha":1000,"x_min":0,"x_max":0,"o":"m 101 0 l 288 0 l 288 635 l 713 0 l 899 0 l 899 972 l 713 972 l 713 338 l 288 972 l 101 972 m 713 -17 b 685 -83 713 -43 703 -65 b 617 -112 666 -103 644 -112 l 568 -112 l 568 -297 l 617 -297 b 817 -214 694 -297 761 -269 b 899 -17 871 -159 899 -94 l 899 0 l 713 0 "},"ŋ":{"ha":792,"x_min":0,"x_max":0,"o":"m 726 361 b 707 502 726 413 720 460 b 649 614 694 544 675 581 b 436 711 595 679 524 711 b 272 651 369 711 314 691 l 261 640 l 250 629 l 250 694 l 76 694 l 76 0 l 261 0 l 261 368 b 301 482 261 415 275 453 b 403 526 328 512 362 526 b 501 482 443 526 475 512 b 542 368 528 454 542 416 l 542 0 l 726 0 m 542 -17 b 514 -83 542 -43 532 -65 b 446 -112 494 -103 472 -112 l 397 -112 l 397 -297 l 446 -297 b 644 -214 524 -297 590 -269 b 726 -17 699 -159 726 -94 l 726 0 l 542 0 "},"Ō":{"ha":1075,"x_min":0,"x_max":0,"o":"m 538 804 b 756 710 624 804 696 773 b 822 608 785 679 807 645 b 844 486 837 570 844 530 b 756 261 844 398 815 323 b 538 168 696 199 624 168 b 319 261 451 168 379 199 b 232 486 261 323 232 398 b 253 608 232 530 239 570 b 319 710 268 645 290 679 b 538 804 379 773 451 804 m 538 989 b 186 840 399 989 281 939 b 46 486 93 743 46 625 b 186 131 46 347 93 229 b 538 -17 281 32 398 -17 b 883 125 675 -17 790 31 b 1029 486 981 223 1029 344 b 886 844 1029 627 981 746 b 538 989 792 941 675 989 m 774 1040 l 774 1208 l 319 1208 l 319 1040 "},"ō":{"ha":790,"x_min":0,"x_max":0,"o":"m 625 776 l 625 944 l 171 944 l 171 776 m 396 526 b 517 474 444 526 484 509 b 565 347 549 439 565 397 b 553 278 565 322 561 299 b 517 221 546 256 533 238 b 396 168 484 186 444 168 b 274 221 347 168 306 186 b 225 347 241 255 225 297 b 237 417 225 372 229 395 b 274 474 245 438 257 457 b 396 526 306 509 347 526 m 396 711 b 143 604 295 711 211 675 b 39 347 74 534 39 448 b 143 90 39 246 74 161 b 396 -17 211 19 295 -17 b 647 90 496 -17 580 19 b 751 347 717 161 751 246 b 647 604 751 448 717 534 b 396 711 580 675 496 711 "},"Ŏ":{"ha":1075,"x_min":0,"x_max":0,"o":"m 538 804 b 756 710 624 804 696 773 b 822 608 785 679 807 645 b 844 486 837 570 844 530 b 756 261 844 398 815 323 b 538 168 696 199 624 168 b 319 261 451 168 379 199 b 232 486 261 323 232 398 b 253 608 232 530 239 570 b 319 710 268 645 290 679 b 538 804 379 773 451 804 m 538 989 b 186 840 399 989 281 939 b 46 486 93 743 46 625 b 186 131 46 347 93 229 b 538 -17 281 32 398 -17 b 883 125 675 -17 790 31 b 1029 486 981 223 1029 344 b 886 844 1029 627 981 746 b 538 989 792 941 675 989 m 313 1236 b 379 1089 313 1179 335 1130 b 546 1029 423 1049 478 1029 b 713 1089 613 1029 669 1049 b 779 1236 757 1130 779 1179 l 633 1236 b 608 1188 633 1217 625 1200 b 546 1167 591 1174 570 1167 b 483 1188 521 1167 500 1174 b 458 1236 467 1200 458 1217 l 313 1236 "},"ŏ":{"ha":790,"x_min":0,"x_max":0,"o":"m 396 526 b 517 474 444 526 484 509 b 565 347 549 439 565 397 b 553 278 565 322 561 299 b 517 221 546 256 533 238 b 396 168 484 186 444 168 b 274 221 347 168 306 186 b 225 347 241 255 225 297 b 237 417 225 372 229 395 b 274 474 245 438 257 457 b 396 526 306 509 347 526 m 396 711 b 143 604 295 711 211 675 b 39 347 74 534 39 448 b 143 90 39 246 74 161 b 396 -17 211 19 295 -17 b 647 90 496 -17 580 19 b 751 347 717 161 751 246 b 647 604 751 448 717 534 b 396 711 580 675 496 711 m 163 972 b 228 825 163 915 184 866 b 394 765 271 785 327 765 b 561 825 462 765 518 785 b 628 972 606 866 628 915 l 482 972 b 457 924 482 953 474 937 b 394 903 439 910 419 903 b 333 924 370 903 350 910 b 307 972 316 937 307 953 l 163 972 "},"Ő":{"ha":1075,"x_min":0,"x_max":0,"o":"m 782 1043 l 936 1236 l 738 1236 l 607 1043 m 496 1043 l 649 1236 l 450 1236 l 324 1043 m 538 804 b 756 710 624 804 696 773 b 822 608 785 679 807 645 b 844 486 837 570 844 530 b 756 261 844 398 815 323 b 538 168 696 199 624 168 b 319 261 451 168 379 199 b 232 486 261 323 232 398 b 253 608 232 530 239 570 b 319 710 268 645 290 679 b 538 804 379 773 451 804 m 538 989 b 186 840 399 989 281 939 b 46 486 93 743 46 625 b 186 131 46 347 93 229 b 538 -17 281 32 398 -17 b 883 125 675 -17 790 31 b 1029 486 981 223 1029 344 b 886 844 1029 627 981 746 b 538 989 792 941 675 989 "},"ő":{"ha":790,"x_min":0,"x_max":0,"o":"m 628 779 l 782 972 l 583 972 l 453 779 m 342 779 l 494 972 l 296 972 l 169 779 m 396 526 b 517 474 444 526 484 509 b 565 347 549 439 565 397 b 553 278 565 322 561 299 b 517 221 546 256 533 238 b 396 168 484 186 444 168 b 274 221 347 168 306 186 b 225 347 241 255 225 297 b 237 417 225 372 229 395 b 274 474 245 438 257 457 b 396 526 306 509 347 526 m 396 711 b 143 604 295 711 211 675 b 39 347 74 534 39 448 b 143 90 39 246 74 161 b 396 -17 211 19 295 -17 b 647 90 496 -17 580 19 b 751 347 717 161 751 246 b 647 604 751 448 717 534 b 396 711 580 675 496 711 "},"Œ":{"ha":1560,"x_min":0,"x_max":0,"o":"m 538 804 b 756 710 624 804 696 773 b 822 608 785 679 807 645 b 844 486 837 570 844 530 b 756 261 844 398 815 323 b 538 168 696 199 624 168 b 319 261 451 168 379 199 b 232 486 261 323 232 398 b 253 608 232 530 239 570 b 319 710 268 645 290 679 b 538 804 379 773 451 804 m 538 989 b 186 840 399 989 281 939 b 46 486 93 743 46 625 b 186 131 46 347 93 229 b 538 -17 281 32 398 -17 b 883 125 675 -17 790 31 b 1029 486 981 223 1029 344 b 886 844 1029 627 981 746 b 538 989 792 941 675 989 m 1472 0 l 1472 185 l 1029 185 l 1029 399 l 1376 399 l 1376 583 l 1029 583 l 1029 788 l 1471 788 l 1471 972 l 844 972 l 844 0 "},"œ":{"ha":1283,"x_min":0,"x_max":0,"o":"m 1258 347 b 1164 606 1258 452 1227 538 b 921 711 1098 676 1017 711 b 669 606 821 711 737 676 b 565 347 600 534 565 448 b 674 90 565 247 601 162 b 931 -17 745 19 831 -17 b 1206 89 1044 -17 1136 19 l 1076 221 b 931 168 1041 186 993 168 b 828 203 892 168 857 180 b 776 278 804 222 787 247 l 1258 278 m 918 535 b 1008 504 954 535 984 525 b 1054 426 1030 485 1045 459 l 772 426 b 819 501 781 456 797 481 b 918 535 847 524 880 535 m 396 526 b 517 474 444 526 484 509 b 565 347 549 439 565 397 b 553 278 565 322 561 299 b 517 221 546 256 533 238 b 396 168 484 186 444 168 b 274 221 347 168 306 186 b 225 347 241 255 225 297 b 237 417 225 372 229 395 b 274 474 245 438 257 457 b 396 526 306 509 347 526 m 396 711 b 143 604 295 711 211 675 b 39 347 74 534 39 448 b 143 90 39 246 74 161 b 396 -17 211 19 295 -17 b 647 90 496 -17 580 19 b 751 347 717 161 751 246 b 647 604 751 448 717 534 b 396 711 580 675 496 711 "},"Ŕ":{"ha":835,"x_min":0,"x_max":0,"o":"m 488 1043 l 661 1238 l 439 1238 l 290 1043 m 479 788 b 574 747 515 788 547 774 b 613 653 600 720 613 689 b 574 558 613 617 600 585 b 479 518 547 531 515 518 l 288 518 l 288 788 m 101 0 l 288 0 l 288 333 l 465 333 l 600 0 l 799 0 l 643 385 b 757 496 690 412 728 449 b 799 653 785 544 799 596 b 704 879 799 741 767 816 b 479 972 642 941 567 972 l 101 972 "},"ŕ":{"ha":525,"x_min":0,"x_max":0,"o":"m 329 779 l 503 974 l 279 974 l 131 779 m 76 0 l 261 0 l 261 317 b 344 471 272 383 300 435 b 507 526 390 508 444 526 l 507 711 b 344 674 446 711 392 699 b 271 621 318 660 293 642 b 260 610 267 617 264 613 b 250 599 257 606 254 602 l 250 694 l 76 694 "},"Ŗ":{"ha":835,"x_min":0,"x_max":0,"o":"m 443 -278 l 540 -67 l 351 -67 l 296 -278 m 479 788 b 574 747 515 788 547 774 b 613 653 600 720 613 689 b 574 558 613 617 600 585 b 479 518 547 531 515 518 l 288 518 l 288 788 m 101 0 l 288 0 l 288 333 l 465 333 l 600 0 l 799 0 l 643 385 b 757 496 690 412 728 449 b 799 653 785 544 799 596 b 704 879 799 741 767 816 b 479 972 642 941 567 972 l 101 972 "},"ŗ":{"ha":525,"x_min":0,"x_max":0,"o":"m 163 -278 l 261 -67 l 72 -67 l 17 -278 m 76 0 l 261 0 l 261 317 b 344 471 272 383 300 435 b 507 526 390 508 444 526 l 507 711 b 344 674 446 711 392 699 b 271 621 318 660 293 642 b 260 610 267 617 264 613 b 250 599 257 606 254 602 l 250 694 l 76 694 "},"Ř":{"ha":835,"x_min":0,"x_max":0,"o":"m 294 1043 l 503 1043 l 669 1236 l 481 1236 l 399 1149 l 317 1236 l 128 1236 m 479 788 b 574 747 515 788 547 774 b 613 653 600 720 613 689 b 574 558 613 617 600 585 b 479 518 547 531 515 518 l 288 518 l 288 788 m 101 0 l 288 0 l 288 333 l 465 333 l 600 0 l 799 0 l 643 385 b 757 496 690 412 728 449 b 799 653 785 544 799 596 b 704 879 799 741 767 816 b 479 972 642 941 567 972 l 101 972 "},"ř":{"ha":525,"x_min":0,"x_max":0,"o":"m 168 779 l 376 779 l 543 972 l 354 972 l 272 885 l 190 972 l 1 972 m 76 0 l 261 0 l 261 317 b 344 471 272 383 300 435 b 507 526 390 508 444 526 l 507 711 b 344 674 446 711 392 699 b 271 621 318 660 293 642 b 260 610 267 617 264 613 b 250 599 257 606 254 602 l 250 694 l 76 694 "},"Ś":{"ha":763,"x_min":0,"x_max":0,"o":"m 474 1043 l 647 1238 l 424 1238 l 275 1043 m 375 989 b 153 907 287 989 213 962 b 85 816 123 880 101 850 b 63 706 70 782 63 745 b 147 518 63 626 91 563 b 361 425 203 472 274 441 b 485 376 415 416 456 400 b 524 294 511 354 524 327 b 482 204 524 257 510 227 b 375 168 452 180 417 168 b 283 193 340 168 309 176 b 232 256 257 209 240 230 l 53 206 b 172 46 72 140 112 87 b 375 -17 231 4 299 -17 b 613 74 469 -17 548 13 b 710 294 677 134 710 207 b 619 501 710 381 680 450 b 388 604 559 554 482 588 b 275 647 336 613 298 628 b 249 706 257 663 249 682 b 283 776 249 735 260 759 b 375 804 307 795 338 804 b 453 786 406 804 431 798 b 493 735 474 773 488 756 l 672 786 b 564 932 655 846 619 895 b 375 989 509 970 446 989 "},"ś":{"ha":614,"x_min":0,"x_max":0,"o":"m 407 779 l 579 974 l 357 974 l 208 779 m 556 563 b 465 672 535 611 505 647 b 308 711 423 699 370 712 b 131 653 240 710 181 691 b 57 493 81 615 57 562 b 110 356 58 439 75 394 b 173 307 127 336 148 320 b 256 278 197 294 225 284 b 278 272 263 276 271 274 b 301 265 286 269 294 267 b 382 213 354 252 381 235 b 361 168 383 195 376 180 b 300 151 347 157 327 151 b 219 200 261 151 234 168 l 44 138 b 144 24 64 88 97 50 b 308 -17 193 -2 247 -16 b 485 35 381 -17 440 0 b 571 204 541 76 570 133 b 494 371 571 272 545 327 b 356 435 460 400 414 422 b 335 440 350 437 343 438 b 307 446 326 442 317 444 b 243 492 265 455 244 470 b 261 531 242 507 248 520 b 311 546 273 541 290 546 b 354 535 328 546 342 542 b 382 503 367 527 376 517 l 556 563 "},"Ŝ":{"ha":763,"x_min":0,"x_max":0,"o":"m 303 1043 l 385 1128 l 467 1043 l 657 1043 l 481 1236 l 289 1236 l 113 1043 m 375 989 b 153 907 287 989 213 962 b 85 816 123 880 101 850 b 63 706 70 782 63 745 b 147 518 63 626 91 563 b 361 425 203 472 274 441 b 485 376 415 416 456 400 b 524 294 511 354 524 327 b 482 204 524 257 510 227 b 375 168 452 180 417 168 b 283 193 340 168 309 176 b 232 256 257 209 240 230 l 53 206 b 172 46 72 140 112 87 b 375 -17 231 4 299 -17 b 613 74 469 -17 548 13 b 710 294 677 134 710 207 b 619 501 710 381 680 450 b 388 604 559 554 482 588 b 275 647 336 613 298 628 b 249 706 257 663 249 682 b 283 776 249 735 260 759 b 375 804 307 795 338 804 b 453 786 406 804 431 798 b 493 735 474 773 488 756 l 672 786 b 564 932 655 846 619 895 b 375 989 509 970 446 989 "},"ŝ":{"ha":614,"x_min":0,"x_max":0,"o":"m 231 779 l 313 864 l 394 779 l 585 779 l 408 972 l 215 972 l 40 779 m 556 563 b 465 672 535 611 505 647 b 308 711 423 699 370 712 b 131 653 240 710 181 691 b 57 493 81 615 57 562 b 110 356 58 439 75 394 b 173 307 127 336 148 320 b 256 278 197 294 225 284 b 278 272 263 276 271 274 b 301 265 286 269 294 267 b 382 213 354 252 381 235 b 361 168 383 195 376 180 b 300 151 347 157 327 151 b 219 200 261 151 234 168 l 44 138 b 144 24 64 88 97 50 b 308 -17 193 -2 247 -16 b 485 35 381 -17 440 0 b 571 204 541 76 570 133 b 494 371 571 272 545 327 b 356 435 460 400 414 422 b 335 440 350 437 343 438 b 307 446 326 442 317 444 b 243 492 265 455 244 470 b 261 531 242 507 248 520 b 311 546 273 541 290 546 b 354 535 328 546 342 542 b 382 503 367 527 376 517 l 556 563 "},"Ş":{"ha":763,"x_min":0,"x_max":0,"o":"m 385 1 b 425 -26 401 -2 415 -12 b 443 -74 437 -40 443 -56 b 419 -131 443 -96 435 -115 b 363 -154 404 -146 385 -154 b 311 -133 343 -154 326 -147 l 290 -162 b 229 -246 276 -181 256 -209 b 363 -292 268 -276 313 -292 b 515 -228 423 -292 474 -270 b 581 -74 559 -185 581 -134 b 503 92 581 -7 555 48 m 375 989 b 153 907 287 989 213 962 b 85 816 123 880 101 850 b 63 706 70 782 63 745 b 147 518 63 626 91 563 b 361 425 203 472 274 441 b 485 376 415 416 456 400 b 524 294 511 354 524 327 b 482 204 524 257 510 227 b 375 168 452 180 417 168 b 283 193 340 168 309 176 b 232 256 257 209 240 230 l 53 206 b 172 46 72 140 112 87 b 375 -17 231 4 299 -17 b 613 74 469 -17 548 13 b 710 294 677 134 710 207 b 619 501 710 381 680 450 b 388 604 559 554 482 588 b 275 647 336 613 298 628 b 249 706 257 663 249 682 b 283 776 249 735 260 759 b 375 804 307 795 338 804 b 453 786 406 804 431 798 b 493 735 474 773 488 756 l 672 786 b 564 932 655 846 619 895 b 375 989 509 970 446 989 "},"ş":{"ha":614,"x_min":0,"x_max":0,"o":"m 304 3 b 346 -25 321 -2 335 -11 b 361 -74 356 -39 361 -55 b 339 -129 361 -96 354 -114 b 282 -153 323 -145 304 -153 b 229 -133 262 -153 244 -146 l 209 -161 l 149 -244 b 282 -290 187 -275 231 -290 b 435 -226 341 -290 392 -269 b 499 -74 477 -184 499 -133 b 422 93 499 -6 473 50 m 556 563 b 465 672 535 611 505 647 b 308 711 423 699 370 712 b 131 653 240 710 181 691 b 57 493 81 615 57 562 b 110 356 58 439 75 394 b 173 307 127 336 148 320 b 256 278 197 294 225 284 b 278 272 263 276 271 274 b 301 265 286 269 294 267 b 382 213 354 252 381 235 b 361 168 383 195 376 180 b 300 151 347 157 327 151 b 219 200 261 151 234 168 l 44 138 b 144 24 64 88 97 50 b 308 -17 193 -2 247 -16 b 485 35 381 -17 440 0 b 571 204 541 76 570 133 b 494 371 571 272 545 327 b 356 435 460 400 414 422 b 335 440 350 437 343 438 b 307 446 326 442 317 444 b 243 492 265 455 244 470 b 261 531 242 507 248 520 b 311 546 273 541 290 546 b 354 535 328 546 342 542 b 382 503 367 527 376 517 l 556 563 "},"Š":{"ha":763,"x_min":0,"x_max":0,"o":"m 274 1043 l 483 1043 l 649 1236 l 461 1236 l 379 1149 l 296 1236 l 108 1236 m 375 989 b 153 907 287 989 213 962 b 85 816 123 880 101 850 b 63 706 70 782 63 745 b 147 518 63 626 91 563 b 361 425 203 472 274 441 b 485 376 415 416 456 400 b 524 294 511 354 524 327 b 482 204 524 257 510 227 b 375 168 452 180 417 168 b 283 193 340 168 309 176 b 232 256 257 209 240 230 l 53 206 b 172 46 72 140 112 87 b 375 -17 231 4 299 -17 b 613 74 469 -17 548 13 b 710 294 677 134 710 207 b 619 501 710 381 680 450 b 388 604 559 554 482 588 b 275 647 336 613 298 628 b 249 706 257 663 249 682 b 283 776 249 735 260 759 b 375 804 307 795 338 804 b 453 786 406 804 431 798 b 493 735 474 773 488 756 l 672 786 b 564 932 655 846 619 895 b 375 989 509 970 446 989 "},"š":{"ha":614,"x_min":0,"x_max":0,"o":"m 218 779 l 426 779 l 593 972 l 404 972 l 322 885 l 240 972 l 51 972 m 556 563 b 465 672 535 611 505 647 b 308 711 423 699 370 712 b 131 653 240 710 181 691 b 57 493 81 615 57 562 b 110 356 58 439 75 394 b 173 307 127 336 148 320 b 256 278 197 294 225 284 b 278 272 263 276 271 274 b 301 265 286 269 294 267 b 382 213 354 252 381 235 b 361 168 383 195 376 180 b 300 151 347 157 327 151 b 219 200 261 151 234 168 l 44 138 b 144 24 64 88 97 50 b 308 -17 193 -2 247 -16 b 485 35 381 -17 440 0 b 571 204 541 76 570 133 b 494 371 571 272 545 327 b 356 435 460 400 414 422 b 335 440 350 437 343 438 b 307 446 326 442 317 444 b 243 492 265 455 244 470 b 261 531 242 507 248 520 b 311 546 273 541 290 546 b 354 535 328 546 342 542 b 382 503 367 527 376 517 l 556 563 "},"Ţ":{"ha":819,"x_min":0,"x_max":0,"o":"m 21 788 l 318 788 l 318 0 l 503 0 l 503 788 l 799 788 l 799 972 l 21 972 m 371 7 b 393 -4 379 4 387 0 b 411 -22 400 -9 406 -15 b 428 -69 422 -36 428 -52 b 404 -126 428 -92 420 -111 b 347 -150 389 -142 370 -150 b 296 -129 328 -150 311 -143 l 275 -158 b 215 -242 261 -177 241 -205 b 347 -287 253 -272 297 -287 b 501 -222 407 -287 459 -266 b 565 -69 544 -181 565 -130 b 489 97 565 -3 540 53 "},"ţ":{"ha":529,"x_min":0,"x_max":0,"o":"m 129 694 l 18 694 l 18 510 l 129 510 l 129 310 b 219 92 129 225 159 152 b 439 0 281 31 354 0 l 493 0 l 493 185 l 439 185 b 350 222 405 185 375 197 b 314 310 326 246 314 275 l 314 510 l 493 510 l 493 694 l 314 694 l 314 911 l 129 911 m 375 13 b 415 -17 391 8 404 -2 b 432 -64 426 -31 432 -46 b 408 -121 432 -86 424 -105 b 351 -144 393 -137 374 -144 b 300 -124 332 -144 315 -137 l 279 -152 b 218 -236 265 -171 245 -199 b 351 -282 257 -267 301 -282 b 506 -217 412 -282 463 -260 b 569 -64 548 -175 569 -124 b 493 103 569 3 544 58 "},"Ť":{"ha":819,"x_min":0,"x_max":0,"o":"m 299 1043 l 507 1043 l 674 1236 l 485 1236 l 403 1149 l 319 1236 l 132 1236 m 21 788 l 318 788 l 318 0 l 503 0 l 503 788 l 799 788 l 799 972 l 21 972 "},"ť":{"ha":594,"x_min":0,"x_max":0,"o":"m 129 694 l 18 694 l 18 510 l 129 510 l 129 310 b 219 92 129 225 159 152 b 439 0 281 31 354 0 l 493 0 l 493 185 l 439 185 b 350 222 405 185 375 197 b 314 310 326 246 314 275 l 314 510 l 493 510 l 493 694 l 314 694 l 314 911 l 129 911 m 506 765 l 576 983 l 404 983 l 360 765 "},"Ŧ":{"ha":819,"x_min":0,"x_max":0,"o":"m 21 788 l 318 788 l 318 0 l 503 0 l 503 788 l 799 788 l 799 972 l 21 972 m 669 335 l 669 519 l 157 519 l 157 335 "},"ŧ":{"ha":529,"x_min":0,"x_max":0,"o":"m 129 694 l 18 694 l 18 510 l 129 510 l 129 310 b 219 92 129 225 159 152 b 439 0 281 31 354 0 l 493 0 l 493 185 l 439 185 b 350 222 405 185 375 197 b 314 310 326 246 314 275 l 314 510 l 493 510 l 493 694 l 314 694 l 314 911 l 129 911 m 486 308 l 486 436 l 24 436 l 24 308 "},"Ũ":{"ha":976,"x_min":0,"x_max":0,"o":"m 88 425 b 204 107 88 295 126 189 b 488 -17 281 25 375 -17 b 772 107 600 -17 695 25 b 860 249 811 149 840 196 b 889 425 879 301 889 360 l 889 972 l 703 972 l 703 425 b 642 239 703 347 682 285 b 488 168 600 192 549 168 b 336 239 427 168 377 192 b 274 425 294 285 274 347 l 274 972 l 88 972 m 582 1004 b 700 1056 628 1004 668 1021 b 758 1182 732 1088 752 1130 l 624 1182 b 582 1129 618 1147 604 1129 b 547 1144 568 1129 556 1134 b 533 1160 543 1149 538 1154 b 518 1179 529 1166 524 1173 b 394 1229 488 1213 447 1229 b 275 1178 350 1229 310 1212 b 218 1051 241 1144 222 1102 l 353 1051 b 400 1104 361 1087 377 1104 b 436 1089 414 1104 426 1099 b 450 1073 441 1084 445 1079 b 465 1054 455 1067 460 1061 b 582 1004 491 1021 530 1004 "},"ũ":{"ha":779,"x_min":0,"x_max":0,"o":"m 65 333 b 160 83 65 232 97 149 b 390 -17 223 17 300 -17 b 621 83 481 -17 558 17 b 715 333 684 149 715 232 l 715 694 l 531 694 l 531 326 b 490 213 531 279 517 241 b 390 168 463 183 430 168 b 290 213 350 168 317 183 b 250 326 263 241 250 279 l 250 694 l 65 694 m 488 760 b 607 810 534 760 574 776 b 664 938 639 842 658 885 l 529 938 b 488 883 524 901 510 883 b 453 899 474 883 462 888 b 440 915 449 903 445 909 b 424 933 434 921 429 927 b 300 983 395 967 354 983 b 181 932 256 983 216 966 b 124 806 146 899 127 856 l 258 806 b 306 860 267 842 282 860 b 342 844 319 860 331 855 b 356 828 346 840 351 834 b 371 810 360 822 365 816 b 488 760 397 776 436 760 "},"Ū":{"ha":976,"x_min":0,"x_max":0,"o":"m 715 1040 l 715 1208 l 263 1208 l 263 1040 m 88 425 b 204 107 88 295 126 189 b 488 -17 281 25 375 -17 b 772 107 600 -17 695 25 b 860 249 811 149 840 196 b 889 425 879 301 889 360 l 889 972 l 703 972 l 703 425 b 642 239 703 347 682 285 b 488 168 600 192 549 168 b 336 239 427 168 377 192 b 274 425 294 285 274 347 l 274 972 l 88 972 "},"ū":{"ha":779,"x_min":0,"x_max":0,"o":"m 621 776 l 621 944 l 168 944 l 168 776 m 65 333 b 160 83 65 232 97 149 b 390 -17 223 17 300 -17 b 621 83 481 -17 558 17 b 715 333 684 149 715 232 l 715 694 l 531 694 l 531 326 b 490 213 531 279 517 241 b 390 168 463 183 430 168 b 290 213 350 168 317 183 b 250 326 263 241 250 279 l 250 694 l 65 694 "},"Ŭ":{"ha":976,"x_min":0,"x_max":0,"o":"m 257 1236 b 324 1089 257 1179 279 1130 b 490 1029 367 1049 423 1029 b 657 1089 557 1029 613 1049 b 722 1236 700 1130 722 1179 l 578 1236 b 551 1188 578 1217 569 1200 b 490 1167 535 1174 514 1167 b 428 1188 466 1167 445 1174 b 403 1236 411 1200 403 1217 l 257 1236 m 88 425 b 204 107 88 295 126 189 b 488 -17 281 25 375 -17 b 772 107 600 -17 695 25 b 860 249 811 149 840 196 b 889 425 879 301 889 360 l 889 972 l 703 972 l 703 425 b 642 239 703 347 682 285 b 488 168 600 192 549 168 b 336 239 427 168 377 192 b 274 425 294 285 274 347 l 274 972 l 88 972 "},"ŭ":{"ha":779,"x_min":0,"x_max":0,"o":"m 161 972 b 228 825 161 915 183 866 b 394 765 271 785 327 765 b 560 825 461 765 516 785 b 626 972 604 866 626 915 l 481 972 b 456 924 481 953 472 937 b 393 903 438 910 417 903 b 332 924 369 903 349 910 b 306 972 314 937 306 953 l 161 972 m 65 333 b 160 83 65 232 97 149 b 390 -17 223 17 300 -17 b 621 83 481 -17 558 17 b 715 333 684 149 715 232 l 715 694 l 531 694 l 531 326 b 490 213 531 279 517 241 b 390 168 463 183 430 168 b 290 213 350 168 317 183 b 250 326 263 241 250 279 l 250 694 l 65 694 "},"Ů":{"ha":976,"x_min":0,"x_max":0,"o":"m 489 1325 b 375 1278 444 1325 406 1309 b 329 1167 344 1247 329 1210 b 375 1053 329 1122 344 1084 b 489 1006 406 1021 444 1006 b 601 1053 532 1006 570 1021 b 649 1167 633 1084 649 1122 b 601 1278 649 1210 633 1247 b 489 1325 571 1309 533 1325 m 489 1214 b 524 1200 502 1214 513 1209 b 538 1167 533 1191 538 1180 b 524 1132 538 1153 533 1141 b 489 1117 513 1122 502 1117 b 454 1132 476 1117 464 1122 b 440 1167 445 1141 440 1153 b 454 1200 440 1180 445 1191 b 489 1214 464 1209 476 1214 m 88 425 b 204 107 88 295 126 189 b 488 -17 281 25 375 -17 b 772 107 600 -17 695 25 b 860 249 811 149 840 196 b 889 425 879 301 889 360 l 889 972 l 703 972 l 703 425 b 642 239 703 347 682 285 b 488 168 600 192 549 168 b 336 239 427 168 377 192 b 274 425 294 285 274 347 l 274 972 l 88 972 "},"ů":{"ha":779,"x_min":0,"x_max":0,"o":"m 394 1061 b 282 1014 350 1061 313 1045 b 236 903 251 983 236 946 b 282 789 236 858 251 820 b 394 742 313 757 350 742 b 508 789 439 742 477 757 b 554 903 539 820 554 858 b 508 1014 554 946 539 983 b 394 1061 477 1045 439 1061 m 394 950 b 429 936 407 950 419 945 b 443 903 438 927 443 916 b 429 868 443 889 438 877 b 394 853 419 858 407 853 b 360 868 381 853 370 858 b 346 903 350 877 346 889 b 360 936 346 916 350 927 b 394 950 370 945 381 950 m 65 333 b 160 83 65 232 97 149 b 390 -17 223 17 300 -17 b 621 83 481 -17 558 17 b 715 333 684 149 715 232 l 715 694 l 531 694 l 531 326 b 490 213 531 279 517 241 b 390 168 463 183 430 168 b 290 213 350 168 317 183 b 250 326 263 241 250 279 l 250 694 l 65 694 "},"Ű":{"ha":976,"x_min":0,"x_max":0,"o":"m 721 1043 l 876 1236 l 678 1236 l 547 1043 m 436 1043 l 589 1236 l 390 1236 l 264 1043 m 88 425 b 204 107 88 295 126 189 b 488 -17 281 25 375 -17 b 772 107 600 -17 695 25 b 860 249 811 149 840 196 b 889 425 879 301 889 360 l 889 972 l 703 972 l 703 425 b 642 239 703 347 682 285 b 488 168 600 192 549 168 b 336 239 427 168 377 192 b 274 425 294 285 274 347 l 274 972 l 88 972 "},"ű":{"ha":779,"x_min":0,"x_max":0,"o":"m 631 779 l 785 972 l 586 972 l 457 779 m 346 779 l 499 972 l 300 972 l 174 779 m 65 333 b 160 83 65 232 97 149 b 390 -17 223 17 300 -17 b 621 83 481 -17 558 17 b 715 333 684 149 715 232 l 715 694 l 531 694 l 531 326 b 490 213 531 279 517 241 b 390 168 463 183 430 168 b 290 213 350 168 317 183 b 250 326 263 241 250 279 l 250 694 l 65 694 "},"Ų":{"ha":976,"x_min":0,"x_max":0,"o":"m 88 425 b 204 107 88 295 126 189 b 488 -17 281 25 375 -17 b 772 107 600 -17 695 25 b 860 249 811 149 840 196 b 889 425 879 301 889 360 l 889 972 l 703 972 l 703 425 b 642 239 703 347 682 285 b 488 168 600 192 549 168 b 336 239 427 168 377 192 b 274 425 294 285 274 347 l 274 972 l 88 972 m 603 -142 b 600 -144 602 -143 601 -143 b 599 -146 599 -144 599 -145 b 574 -156 591 -152 583 -156 b 549 -146 564 -156 556 -152 b 538 -121 541 -138 538 -130 b 549 -96 538 -111 541 -102 l 675 31 l 507 31 b 480 16 497 26 488 21 b 460 -1 472 11 465 5 b 408 -122 425 -35 408 -75 b 457 -237 408 -167 425 -205 b 574 -286 489 -270 528 -286 b 690 -237 619 -286 658 -270 b 701 -228 694 -235 697 -231 b 710 -217 704 -224 707 -220 "},"ų":{"ha":779,"x_min":0,"x_max":0,"o":"m 471 -149 b 469 -151 470 -150 469 -150 b 467 -154 468 -152 468 -153 b 443 -164 460 -161 452 -164 b 418 -154 433 -164 425 -161 b 407 -129 411 -147 407 -138 b 410 -116 407 -125 408 -120 b 418 -104 412 -112 414 -108 l 544 22 l 376 22 b 329 -8 356 14 340 4 b 276 -129 294 -43 276 -83 b 325 -246 276 -175 293 -213 b 443 -294 357 -278 397 -294 b 560 -246 488 -294 527 -278 b 569 -235 563 -242 566 -239 b 579 -224 572 -232 575 -228 m 65 333 b 160 83 65 232 97 149 b 390 -17 223 17 300 -17 b 621 83 481 -17 558 17 b 715 333 684 149 715 232 l 715 694 l 531 694 l 531 326 b 490 213 531 279 517 241 b 390 168 463 183 430 168 b 290 213 350 168 317 183 b 250 326 263 241 250 279 l 250 694 l 65 694 "},"Ŵ":{"ha":1311,"x_min":0,"x_max":0,"o":"m 551 1015 l 633 1100 l 715 1015 l 907 1015 l 729 1208 l 538 1208 l 361 1015 m 929 353 l 754 972 l 557 972 l 383 353 l 207 972 l 11 972 l 286 0 l 481 0 l 656 618 l 832 0 l 1028 0 l 1300 972 l 1103 972 "},"ŵ":{"ha":1135,"x_min":0,"x_max":0,"o":"m 475 779 l 557 864 l 639 779 l 829 779 l 653 972 l 461 972 l 285 779 m 793 297 l 665 694 l 471 694 l 336 297 l 208 694 l 14 694 l 238 0 l 432 0 l 567 397 l 694 0 l 889 0 l 1122 694 l 928 694 "},"Ŷ":{"ha":831,"x_min":0,"x_max":0,"o":"m 329 1015 l 411 1100 l 493 1015 l 683 1015 l 507 1208 l 315 1208 l 139 1015 m 324 433 l 324 0 l 508 0 l 508 433 l 821 972 l 604 972 l 417 647 l 228 972 l 10 972 "},"ŷ":{"ha":804,"x_min":0,"x_max":0,"o":"m 318 779 l 400 864 l 482 779 l 672 779 l 496 972 l 304 972 l 128 779 m 308 6 l 290 -36 b 244 -90 280 -59 265 -77 b 171 -110 223 -103 199 -110 l 93 -110 l 93 -294 l 171 -294 b 344 -243 234 -294 292 -277 b 413 -185 370 -226 393 -207 b 461 -110 432 -162 448 -137 l 799 694 l 597 694 l 407 240 l 208 694 l 7 694 "},"Ÿ":{"ha":831,"x_min":0,"x_max":0,"o":"m 236 1254 b 165 1225 208 1254 185 1244 b 136 1154 146 1206 136 1182 b 165 1085 136 1127 146 1104 b 236 1054 186 1064 209 1054 b 307 1085 264 1054 288 1064 b 336 1154 326 1104 336 1127 b 307 1225 336 1182 326 1206 b 236 1254 288 1244 264 1254 m 599 1254 b 528 1225 571 1254 547 1244 b 499 1154 508 1206 499 1182 b 528 1085 499 1127 508 1104 b 599 1054 547 1064 571 1054 b 669 1085 625 1054 649 1064 b 699 1154 689 1104 699 1127 b 669 1225 699 1182 689 1206 b 599 1254 650 1244 626 1254 m 324 433 l 324 0 l 508 0 l 508 433 l 821 972 l 604 972 l 417 647 l 228 972 l 10 972 "},"Ź":{"ha":839,"x_min":0,"x_max":0,"o":"m 510 1043 l 682 1238 l 460 1238 l 311 1043 m 785 0 l 785 185 l 297 185 l 789 788 l 789 972 l 56 972 l 56 788 l 543 788 l 51 185 l 51 0 "},"ź":{"ha":636,"x_min":0,"x_max":0,"o":"m 386 779 l 558 974 l 336 974 l 188 779 m 594 0 l 594 185 l 303 185 l 594 510 l 594 694 l 42 694 l 42 510 l 335 510 l 42 185 l 42 0 "},"Ż":{"ha":839,"x_min":0,"x_max":0,"o":"m 542 1174 b 510 1253 542 1205 531 1231 b 431 1285 488 1274 461 1285 b 353 1253 400 1285 374 1274 b 319 1174 331 1231 319 1205 b 353 1096 319 1143 331 1117 b 431 1063 374 1074 400 1063 b 510 1096 461 1063 488 1074 b 542 1174 531 1117 542 1143 m 785 0 l 785 185 l 297 185 l 789 788 l 789 972 l 56 972 l 56 788 l 543 788 l 51 185 l 51 0 "},"ż":{"ha":636,"x_min":0,"x_max":0,"o":"m 422 910 b 390 989 422 941 412 968 b 311 1021 369 1010 343 1021 b 233 989 281 1021 255 1010 b 200 910 211 968 200 941 b 233 832 200 879 211 853 b 311 799 255 810 281 799 b 390 832 342 799 368 810 b 422 910 412 853 422 879 m 594 0 l 594 185 l 303 185 l 594 510 l 594 694 l 42 694 l 42 510 l 335 510 l 42 185 l 42 0 "},"Ž":{"ha":839,"x_min":0,"x_max":0,"o":"m 329 1043 l 538 1043 l 704 1236 l 515 1236 l 433 1149 l 351 1236 l 163 1236 m 785 0 l 785 185 l 297 185 l 789 788 l 789 972 l 56 972 l 56 788 l 543 788 l 51 185 l 51 0 "},"ž":{"ha":636,"x_min":0,"x_max":0,"o":"m 211 779 l 419 779 l 586 972 l 397 972 l 315 885 l 233 972 l 44 972 m 594 0 l 594 185 l 303 185 l 594 510 l 594 694 l 42 694 l 42 510 l 335 510 l 42 185 l 42 0 "},"ſ":{"ha":458,"x_min":0,"x_max":0,"o":"m 357 1000 b 167 921 283 1000 219 974 b 88 732 114 869 88 806 l 88 0 l 274 0 l 274 732 b 299 790 274 754 282 774 b 357 815 314 807 334 815 l 456 815 l 456 1000 l 357 1000 "},"Ɔ":{"ha":922,"x_min":0,"x_max":0,"o":"m 385 989 b 738 839 525 989 643 939 b 842 677 784 790 819 736 b 876 486 865 618 876 555 b 842 294 876 417 865 353 b 739 133 819 236 784 182 b 385 -17 644 32 525 -18 b 192 24 316 -17 252 -3 b 106 71 161 37 133 52 b 33 133 80 89 56 110 l 164 265 b 385 168 223 200 297 168 b 603 261 471 168 544 199 b 692 486 662 323 692 398 b 603 710 692 573 662 648 b 385 804 544 773 471 804 b 163 707 297 803 223 771 l 32 838 b 106 901 54 862 79 883 b 190 949 132 920 161 936 b 285 978 221 962 252 972 b 385 989 317 985 350 989 "},"Ǝ":{"ha":817,"x_min":0,"x_max":0,"o":"m 101 0 l 101 185 l 544 185 l 544 399 l 197 399 l 197 583 l 544 583 l 544 788 l 103 788 l 103 972 l 729 972 l 729 0 "},"Ə":{"ha":1075,"x_min":0,"x_max":0,"o":"m 538 989 b 438 978 503 988 470 984 b 344 950 405 972 374 963 b 258 902 314 936 285 920 b 183 838 231 884 206 863 l 315 707 b 538 804 375 771 450 803 b 718 740 606 803 666 782 b 825 579 771 698 806 644 l 46 579 l 46 486 b 181 135 46 349 91 232 b 538 -17 276 34 395 -17 b 881 122 673 -17 787 30 b 1029 486 980 221 1029 343 b 890 839 1029 623 983 741 b 538 989 796 939 678 989 m 824 393 b 718 232 806 328 771 275 b 538 168 666 189 606 168 b 356 232 468 168 407 189 b 250 393 303 275 268 328 "},"ƒ":{"ha":553,"x_min":0,"x_max":0,"o":"m 164 25 b 118 -89 164 -19 149 -57 b 4 -136 87 -120 49 -136 l 4 -321 b 249 -219 100 -321 181 -287 b 350 25 316 -152 350 -70 l 350 38 l 164 38 m 433 1038 b 243 958 359 1038 296 1011 b 164 769 190 906 164 843 l 164 732 l 51 732 l 51 546 l 164 546 l 164 38 l 350 38 l 350 546 l 532 546 l 532 732 l 350 732 l 350 769 b 375 828 350 792 358 811 b 433 851 391 844 410 851 l 532 851 l 532 1038 l 433 1038 "},"Ɲ":{"ha":1000,"x_min":0,"x_max":0,"o":"m 101 0 l 288 0 l 288 635 l 713 0 l 899 0 l 899 972 l 713 972 l 713 338 l 288 972 l 101 972 m 101 -17 b 74 -83 101 -43 92 -65 b 6 -112 55 -103 32 -112 l -43 -112 l -43 -297 l 6 -297 b 206 -214 83 -297 150 -269 b 288 -17 260 -159 288 -94 l 288 0 l 101 0 "},"Ơ":{"ha":1075,"x_min":0,"x_max":0,"o":"m 874 696 b 1008 758 925 700 969 720 b 1057 830 1030 781 1046 804 b 1074 914 1068 855 1074 883 b 1025 1051 1075 967 1058 1013 l 915 968 b 935 913 930 952 937 934 b 910 857 934 891 925 873 b 890 842 903 850 897 845 b 865 835 883 838 875 836 m 538 804 b 756 710 624 804 696 773 b 844 486 815 648 844 573 b 756 261 844 398 815 323 b 538 168 696 199 624 168 b 319 261 451 168 379 199 b 232 486 261 323 232 398 b 253 608 232 530 239 570 b 319 710 268 645 290 679 b 538 804 379 773 451 804 m 538 989 b 186 840 399 989 281 939 b 46 486 93 743 46 625 b 186 131 46 347 93 229 b 538 -17 281 32 398 -17 b 883 125 675 -17 790 31 b 1029 486 981 223 1029 344 b 886 844 1029 627 981 746 b 538 989 792 941 675 989 "},"ơ":{"ha":790,"x_min":0,"x_max":0,"o":"m 601 471 b 722 528 648 475 688 494 b 789 682 766 571 788 623 b 740 819 790 735 774 781 l 629 736 b 650 682 644 721 651 703 b 624 625 649 660 640 641 b 608 613 619 620 614 616 b 588 607 602 610 595 608 m 396 526 b 517 474 444 526 484 509 b 565 347 549 439 565 397 b 517 221 565 297 549 255 b 396 168 484 186 444 168 b 274 221 347 168 306 186 b 225 347 241 255 225 297 b 274 474 225 397 241 439 b 396 526 306 509 347 526 m 396 711 b 143 604 295 711 211 675 b 39 347 74 534 39 448 b 143 90 39 246 74 161 b 396 -17 211 19 295 -17 b 647 90 496 -17 580 19 b 751 347 717 161 751 246 b 647 604 751 448 717 534 b 396 711 580 675 496 711 "},"Ư":{"ha":976,"x_min":0,"x_max":0,"o":"m 775 831 b 908 893 826 834 870 855 b 957 965 930 915 946 939 b 975 1047 968 990 974 1018 b 925 1185 975 1100 958 1146 l 815 1101 b 836 1047 830 1087 837 1069 b 810 990 834 1025 825 1006 b 790 976 804 985 798 980 b 767 968 783 973 775 970 m 88 425 b 204 107 88 295 126 189 b 488 -17 281 25 375 -17 b 772 107 600 -17 695 25 b 889 425 850 189 889 295 l 889 972 l 703 972 l 703 425 b 642 239 703 347 682 285 b 488 168 600 192 549 168 b 336 239 427 168 377 192 b 274 425 294 285 274 347 l 274 972 l 88 972 "},"ư":{"ha":779,"x_min":0,"x_max":0,"o":"m 590 557 b 656 574 613 559 635 564 b 713 613 676 583 695 596 b 778 768 756 657 778 709 b 729 906 779 821 763 867 l 619 822 b 639 767 634 806 641 788 b 614 711 638 745 630 727 b 598 699 609 706 604 701 b 578 693 592 696 585 694 m 65 333 b 160 83 65 232 97 149 b 390 -17 223 17 300 -17 b 621 83 481 -17 558 17 b 715 333 684 149 715 232 l 715 694 l 531 694 l 531 326 b 520 262 531 302 527 281 b 490 213 513 243 503 226 b 445 179 476 198 461 187 b 390 168 429 172 411 168 b 290 213 350 168 317 183 b 250 326 263 241 250 279 l 250 694 l 65 694 "},"Ǎ":{"ha":917,"x_min":0,"x_max":0,"o":"m 347 1043 l 556 1043 l 722 1236 l 533 1236 l 451 1149 l 368 1236 l 181 1236 m 453 700 l 575 367 l 336 367 m 643 181 l 708 0 l 906 0 l 547 972 l 354 972 l 11 0 l 208 0 l 272 181 "},"ǎ":{"ha":831,"x_min":0,"x_max":0,"o":"m 297 779 l 506 779 l 672 972 l 483 972 l 401 885 l 318 972 l 131 972 m 590 619 b 582 630 588 623 585 627 b 574 639 579 633 576 636 b 385 711 524 687 461 711 b 138 606 286 711 203 676 b 39 347 72 535 39 449 b 138 89 39 245 72 159 b 385 -17 203 19 286 -17 b 572 51 462 -17 524 6 b 581 60 576 54 579 57 b 590 69 584 64 587 67 l 590 0 l 754 0 l 754 694 l 590 694 m 400 528 b 522 476 449 528 490 511 b 557 418 537 459 549 439 b 569 347 565 397 569 373 b 557 277 569 322 565 299 b 522 219 549 255 537 236 b 400 167 490 184 449 167 b 276 219 350 167 309 184 b 228 347 244 255 228 297 b 276 476 228 398 244 441 b 400 528 309 511 350 528 "},"ǝ":{"ha":757,"x_min":0,"x_max":0,"o":"m 32 347 b 56 205 32 295 40 248 b 126 89 71 162 95 123 b 369 -17 192 19 273 -17 b 622 90 469 -17 554 19 b 725 347 691 161 725 246 b 618 604 725 448 689 534 b 360 711 546 675 460 711 b 85 606 246 711 154 676 l 214 474 b 360 526 249 509 298 526 b 463 492 399 526 433 515 b 494 459 475 482 485 472 b 514 417 503 447 509 432 l 32 417 m 372 160 b 282 190 336 160 306 170 b 238 268 262 210 247 236 l 518 268 b 471 193 509 238 493 213 b 372 160 443 171 410 160 "},"Ǫ":{"ha":1075,"x_min":0,"x_max":0,"o":"m 600 -149 l 597 -151 b 596 -154 596 -152 596 -153 b 571 -164 588 -161 580 -164 b 546 -154 562 -164 553 -161 b 535 -129 538 -147 535 -138 b 546 -104 535 -119 538 -111 l 672 22 l 504 22 b 457 -8 485 14 469 4 b 406 -129 423 -43 406 -83 b 454 -246 406 -175 422 -213 b 571 -294 487 -278 525 -294 b 688 -246 616 -294 655 -278 b 697 -235 691 -242 694 -239 b 707 -224 700 -232 703 -228 m 538 804 b 756 710 624 804 696 773 b 844 486 815 648 844 573 b 756 261 844 398 815 323 b 538 168 696 199 624 168 b 319 261 451 168 379 199 b 232 486 261 323 232 398 b 253 608 232 530 239 570 b 319 710 268 645 290 679 b 538 804 379 773 451 804 m 538 989 b 186 840 399 989 281 939 b 46 486 93 743 46 625 b 186 131 46 347 93 229 b 538 -17 281 32 398 -17 b 883 125 675 -17 790 31 b 1029 486 981 223 1029 344 b 886 844 1029 627 981 746 b 538 989 792 941 675 989 "},"ǫ":{"ha":790,"x_min":0,"x_max":0,"o":"m 463 -149 b 460 -151 462 -150 461 -150 b 458 -154 460 -152 459 -153 b 433 -164 451 -161 443 -164 b 410 -154 424 -164 416 -161 b 399 -129 402 -147 399 -138 b 410 -104 399 -119 402 -111 l 535 22 l 368 22 b 319 -8 348 14 331 4 b 268 -129 285 -43 268 -83 b 317 -246 268 -175 284 -213 b 433 -294 349 -278 388 -294 b 550 -246 479 -294 518 -278 l 560 -235 b 569 -224 564 -232 567 -228 m 396 526 b 517 474 444 526 484 509 b 565 347 549 439 565 397 b 517 221 565 297 549 255 b 396 168 484 186 444 168 b 274 221 347 168 306 186 b 225 347 241 255 225 297 b 274 474 225 397 241 439 b 396 526 306 509 347 526 m 396 711 b 143 604 295 711 211 675 b 39 347 74 534 39 448 b 143 90 39 246 74 161 b 396 -17 211 19 295 -17 b 647 90 496 -17 580 19 b 751 347 717 161 751 246 b 647 604 751 448 717 534 b 396 711 580 675 496 711 "},"Ș":{"ha":763,"x_min":0,"x_max":0,"o":"m 390 -278 l 488 -67 l 300 -67 l 244 -278 m 375 989 b 153 907 287 989 213 962 b 85 816 123 880 101 850 b 63 706 70 782 63 745 b 147 518 63 626 91 563 b 361 425 203 472 274 441 b 485 376 415 416 456 400 b 524 294 511 354 524 327 b 482 204 524 257 510 227 b 375 168 452 180 417 168 b 283 193 340 168 309 176 b 232 256 257 209 240 230 l 53 206 b 172 46 72 140 112 87 b 375 -17 231 4 299 -17 b 613 74 469 -17 548 13 b 710 294 677 134 710 207 b 619 501 710 381 680 450 b 388 604 559 554 482 588 b 275 647 336 613 298 628 b 249 706 257 663 249 682 b 283 776 249 735 260 759 b 375 804 307 795 338 804 b 453 786 406 804 431 798 b 493 735 474 773 488 756 l 672 786 b 564 932 655 846 619 895 b 375 989 509 970 446 989 "},"ș":{"ha":614,"x_min":0,"x_max":0,"o":"m 324 -276 l 421 -65 l 232 -65 l 176 -276 m 556 563 b 465 672 535 611 505 647 b 308 711 423 699 370 712 b 131 653 240 710 181 691 b 57 493 81 615 57 562 b 110 356 58 439 75 394 b 173 307 127 336 148 320 b 256 278 197 294 225 284 b 278 272 263 276 271 274 b 301 265 286 269 294 267 b 382 213 354 252 381 235 b 361 168 383 195 376 180 b 300 151 347 157 327 151 b 219 200 261 151 234 168 l 44 138 b 144 24 64 88 97 50 b 308 -17 193 -2 247 -16 b 485 35 381 -17 440 0 b 571 204 541 76 570 133 b 494 371 571 272 545 327 b 356 435 460 400 414 422 b 335 440 350 437 343 438 b 307 446 326 442 317 444 b 243 492 265 455 244 470 b 261 531 242 507 248 520 b 311 546 273 541 290 546 b 354 535 328 546 342 542 b 382 503 367 527 376 517 l 556 563 "},"Ț":{"ha":819,"x_min":0,"x_max":0,"o":"m 411 -278 l 508 -67 l 319 -67 l 264 -278 m 21 788 l 318 788 l 318 0 l 503 0 l 503 788 l 799 788 l 799 972 l 21 972 "},"ț":{"ha":529,"x_min":0,"x_max":0,"o":"m 313 -278 l 410 -67 l 221 -67 l 165 -278 m 129 694 l 18 694 l 18 510 l 129 510 l 129 310 b 219 92 129 225 159 152 b 439 0 281 31 354 0 l 493 0 l 493 185 l 439 185 b 350 222 405 185 375 197 b 314 310 326 246 314 275 l 314 510 l 493 510 l 493 694 l 314 694 l 314 911 l 129 911 "},"ȷ":{"ha":361,"x_min":0,"x_max":0,"o":"m 82 47 b 35 -67 82 3 66 -35 b -79 -114 3 -98 -35 -114 l -79 -299 b 165 -197 16 -299 98 -265 b 242 -85 200 -163 225 -125 b 267 47 258 -44 267 0 l 267 694 l 82 694 "},"ɔ":{"ha":671,"x_min":0,"x_max":0,"o":"m 276 711 b 529 606 376 711 461 676 b 632 347 598 534 632 448 b 529 90 632 246 598 161 b 276 -17 461 19 376 -17 b 24 89 176 -17 92 19 l 154 221 b 276 168 188 186 228 168 b 399 221 325 168 366 186 b 447 347 431 255 447 297 b 399 474 447 397 431 439 b 276 526 366 509 325 526 b 154 474 228 526 188 509 l 24 606 b 276 711 92 676 176 711 "},"ə":{"ha":757,"x_min":0,"x_max":0,"o":"m 32 347 b 56 205 32 295 40 248 b 126 89 71 162 95 123 b 369 -17 192 19 273 -17 b 622 90 469 -17 554 19 b 725 347 691 161 725 246 b 618 604 725 448 689 534 b 360 711 546 675 460 711 b 85 606 246 711 154 676 l 214 474 b 360 526 249 509 298 526 b 463 492 399 526 433 515 b 494 459 475 482 485 472 b 514 417 503 447 509 432 l 32 417 m 372 160 b 282 190 336 160 306 170 b 238 268 262 210 247 236 l 518 268 b 471 193 509 238 493 213 b 372 160 443 171 410 160 "},"ɛ":{"ha":574,"x_min":0,"x_max":0,"o":"m 306 449 b 253 465 283 449 266 454 b 242 480 248 470 244 475 b 238 497 239 485 238 491 b 242 515 238 504 239 510 b 251 529 244 521 248 525 b 300 544 263 539 280 544 b 361 517 327 544 347 535 l 513 583 b 478 635 504 603 493 620 b 428 676 464 651 447 664 b 300 711 390 700 347 711 b 135 649 234 711 179 690 b 71 497 92 607 71 556 b 81 438 71 476 74 456 b 111 386 88 419 98 402 b 54 318 87 368 68 345 b 38 275 48 304 42 290 b 32 228 34 260 32 244 b 114 54 32 160 59 102 b 300 -17 168 7 230 -17 b 550 128 419 -17 503 31 l 382 201 b 300 168 363 180 335 169 b 238 186 272 168 251 174 b 218 228 225 196 218 210 b 223 251 218 236 220 244 b 236 269 226 258 231 264 b 306 292 250 284 273 292 l 426 292 l 426 449 "},"ɲ":{"ha":792,"x_min":0,"x_max":0,"o":"m 726 361 b 707 502 726 413 720 460 b 649 614 694 544 675 581 b 436 711 595 679 524 711 b 272 651 369 711 314 691 l 261 640 l 250 629 l 250 694 l 76 694 l 76 0 l 261 0 l 261 368 b 272 433 261 392 265 414 b 301 482 278 452 288 468 b 403 526 328 512 362 526 b 501 482 443 526 475 512 b 532 438 515 468 525 453 b 542 378 538 422 542 402 l 542 0 l 726 0 m 76 -17 b 49 -83 76 -43 67 -65 b -19 -112 29 -103 6 -112 l -68 -112 l -68 -297 l -19 -297 b 179 -214 58 -297 125 -269 b 261 -17 234 -159 261 -94 l 261 0 l 76 0 "},"ʻ":{"ha":378,"x_min":0,"x_max":0,"o":"m 251 661 b 273 833 251 720 259 778 b 339 994 287 889 309 943 l 181 994 b 57 661 98 903 57 792 l 251 661 "},"ʼ":{"ha":378,"x_min":0,"x_max":0,"o":"m 110 643 l 268 643 l 296 994 l 83 994 "},"ˆ":{"ha":571,"x_min":0,"x_max":0,"o":"m 194 779 l 276 864 l 358 779 l 549 779 l 372 972 l 181 972 l 3 779 "},"ˇ":{"ha":571,"x_min":0,"x_max":0,"o":"m 172 779 l 381 779 l 547 972 l 358 972 l 276 885 l 194 972 l 6 972 "},"˘":{"ha":525,"x_min":0,"x_max":0,"o":"m 31 972 b 97 825 31 915 53 866 b 264 765 141 785 196 765 b 431 825 331 765 386 785 b 496 972 474 866 496 915 l 351 972 b 325 924 351 953 343 937 b 264 903 308 910 288 903 b 201 924 240 903 219 910 b 176 972 185 937 176 953 l 31 972 "},"˙":{"ha":222,"x_min":0,"x_max":0,"o":"m 222 910 b 190 989 222 940 212 967 b 111 1021 168 1010 142 1021 b 33 989 81 1021 55 1010 b 0 910 11 967 0 940 b 33 832 0 880 11 854 b 111 799 55 810 81 799 b 190 832 142 799 168 810 b 222 910 212 854 222 880 "},"˚":{"ha":682,"x_min":0,"x_max":0,"o":"m 371 1061 b 260 1015 327 1061 290 1046 b 213 903 228 984 213 946 b 258 789 213 858 228 820 b 371 743 290 758 327 743 b 485 789 415 743 453 758 b 520 841 500 805 512 822 b 532 903 528 860 532 881 b 485 1015 532 946 516 984 b 371 1061 453 1046 415 1061 m 371 942 b 399 931 382 942 391 938 b 411 903 407 923 411 914 b 399 875 411 892 407 882 b 371 863 391 867 382 863 b 344 875 361 863 352 867 b 333 903 337 882 333 892 b 335 917 333 908 334 913 b 344 931 337 922 340 926 b 371 942 352 938 361 942 "},"˛":{"ha":347,"x_min":0,"x_max":0,"o":"m 260 -149 l 257 -151 b 256 -154 256 -152 256 -153 b 231 -164 248 -161 240 -164 b 206 -154 221 -164 213 -161 b 196 -129 199 -147 196 -138 b 198 -116 196 -125 197 -120 b 206 -104 199 -112 202 -108 l 332 22 l 164 22 b 137 8 154 19 145 14 b 117 -8 129 3 122 -3 b 65 -129 82 -43 65 -83 b 114 -246 65 -175 81 -213 b 231 -294 146 -278 185 -294 b 347 -246 276 -294 315 -278 l 358 -235 b 367 -224 361 -232 364 -228 "},"˜":{"ha":554,"x_min":0,"x_max":0,"o":"m 371 760 b 490 810 417 760 457 776 b 547 938 523 842 542 885 l 413 938 b 371 883 407 901 393 883 b 336 899 357 883 345 888 b 323 915 332 903 328 909 b 307 933 318 921 313 927 b 183 983 278 967 237 983 b 64 932 139 983 99 966 b 24 876 47 916 34 898 b 7 806 15 855 9 831 l 142 806 b 189 860 150 842 166 860 b 225 844 203 860 215 855 b 239 828 230 840 234 834 b 254 810 244 822 249 816 b 371 760 280 776 319 760 "},"˝":{"ha":656,"x_min":0,"x_max":0,"o":"m 483 779 l 638 972 l 439 972 l 310 779 m 199 779 l 351 972 l 153 972 l 26 779 "},"̀":{"ha":0,"x_min":0,"x_max":0,"o":"m 481 779 l 331 974 l 108 974 l 282 779 "},"́":{"ha":0,"x_min":0,"x_max":0,"o":"m 531 779 l 703 974 l 481 974 l 332 779 "},"̂":{"ha":0,"x_min":0,"x_max":0,"o":"m 189 779 l 271 864 l 353 779 l 544 779 l 367 972 l 175 972 l -1 779 "},"̃":{"ha":0,"x_min":0,"x_max":0,"o":"m 478 760 b 596 810 524 760 563 776 b 654 938 628 842 648 885 l 518 938 b 476 883 513 901 500 883 b 443 899 463 883 451 888 b 428 915 438 903 434 909 b 413 933 423 921 418 927 b 290 983 384 967 343 983 b 171 932 246 983 206 966 b 130 876 153 916 140 898 b 113 806 120 855 114 831 l 249 806 b 296 860 257 842 273 860 b 331 844 310 860 321 855 b 345 828 335 840 340 834 b 360 810 350 822 355 816 b 478 760 387 776 426 760 "},"̄":{"ha":0,"x_min":0,"x_max":0,"o":"m 435 776 l 435 944 l -18 944 l -18 776 "},"̆":{"ha":0,"x_min":0,"x_max":0,"o":"m 31 972 b 97 825 31 915 53 866 b 264 765 141 785 196 765 b 431 825 331 765 386 785 b 496 972 474 866 496 915 l 351 972 b 325 924 351 953 343 937 b 264 903 308 910 288 903 b 201 924 240 903 219 910 b 176 972 185 937 176 953 l 31 972 "},"̇":{"ha":0,"x_min":0,"x_max":0,"o":"m 222 910 b 190 989 222 940 212 967 b 111 1021 168 1010 142 1021 b 33 989 81 1021 55 1010 b 0 910 11 967 0 940 b 33 832 0 880 11 854 b 111 799 55 810 81 799 b 190 832 142 799 168 810 b 222 910 212 854 222 880 "},"̈":{"ha":0,"x_min":0,"x_max":0,"o":"m 140 1018 b 69 989 113 1018 89 1008 b 40 918 50 969 40 946 b 69 849 40 891 50 868 b 140 818 90 828 113 818 b 211 849 168 818 192 828 b 240 918 231 868 240 891 b 211 989 240 946 231 969 b 140 1018 192 1008 168 1018 m 503 1018 b 432 989 475 1018 451 1008 b 403 918 413 969 403 946 b 432 849 403 891 413 868 b 503 818 452 828 476 818 b 574 849 531 818 554 828 b 603 918 593 868 603 891 b 574 989 603 946 593 969 b 503 1018 554 1008 531 1018 "},"̊":{"ha":0,"x_min":0,"x_max":0,"o":"m 229 1061 b 117 1014 185 1061 147 1045 b 69 903 85 983 69 946 b 115 789 69 858 85 820 b 229 742 147 757 185 742 b 342 789 273 742 310 757 b 389 903 373 820 389 858 b 342 1014 389 946 373 983 b 229 1061 310 1045 273 1061 m 229 950 b 263 936 242 950 253 945 b 276 903 272 927 276 916 b 263 868 276 889 272 877 b 229 853 253 858 242 853 b 194 868 215 853 204 858 b 181 903 185 877 181 889 b 194 936 181 916 185 927 b 229 950 204 945 215 950 "},"̋":{"ha":0,"x_min":0,"x_max":0,"o":"m 469 779 l 624 972 l 425 972 l 296 779 m 185 779 l 338 972 l 139 972 l 13 779 "},"̌":{"ha":0,"x_min":0,"x_max":0,"o":"m 167 779 l 375 779 l 542 972 l 353 972 l 271 885 l 189 972 l 0 972 "},"̒":{"ha":0,"x_min":0,"x_max":0,"o":"m 132 990 l 0 793 l 200 793 l 278 990 "},"̣":{"ha":965,"x_min":0,"x_max":0,"o":"m 597 -162 b 564 -79 597 -130 586 -102 b 481 -46 542 -57 514 -46 b 399 -79 448 -46 421 -57 b 364 -162 375 -102 364 -130 b 399 -244 364 -195 375 -222 b 481 -279 421 -268 448 -279 b 564 -244 513 -279 541 -268 b 597 -162 586 -222 597 -195 "},"̦":{"ha":0,"x_min":0,"x_max":0,"o":"m 183 -278 l 281 -67 l 92 -67 l 36 -278 "},"̧":{"ha":0,"x_min":0,"x_max":0,"o":"m 378 1 b 419 -26 394 -2 408 -12 b 435 -74 430 -40 435 -56 b 411 -131 435 -96 427 -115 b 354 -154 395 -146 376 -154 b 303 -133 335 -154 318 -147 l 282 -162 b 222 -246 268 -181 248 -209 b 354 -292 260 -276 304 -292 b 508 -228 414 -292 466 -270 b 572 -74 551 -185 572 -134 b 496 92 572 -7 547 48 "},"̨":{"ha":0,"x_min":0,"x_max":0,"o":"m 260 -149 l 257 -151 b 256 -154 256 -152 256 -153 b 231 -164 248 -161 240 -164 b 206 -154 221 -164 213 -161 b 196 -129 199 -147 196 -138 b 198 -116 196 -125 197 -120 b 206 -104 199 -112 202 -108 l 332 22 l 164 22 b 137 8 154 19 145 14 b 117 -8 129 3 122 -3 b 65 -129 82 -43 65 -83 b 114 -246 65 -175 81 -213 b 231 -294 146 -278 185 -294 b 347 -246 276 -294 315 -278 l 358 -235 b 367 -224 361 -232 364 -228 "},"΄":{"ha":0,"x_min":0,"x_max":0,"o":"m 542 779 l 640 974 l 436 974 l 361 779 "},"΅":{"ha":0,"x_min":0,"x_max":0,"o":"m 361 807 l 475 1040 l 267 1040 l 176 807 m 76 1018 b 6 989 49 1018 25 1008 b -24 918 -14 969 -24 946 b 6 849 -24 891 -14 868 b 76 818 25 828 49 818 b 146 849 103 818 126 828 b 176 918 166 868 176 891 b 146 989 176 946 166 969 b 76 1018 126 1008 103 1018 m 568 1018 b 497 989 540 1018 517 1008 b 468 918 478 969 468 946 b 497 849 468 891 478 868 b 568 818 517 828 540 818 b 639 849 595 818 619 828 b 668 918 658 868 668 891 b 639 989 668 946 658 969 b 568 1018 619 1008 596 1018 "},"Ά":{"ha":917,"x_min":0,"x_max":0,"o":"m 185 779 l 283 974 l 79 974 l 6 779 m 906 0 l 547 972 l 354 972 l 708 0 m 208 0 l 547 972 l 354 972 l 11 0 m 765 181 l 765 367 l 146 367 l 146 181 "},"·":{"ha":363,"x_min":0,"x_max":0,"o":"m 299 472 b 264 554 299 505 287 532 b 182 589 242 577 214 589 b 99 554 149 589 121 577 b 65 472 76 532 65 505 b 99 389 65 440 76 412 b 182 356 122 367 150 356 b 264 389 214 356 242 367 b 299 472 287 412 299 440 "},"Έ":{"ha":817,"x_min":0,"x_max":0,"o":"m -28 779 l 71 974 l -133 974 l -208 779 m 729 0 l 729 185 l 288 185 l 288 399 l 633 399 l 633 583 l 288 583 l 288 788 l 728 788 l 728 972 l 101 972 l 101 0 "},"Ή":{"ha":1010,"x_min":0,"x_max":0,"o":"m -19 779 l 81 974 l -124 974 l -199 779 m 908 0 l 908 972 l 724 972 l 724 0 m 288 0 l 288 974 l 101 974 l 101 0 m 764 404 l 764 589 l 247 589 l 247 404 "},"Ί":{"ha":389,"x_min":0,"x_max":0,"o":"m -14 779 l 85 974 l -119 974 l -194 779 m 288 0 l 288 972 l 101 972 l 101 0 "},"Ό":{"ha":1075,"x_min":0,"x_max":0,"o":"m 56 779 l 154 974 l -50 974 l -125 779 m 538 989 b 186 840 399 989 281 939 b 46 486 93 743 46 625 b 186 131 46 347 93 229 b 538 -17 281 32 398 -17 b 883 125 675 -17 790 31 b 1029 486 981 223 1029 344 b 886 844 1029 627 981 746 b 538 989 792 941 675 989 m 538 804 b 756 710 624 804 696 773 b 822 608 785 679 807 645 b 844 486 837 570 844 530 b 756 261 844 398 815 323 b 538 168 696 199 624 168 b 319 261 451 168 379 199 b 232 486 261 323 232 398 b 253 608 232 530 239 570 b 319 710 268 645 290 679 b 538 804 379 773 451 804 "},"Ύ":{"ha":831,"x_min":0,"x_max":0,"o":"m -107 779 l -8 974 l -212 974 l -286 779 m 324 486 l 324 433 l 508 433 l 821 972 l 604 972 m 324 433 l 508 433 l 508 486 l 228 972 l 10 972 m 324 0 l 508 0 l 508 433 l 324 433 "},"Ώ":{"ha":1074,"x_min":0,"x_max":0,"o":"m 46 779 l 144 974 l -60 974 l -133 779 m 538 989 b 185 840 397 989 279 939 b 46 486 92 743 46 625 b 144 199 46 373 79 277 b 411 38 211 120 300 66 l 411 185 b 281 304 357 209 314 249 b 231 486 247 361 231 421 b 319 710 231 573 260 648 b 538 804 378 773 450 804 b 754 710 624 804 696 773 b 821 608 784 679 806 645 b 843 486 836 570 843 530 b 831 392 843 454 839 422 b 793 304 822 362 810 333 b 735 233 776 276 757 253 b 661 185 714 213 689 197 l 661 38 b 813 99 718 51 768 72 b 929 199 857 125 896 159 b 1029 486 995 277 1028 373 b 883 846 1029 628 981 748 b 538 989 789 941 674 989 m 46 0 l 411 0 l 411 185 l 46 185 m 661 0 l 1029 0 l 1029 185 l 661 185 "},"ΐ":{"ha":556,"x_min":0,"x_max":0,"o":"m 114 267 b 193 78 114 194 140 131 b 381 0 245 26 307 0 l 417 0 l 417 185 l 381 185 b 324 208 358 185 339 193 b 300 267 308 224 300 244 l 300 694 l 114 694 m 300 765 l 414 999 l 204 999 l 115 765 m 14 976 b -57 947 -13 976 -37 967 b -86 876 -76 928 -86 904 b -57 806 -86 849 -76 825 b 14 776 -37 786 -14 776 b 85 806 42 776 65 786 b 114 876 104 825 114 849 b 85 947 114 904 104 928 b 14 976 65 967 42 976 m 506 976 b 436 947 479 976 456 967 b 406 876 416 928 406 904 b 436 806 406 850 416 826 b 506 776 456 786 479 776 b 576 806 533 776 557 786 b 606 876 596 826 606 850 b 576 947 606 904 596 928 b 506 976 557 967 533 976 "},"Α":{"ha":917,"x_min":0,"x_max":0,"o":"m 453 700 l 575 367 l 336 367 m 643 181 l 708 0 l 906 0 l 547 972 l 354 972 l 11 0 l 208 0 l 272 181 "},"Β":{"ha":856,"x_min":0,"x_max":0,"o":"m 101 0 l 510 0 b 715 86 590 0 659 29 b 801 292 773 143 801 211 b 768 426 801 340 790 385 b 676 528 746 468 715 502 b 738 696 717 577 738 633 b 657 892 738 772 711 837 b 461 972 603 945 538 972 l 101 972 m 443 786 b 521 760 475 786 500 777 b 551 690 541 741 551 718 b 521 621 551 663 541 639 b 443 594 500 603 475 594 l 288 594 l 288 786 m 496 408 b 582 376 530 408 559 398 b 615 297 604 355 615 329 b 582 218 615 266 604 239 b 496 186 559 197 530 186 l 288 186 l 288 408 "},"Γ":{"ha":736,"x_min":0,"x_max":0,"o":"m 278 0 l 278 788 l 719 788 l 719 972 l 93 972 l 93 0 "},"Δ":{"ha":922,"x_min":0,"x_max":0,"o":"m 14 0 l 908 0 l 514 972 l 408 972 m 632 185 l 290 185 l 461 613 "},"Ε":{"ha":817,"x_min":0,"x_max":0,"o":"m 729 0 l 729 185 l 288 185 l 288 399 l 633 399 l 633 583 l 288 583 l 288 788 l 728 788 l 728 972 l 101 972 l 101 0 "},"Ζ":{"ha":839,"x_min":0,"x_max":0,"o":"m 785 0 l 785 185 l 297 185 l 789 788 l 789 972 l 56 972 l 56 788 l 543 788 l 51 185 l 51 0 "},"Η":{"ha":1010,"x_min":0,"x_max":0,"o":"m 288 0 l 288 404 l 724 404 l 724 0 l 908 0 l 908 972 l 724 972 l 724 589 l 288 589 l 288 974 l 101 974 l 101 0 "},"Θ":{"ha":1075,"x_min":0,"x_max":0,"o":"m 538 989 b 190 844 400 989 285 941 b 82 681 142 795 106 741 b 46 486 58 622 46 556 b 181 138 46 351 91 235 b 538 -17 276 34 395 -18 b 882 124 674 -17 788 30 b 1029 486 980 222 1029 343 b 883 846 1029 628 981 748 b 538 989 790 941 675 989 m 538 804 b 756 710 624 804 696 773 b 822 608 785 679 807 645 b 844 486 837 570 844 530 b 756 261 844 398 815 323 b 538 168 696 199 624 168 b 319 261 451 168 379 199 b 232 486 261 323 232 398 b 253 608 232 530 239 570 b 319 710 268 645 290 679 b 538 804 379 773 451 804 m 718 393 l 718 579 l 357 579 l 357 393 "},"Ι":{"ha":389,"x_min":0,"x_max":0,"o":"m 288 0 l 288 972 l 101 972 l 101 0 "},"Κ":{"ha":900,"x_min":0,"x_max":0,"o":"m 288 0 l 288 310 l 365 399 l 661 0 l 889 0 l 489 544 l 864 972 l 621 972 l 288 596 l 288 972 l 101 972 l 101 0 "},"Λ":{"ha":917,"x_min":0,"x_max":0,"o":"m 354 972 l 11 0 l 208 0 l 453 700 l 708 0 l 906 0 l 547 972 "},"Μ":{"ha":1129,"x_min":0,"x_max":0,"o":"m 15 0 l 203 0 l 293 592 l 467 78 l 664 78 l 838 592 l 928 0 l 1115 0 l 972 972 l 765 972 l 565 376 l 365 972 l 160 972 "},"Ν":{"ha":1000,"x_min":0,"x_max":0,"o":"m 101 0 l 288 0 l 288 635 l 713 0 l 899 0 l 899 972 l 713 972 l 713 338 l 288 972 l 101 972 "},"Ξ":{"ha":849,"x_min":0,"x_max":0,"o":"m 88 788 l 761 788 l 761 972 l 88 972 m 182 399 l 667 399 l 667 583 l 182 583 m 88 0 l 761 0 l 761 185 l 88 185 "},"Ο":{"ha":1075,"x_min":0,"x_max":0,"o":"m 538 989 b 186 840 399 989 281 939 b 46 486 93 743 46 625 b 186 131 46 347 93 229 b 538 -17 281 32 398 -17 b 883 125 675 -17 790 31 b 1029 486 981 223 1029 344 b 886 844 1029 627 981 746 b 538 989 792 941 675 989 m 538 804 b 756 710 624 804 696 773 b 822 608 785 679 807 645 b 844 486 837 570 844 530 b 756 261 844 398 815 323 b 538 168 696 199 624 168 b 319 261 451 168 379 199 b 232 486 261 323 232 398 b 253 608 232 530 239 570 b 319 710 268 645 290 679 b 538 804 379 773 451 804 "},"Π":{"ha":949,"x_min":0,"x_max":0,"o":"m 93 0 l 278 0 l 278 788 l 672 788 l 672 0 l 857 0 l 857 972 l 93 972 "},"Ρ":{"ha":817,"x_min":0,"x_max":0,"o":"m 101 0 l 288 0 l 288 318 l 471 318 b 703 414 561 318 638 350 b 799 644 767 478 799 555 b 703 876 799 735 767 813 b 471 972 639 940 562 972 l 101 972 m 471 788 b 571 744 509 788 542 773 b 613 644 599 717 613 683 b 571 546 613 606 599 574 b 471 503 542 517 509 503 l 288 503 l 288 788 "},"Σ":{"ha":796,"x_min":0,"x_max":0,"o":"m 357 492 l 14 0 l 708 0 l 708 185 l 369 185 l 583 492 l 376 788 l 707 788 l 707 972 l 21 972 "},"Τ":{"ha":819,"x_min":0,"x_max":0,"o":"m 21 788 l 318 788 l 318 0 l 503 0 l 503 788 l 799 788 l 799 972 l 21 972 "},"Υ":{"ha":831,"x_min":0,"x_max":0,"o":"m 324 433 l 324 0 l 508 0 l 508 433 l 821 972 l 604 972 l 417 647 l 228 972 l 10 972 "},"Φ":{"ha":1214,"x_min":0,"x_max":0,"o":"m 515 988 b 186 839 385 982 275 932 b 47 486 94 742 47 624 b 186 131 47 347 94 229 b 515 -17 276 38 386 -11 l 515 -207 l 700 -207 l 700 -17 b 1021 125 826 -12 933 35 b 1168 486 1119 223 1168 344 b 1026 842 1168 625 1121 744 b 700 988 938 933 830 982 l 700 1179 l 515 1179 m 515 169 b 321 261 438 174 374 205 b 232 486 262 323 232 398 b 321 710 232 574 262 649 b 515 801 374 766 438 797 m 700 801 b 894 710 776 797 841 766 b 960 608 923 679 945 645 b 982 486 975 570 982 530 b 894 261 982 398 953 323 b 700 169 841 205 776 174 l 700 801 "},"Χ":{"ha":857,"x_min":0,"x_max":0,"o":"m 429 667 l 238 972 l 19 972 l 321 490 l 14 0 l 232 0 l 429 315 l 626 0 l 844 0 l 538 490 l 839 972 l 621 972 "},"Ψ":{"ha":939,"x_min":0,"x_max":0,"o":"m 39 681 b 165 376 39 562 81 461 b 378 261 227 315 298 277 l 378 0 l 563 0 l 563 261 b 675 301 602 269 640 282 b 774 376 710 321 743 346 b 900 681 858 461 900 562 l 900 972 l 715 972 l 715 681 b 643 507 715 613 691 555 b 563 460 620 484 593 468 l 563 972 l 378 972 l 378 460 b 296 507 347 468 320 484 b 225 681 249 555 225 613 l 225 972 l 39 972 "},"Ω":{"ha":1075,"x_min":0,"x_max":0,"o":"m 538 989 b 186 840 399 989 281 939 b 46 486 93 743 46 625 b 113 244 46 394 68 314 b 135 213 120 233 127 223 b 160 185 142 203 150 194 l 46 185 l 46 0 l 413 0 l 413 185 b 281 304 358 209 314 249 b 232 486 248 361 232 421 b 319 710 232 574 261 649 b 538 804 378 773 450 804 b 756 710 625 804 697 773 b 822 608 785 679 807 645 b 844 486 837 570 844 530 b 794 304 844 421 828 361 b 738 233 779 276 760 253 b 664 185 715 213 691 197 l 664 0 l 1029 0 l 1029 185 l 917 185 b 941 213 925 194 933 203 b 964 244 949 223 956 233 b 1029 486 1007 314 1029 394 b 881 850 1029 630 980 751 b 538 989 787 943 673 989 "},"Ϊ":{"ha":389,"x_min":0,"x_max":0,"o":"m 288 0 l 288 972 l 101 972 l 101 0 m 51 1310 b -19 1281 24 1310 0 1300 b -49 1210 -39 1261 -49 1238 b -19 1140 -49 1183 -39 1160 b 51 1110 0 1120 24 1110 b 121 1140 77 1110 100 1120 b 151 1210 141 1160 151 1183 b 121 1281 151 1238 141 1261 b 51 1310 101 1300 78 1310 m 338 1310 b 267 1281 310 1310 286 1300 b 238 1210 247 1261 238 1238 b 267 1140 238 1183 247 1160 b 338 1110 287 1120 311 1110 b 408 1140 364 1110 388 1120 b 438 1210 428 1160 438 1183 b 408 1281 438 1238 428 1261 b 338 1310 389 1300 365 1310 "},"Ϋ":{"ha":831,"x_min":0,"x_max":0,"o":"m 324 433 l 324 0 l 508 0 l 508 433 l 821 972 l 604 972 l 417 647 l 228 972 l 10 972 m 233 1282 b 163 1253 206 1282 182 1272 b 133 1182 143 1233 133 1210 b 163 1113 133 1155 143 1132 b 233 1082 183 1092 206 1082 b 304 1113 260 1082 284 1092 b 333 1182 324 1132 333 1155 b 304 1253 333 1210 324 1233 b 233 1282 284 1272 260 1282 m 596 1282 b 525 1253 568 1282 544 1272 b 496 1182 506 1233 496 1210 b 525 1113 496 1155 506 1132 b 596 1082 545 1092 569 1082 b 667 1113 623 1082 646 1092 b 696 1182 686 1132 696 1155 b 667 1253 696 1210 686 1233 b 596 1282 646 1272 623 1282 "},"ά":{"ha":922,"x_min":0,"x_max":0,"o":"m 396 710 b 143 606 296 710 212 675 b 39 347 74 534 39 448 b 65 206 39 296 47 249 b 143 89 82 163 108 124 b 396 -18 212 18 296 -18 b 544 17 450 -18 499 -6 b 612 61 569 29 591 44 b 671 122 633 79 652 99 b 704 85 681 109 692 97 b 743 54 716 74 729 63 b 804 20 762 40 782 29 b 876 0 826 11 850 5 l 876 190 b 847 205 865 194 855 199 b 822 225 838 211 830 218 b 805 251 816 232 810 241 b 792 285 800 262 795 273 b 787 299 791 288 789 292 b 779 321 784 305 782 313 b 823 491 798 372 812 428 b 843 694 834 553 840 621 l 657 694 b 655 633 657 673 656 653 b 647 579 653 614 651 596 b 639 592 644 584 642 588 l 631 603 b 531 681 604 636 570 662 b 396 710 489 700 444 710 m 396 525 b 478 504 426 525 454 518 b 539 440 503 490 523 469 b 558 395 545 430 552 415 b 578 321 565 375 571 350 b 554 276 570 305 563 290 b 529 242 546 263 538 251 b 465 185 512 216 490 197 b 432 172 455 179 444 175 b 396 168 420 169 408 168 b 274 219 347 168 306 185 b 225 347 241 254 225 296 b 274 474 225 397 241 439 b 396 525 306 508 347 525 m 490 779 l 589 974 l 385 974 l 311 779 "},"έ":{"ha":574,"x_min":0,"x_max":0,"o":"m 306 449 b 253 465 283 449 266 454 b 238 497 243 475 238 485 b 251 529 238 510 242 521 b 300 544 263 539 280 544 b 361 517 327 544 347 535 l 513 583 b 478 635 504 603 493 620 b 428 676 464 651 447 664 b 300 711 390 700 347 711 b 135 649 234 711 179 690 b 71 497 92 607 71 556 b 111 386 71 454 84 417 b 79 355 99 377 88 366 b 54 318 70 343 62 331 b 32 228 39 290 32 260 b 114 54 32 160 59 102 b 300 -17 168 7 230 -17 b 550 128 419 -17 503 31 l 382 201 b 300 168 363 180 335 169 b 238 186 272 168 251 174 b 218 228 225 196 218 210 b 236 269 218 244 224 257 b 306 292 250 284 273 292 l 426 292 l 426 449 m 379 779 l 478 974 l 274 974 l 200 779 "},"ή":{"ha":817,"x_min":0,"x_max":0,"o":"m 742 361 b 722 502 742 413 735 460 b 663 614 708 544 688 581 b 450 711 610 679 539 711 b 236 614 361 711 290 679 b 231 606 234 611 232 609 b 225 599 229 604 227 601 b 215 615 222 604 219 610 b 203 632 212 621 207 626 b 47 694 160 674 108 694 l 7 694 l 7 521 l 47 521 b 79 508 59 521 70 517 b 92 476 88 499 92 488 l 92 0 l 156 0 l 253 0 l 276 0 l 276 368 b 317 482 276 416 290 454 b 417 526 343 512 376 526 b 517 482 456 526 490 512 b 557 368 544 454 557 416 l 557 -278 l 742 -278 m 529 779 l 628 974 l 424 974 l 350 779 "},"ί":{"ha":383,"x_min":0,"x_max":0,"o":"m 74 267 b 151 78 74 193 100 130 b 340 0 204 26 267 0 l 376 0 l 376 185 l 340 185 b 283 208 318 185 299 193 b 260 267 268 224 260 244 l 260 694 l 74 694 m 258 779 l 357 974 l 153 974 l 78 779 "},"ΰ":{"ha":744,"x_min":0,"x_max":0,"o":"m 28 510 l 57 510 b 103 488 75 510 90 502 b 113 436 115 473 118 456 l 82 333 b 78 196 66 284 65 238 b 103 136 84 175 93 155 b 140 85 114 118 126 100 b 191 43 156 69 173 55 b 250 10 209 31 229 20 b 315 -10 271 1 293 -5 b 381 -17 336 -14 358 -17 b 611 83 471 -17 548 17 b 706 333 674 149 706 232 b 631 694 706 457 681 578 l 428 694 b 458 633 439 674 449 654 b 481 572 466 613 474 593 b 510 459 494 538 503 500 b 521 326 516 418 520 374 b 481 213 522 279 508 241 b 381 168 454 183 420 168 b 285 213 340 168 308 183 b 267 326 259 243 253 281 l 299 436 b 304 497 304 456 306 477 b 286 554 302 516 296 536 b 243 617 275 578 261 599 b 179 663 225 635 204 650 b 119 687 160 674 140 682 b 57 694 99 692 78 694 l 28 694 m 400 779 l 514 1013 l 306 1013 l 215 779 m 115 990 b 44 961 88 990 64 981 b 15 890 25 942 15 918 b 44 821 15 863 25 840 b 115 790 64 800 88 790 b 185 821 142 790 165 800 b 215 890 205 840 215 863 b 185 961 215 918 205 942 b 115 990 165 981 142 990 m 606 990 b 536 961 579 990 556 981 b 506 890 516 942 506 918 b 536 821 506 863 516 840 b 606 790 556 800 579 790 b 676 821 633 790 657 800 b 706 890 696 840 706 863 b 676 961 706 918 696 942 b 606 990 657 981 633 990 "},"α":{"ha":922,"x_min":0,"x_max":0,"o":"m 396 710 b 143 606 296 710 212 675 b 39 347 74 534 39 448 b 65 206 39 296 47 249 b 143 89 82 163 108 124 b 396 -18 212 18 296 -18 b 544 17 450 -18 499 -6 b 612 61 569 29 591 44 b 671 122 633 79 652 99 b 704 85 681 109 692 97 b 743 54 716 74 729 63 b 804 20 762 40 782 29 b 876 0 826 11 850 5 l 876 190 b 847 205 865 194 855 199 b 822 225 838 211 830 218 b 805 251 816 232 810 241 b 792 285 800 262 795 273 b 787 299 791 288 789 292 b 779 321 784 305 782 313 b 823 491 798 372 812 428 b 843 694 834 553 840 621 l 657 694 b 655 633 657 673 656 653 b 647 579 653 614 651 596 b 639 592 644 584 642 588 l 631 603 b 531 681 604 636 570 662 b 396 710 489 700 444 710 m 396 525 b 478 504 426 525 454 518 b 539 440 503 490 523 469 b 558 395 545 430 552 415 b 578 321 565 375 571 350 b 554 276 570 305 563 290 b 529 242 546 263 538 251 b 465 185 512 216 490 197 b 432 172 455 179 444 175 b 396 168 420 169 408 168 b 274 219 347 168 306 185 b 225 347 241 254 225 296 b 274 474 225 397 241 439 b 396 525 306 508 347 525 "},"β":{"ha":763,"x_min":0,"x_max":0,"o":"m 383 989 b 165 900 297 989 225 959 b 76 688 106 841 76 770 l 76 -278 l 261 -278 l 261 32 b 404 0 305 11 352 0 b 626 86 492 0 566 29 b 717 294 687 144 717 213 b 708 372 717 321 714 347 b 682 442 702 396 693 419 b 615 524 664 475 642 502 b 647 560 627 536 638 548 b 671 599 656 572 664 585 b 687 647 678 614 684 631 b 692 699 690 664 692 681 b 604 906 692 781 663 850 b 383 989 545 961 471 989 m 261 688 b 296 769 261 719 273 746 b 383 804 319 793 348 804 b 472 774 419 804 449 794 b 507 699 495 754 507 729 b 476 631 507 669 497 646 b 404 606 456 614 432 606 l 324 606 l 324 421 l 404 421 b 494 381 440 421 470 407 b 531 294 519 355 531 326 b 496 217 531 264 519 238 b 404 185 472 195 441 185 b 261 236 346 185 298 202 "},"γ":{"ha":767,"x_min":0,"x_max":0,"o":"m 292 17 l 292 -278 l 476 -278 l 476 17 l 760 694 l 558 694 l 385 274 l 210 694 l 8 694 "},"δ":{"ha":711,"x_min":0,"x_max":0,"o":"m 371 989 b 167 900 289 989 221 959 b 96 708 119 846 95 782 b 132 581 97 663 109 620 b 148 559 137 573 142 566 b 168 540 154 552 161 546 l 142 515 b 51 294 81 454 51 381 b 142 74 51 208 81 135 b 363 -17 203 13 276 -17 b 582 74 448 -17 521 13 b 661 201 618 111 644 153 b 674 275 669 226 673 251 b 668 349 676 299 674 324 b 582 511 654 414 625 469 b 520 560 563 530 543 546 b 446 593 497 574 473 585 b 377 618 418 603 395 612 b 338 635 359 625 346 630 b 309 653 326 640 317 647 b 290 678 301 660 295 669 b 293 764 275 708 275 737 b 371 804 311 791 337 804 b 443 776 400 804 425 795 b 479 714 461 759 473 738 l 650 786 b 539 935 628 845 591 895 b 371 989 493 971 437 989 m 328 438 b 344 433 332 437 338 435 b 364 425 350 430 356 428 b 378 421 369 423 374 422 b 385 419 381 420 384 419 b 447 383 412 409 432 397 b 488 306 469 364 482 338 b 482 253 490 287 488 269 b 470 228 479 244 475 236 b 451 206 465 221 459 213 b 363 168 427 181 398 168 b 274 206 327 168 298 181 b 236 294 249 230 236 259 b 274 383 236 330 249 359 l 328 438 "},"ε":{"ha":574,"x_min":0,"x_max":0,"o":"m 306 449 b 253 465 283 449 266 454 b 238 497 243 475 238 485 b 251 529 238 510 242 521 b 300 544 263 539 280 544 b 361 517 327 544 347 535 l 513 583 b 478 635 504 603 493 620 b 428 676 464 651 447 664 b 300 711 390 700 347 711 b 135 649 234 711 179 690 b 71 497 92 607 71 556 b 111 386 71 454 84 417 b 79 355 99 377 88 366 b 54 318 70 343 62 331 b 32 228 39 290 32 260 b 114 54 32 160 59 102 b 300 -17 168 7 230 -17 b 550 128 419 -17 503 31 l 382 201 b 300 168 363 180 335 169 b 238 186 272 168 251 174 b 218 228 225 196 218 210 b 236 269 218 244 224 257 b 306 292 250 284 273 292 l 426 292 l 426 449 "},"ζ":{"ha":803,"x_min":0,"x_max":0,"o":"m 67 788 l 379 788 l 378 785 b 367 772 377 783 373 779 b 336 738 360 766 350 754 b 276 670 322 722 302 699 b 178 558 250 641 218 604 b 47 239 75 444 31 337 b 147 67 57 168 91 110 b 343 0 205 22 270 0 b 474 -33 398 0 441 -11 b 531 -121 504 -56 523 -85 b 508 -278 542 -168 534 -220 l 700 -278 b 719 -168 711 -239 718 -202 b 708 -74 721 -134 718 -102 b 581 114 688 4 645 67 b 343 185 515 161 436 185 b 264 208 311 185 284 193 b 229 268 244 223 232 243 b 318 438 225 307 254 363 b 513 659 368 496 433 570 b 793 972 592 748 686 853 l 67 972 "},"η":{"ha":817,"x_min":0,"x_max":0,"o":"m 742 361 b 722 502 742 413 735 460 b 663 614 708 544 688 581 b 450 711 610 679 539 711 b 236 614 361 711 290 679 b 231 606 234 611 232 609 b 225 599 229 604 227 601 b 215 615 222 604 219 610 b 203 632 212 621 207 626 b 47 694 160 674 108 694 l 7 694 l 7 521 l 47 521 b 79 508 59 521 70 517 b 92 476 88 499 92 488 l 92 0 l 156 0 l 253 0 l 276 0 l 276 368 b 317 482 276 416 290 454 b 417 526 343 512 376 526 b 517 482 456 526 490 512 b 557 368 544 454 557 416 l 557 -278 l 742 -278 "},"θ":{"ha":851,"x_min":0,"x_max":0,"o":"m 426 804 b 524 775 464 804 497 794 b 614 579 574 740 604 675 l 239 579 b 314 761 247 665 272 726 b 426 804 343 790 380 804 m 426 989 b 229 928 351 989 286 969 b 82 713 161 878 112 806 b 55 604 70 678 61 642 b 46 486 49 566 46 527 b 55 368 46 445 49 406 b 82 260 61 330 70 294 b 141 135 97 213 116 171 b 229 44 166 100 195 69 b 426 -17 286 4 351 -17 b 622 44 501 -17 567 4 b 711 135 657 69 687 100 b 769 260 735 171 755 213 b 797 368 781 294 791 330 b 806 486 803 406 806 445 b 797 604 806 527 803 566 b 769 713 791 642 781 678 b 622 928 740 806 691 878 b 426 989 567 969 501 989 m 614 393 b 515 192 603 292 570 225 b 426 168 491 176 462 168 b 331 196 388 168 356 177 b 239 393 280 230 249 296 l 614 393 "},"ι":{"ha":383,"x_min":0,"x_max":0,"o":"m 74 267 b 151 78 74 193 100 130 b 340 0 204 26 267 0 l 376 0 l 376 185 l 340 185 b 283 208 318 185 299 193 b 260 267 268 224 260 244 l 260 694 l 74 694 "},"κ":{"ha":764,"x_min":0,"x_max":0,"o":"m 76 0 l 261 0 l 261 169 l 340 256 l 521 0 l 750 0 l 468 394 l 528 457 b 647 510 564 492 604 510 l 696 510 l 696 694 l 647 694 b 506 664 598 694 551 684 b 444 628 483 654 463 642 b 390 582 426 615 408 600 l 261 444 l 261 694 l 76 694 "},"λ":{"ha":775,"x_min":0,"x_max":0,"o":"m 157 804 l 190 804 b 233 792 206 804 220 800 b 261 756 246 783 256 771 l 285 694 l 11 0 l 210 0 l 385 442 l 503 146 b 588 40 520 102 549 67 b 718 0 627 13 671 0 l 764 0 l 764 185 l 718 185 b 675 214 697 185 682 194 l 433 824 b 336 944 414 873 381 913 b 190 989 292 974 243 989 l 157 989 "},"μ":{"ha":793,"x_min":0,"x_max":0,"o":"m 390 -17 b 581 69 473 -17 536 12 l 586 78 b 590 85 588 81 589 83 b 597 74 592 81 594 77 b 606 64 599 70 602 67 b 758 0 647 21 698 0 l 779 0 l 779 174 l 758 174 b 728 186 747 174 737 178 b 715 218 719 195 715 206 l 715 694 l 531 694 l 531 326 b 490 213 531 279 517 241 b 390 168 463 183 430 168 b 290 213 350 168 317 183 b 250 326 263 241 250 279 l 250 694 l 65 694 l 65 -278 l 239 -278 l 239 40 b 390 -17 278 2 328 -17 "},"ν":{"ha":763,"x_min":0,"x_max":0,"o":"m 276 0 l 449 0 b 492 51 463 16 478 33 b 536 110 507 69 521 88 b 747 694 670 300 741 495 l 569 694 b 517 448 565 609 547 527 b 390 221 487 369 445 293 l 207 694 l 10 694 "},"ξ":{"ha":746,"x_min":0,"x_max":0,"o":"m 115 799 l 161 799 b 141 750 152 784 145 768 b 135 693 137 732 135 713 b 150 603 135 662 140 631 b 169 563 156 589 162 576 b 194 528 177 551 185 539 b 113 429 158 498 131 465 b 83 301 93 393 83 350 b 160 111 83 222 109 158 b 251 47 186 86 216 65 b 371 0 285 28 325 13 b 450 -39 404 -7 431 -20 b 493 -121 470 -58 485 -86 b 494 -197 498 -145 498 -170 b 469 -278 491 -223 482 -250 l 663 -278 b 682 -167 674 -238 680 -201 b 672 -74 684 -134 681 -102 b 579 86 654 -5 623 48 b 371 185 532 127 463 160 b 296 226 340 191 315 205 b 268 301 277 247 268 272 b 303 382 268 333 280 360 b 389 415 326 404 355 415 l 615 415 l 615 600 l 413 600 b 347 628 387 600 365 609 b 326 658 338 636 331 646 b 319 693 322 669 319 681 b 347 760 319 719 329 741 b 413 788 365 778 387 788 l 671 788 l 671 972 l 115 972 "},"ο":{"ha":790,"x_min":0,"x_max":0,"o":"m 396 711 b 143 604 295 711 211 675 b 39 347 74 534 39 448 b 143 90 39 246 74 161 b 396 -17 211 19 295 -17 b 647 90 496 -17 580 19 b 751 347 717 161 751 246 b 647 604 751 448 717 534 b 396 711 580 675 496 711 m 396 526 b 517 474 444 526 484 509 b 565 347 549 439 565 397 b 553 278 565 322 561 299 b 517 221 546 256 533 238 b 396 168 484 186 444 168 b 274 221 347 168 306 186 b 225 347 241 255 225 297 b 237 417 225 372 229 395 b 274 474 245 438 257 457 b 396 526 306 509 347 526 "},"π":{"ha":769,"x_min":0,"x_max":0,"o":"m 31 510 l 126 510 l 126 0 l 311 0 l 311 510 l 460 510 l 460 267 b 538 78 460 194 486 131 b 726 0 589 26 652 0 l 740 0 l 740 185 l 726 185 b 668 208 703 185 684 193 b 644 267 652 224 644 244 l 644 510 l 740 510 l 740 694 l 31 694 "},"ρ":{"ha":806,"x_min":0,"x_max":0,"o":"m 411 526 b 533 474 460 526 501 509 b 582 347 566 439 582 397 b 533 221 582 297 566 255 b 411 168 501 186 460 168 b 289 221 362 168 321 186 b 240 347 256 255 240 297 b 289 474 240 397 256 439 b 411 526 321 509 362 526 m 411 711 b 158 604 311 711 227 675 b 56 347 90 534 56 448 l 56 -278 l 240 -278 l 240 38 b 411 -17 288 1 345 -17 b 664 90 511 -17 595 19 b 767 347 732 161 767 246 b 664 604 767 448 732 534 b 411 711 595 675 511 711 "},"ς":{"ha":714,"x_min":0,"x_max":0,"o":"m 396 711 b 143 606 295 711 211 676 b 39 347 74 534 39 448 b 132 103 39 249 70 168 b 372 -17 194 37 274 -3 b 499 -124 443 -26 485 -62 b 503 -199 503 -148 505 -173 b 485 -278 501 -225 495 -251 l 675 -278 b 686 -131 687 -226 691 -177 b 646 -3 681 -85 668 -43 b 372 168 598 92 506 149 b 264 226 326 175 290 194 b 225 347 238 259 225 299 b 274 474 225 396 241 438 b 396 526 306 509 347 526 b 517 474 444 526 484 509 l 649 606 b 396 711 580 676 496 711 "},"σ":{"ha":825,"x_min":0,"x_max":0,"o":"m 396 711 b 143 604 295 711 211 675 b 39 347 74 534 39 448 b 143 90 39 246 74 161 b 396 -17 211 19 295 -17 b 647 90 496 -17 580 19 b 751 347 717 161 751 246 b 747 399 751 365 750 382 b 735 450 744 416 740 433 b 719 490 730 464 725 477 b 696 526 713 503 705 515 l 815 526 l 815 711 l 396 711 m 396 526 b 517 474 444 526 484 509 b 565 347 549 439 565 397 b 553 278 565 322 561 299 b 517 221 546 256 533 238 b 396 168 484 186 444 168 b 274 221 347 168 306 186 b 225 347 241 255 225 297 b 237 417 225 372 229 395 b 274 474 245 438 257 457 b 396 526 306 509 347 526 "},"τ":{"ha":631,"x_min":0,"x_max":0,"o":"m 17 510 l 222 510 l 222 267 b 300 78 222 193 248 130 b 489 0 352 26 415 0 l 503 0 l 503 185 l 489 185 b 431 208 466 185 446 193 b 407 267 415 224 407 244 l 407 510 l 615 510 l 615 694 l 17 694 "},"υ":{"ha":744,"x_min":0,"x_max":0,"o":"m 28 510 l 57 510 b 103 488 75 510 90 502 b 113 436 115 473 118 456 l 82 333 b 78 196 66 284 65 238 b 103 136 84 175 93 155 b 140 85 114 118 126 100 b 191 43 156 69 173 55 b 250 10 209 31 229 20 b 315 -10 271 1 293 -5 b 381 -17 336 -14 358 -17 b 611 83 471 -17 548 17 b 706 333 674 149 706 232 b 631 694 706 457 681 578 l 428 694 b 458 633 439 674 449 654 b 481 572 466 613 474 593 b 510 459 494 538 503 500 b 521 326 516 418 520 374 b 481 213 522 279 508 241 b 381 168 454 183 420 168 b 285 213 340 168 308 183 b 267 326 259 243 253 281 l 299 436 b 304 497 304 456 306 477 b 286 554 302 516 296 536 b 243 617 275 578 261 599 b 179 663 225 635 204 650 b 119 687 160 674 140 682 b 57 694 99 692 78 694 l 28 694 "},"φ":{"ha":921,"x_min":0,"x_max":0,"o":"m 618 700 b 442 626 549 700 490 675 b 368 451 393 578 368 520 l 368 199 b 264 281 325 215 290 243 b 225 407 238 318 225 360 b 242 490 225 437 231 464 b 262 532 246 505 253 519 b 292 568 271 545 281 557 l 157 693 b 106 630 138 674 120 653 b 68 558 91 607 78 583 b 39 404 49 510 39 459 b 132 142 39 306 70 219 b 368 -4 194 66 273 17 l 368 -278 l 553 -278 l 553 -4 b 789 142 649 17 728 66 b 859 265 820 180 844 221 b 882 404 874 309 882 355 b 863 524 882 449 875 489 b 804 618 850 560 830 591 b 618 700 753 673 691 700 m 618 515 b 676 485 644 515 663 505 b 697 407 690 463 697 438 b 657 279 697 359 684 316 b 553 199 631 241 596 214 l 553 451 b 572 496 553 468 559 483 b 618 515 585 509 600 515 "},"χ":{"ha":807,"x_min":0,"x_max":0,"o":"m 21 510 b 72 503 38 510 56 507 b 121 482 89 498 105 491 b 161 451 136 474 149 463 b 192 410 173 439 183 425 l 301 208 l 22 -278 l 235 -278 l 406 17 l 458 -79 b 519 -160 475 -109 495 -136 b 599 -224 542 -185 569 -206 b 794 -278 660 -260 725 -278 l 794 -93 b 742 -86 776 -93 758 -91 b 693 -65 725 -81 709 -75 b 651 -32 677 -56 663 -45 b 619 11 639 -19 629 -5 l 514 207 l 794 694 l 582 694 l 408 397 l 354 500 b 214 642 321 560 274 607 b 21 694 155 677 90 694 "},"ψ":{"ha":990,"x_min":0,"x_max":0,"o":"m 65 414 b 192 110 65 294 107 193 b 403 -7 253 48 323 9 l 403 -278 l 588 -278 l 588 -7 b 701 35 628 1 666 15 b 800 110 737 54 769 79 b 895 249 843 151 874 198 b 926 414 916 300 926 355 l 926 694 l 740 694 l 740 414 b 669 240 740 346 717 288 b 631 210 657 228 644 218 b 588 192 617 203 602 196 l 588 938 l 403 938 l 403 192 b 322 240 372 201 345 217 b 250 414 274 288 250 346 l 250 694 l 65 694 "},"ω":{"ha":1079,"x_min":0,"x_max":0,"o":"m 250 694 b 39 293 109 597 39 463 b 61 174 39 250 46 211 b 126 74 76 138 98 104 b 336 -17 184 13 254 -17 b 394 -11 356 -17 375 -15 b 450 7 414 -7 432 -1 b 497 33 467 14 482 23 b 539 69 512 44 526 56 b 579 35 552 56 565 45 b 624 10 593 25 608 16 b 743 -17 660 -8 700 -17 b 953 74 825 -17 895 13 b 1039 293 1010 135 1039 208 b 829 694 1039 463 969 597 l 697 565 b 854 293 802 483 854 392 b 846 245 854 276 851 260 b 821 206 840 230 832 217 b 743 168 800 181 775 168 b 665 201 713 168 687 179 b 632 279 643 223 632 249 l 632 474 l 447 474 l 447 279 b 439 237 447 264 444 250 b 414 201 433 223 425 212 b 336 168 393 179 367 168 b 257 206 305 168 278 181 b 225 293 236 230 225 259 b 382 565 225 392 277 483 l 250 694 "},"ϊ":{"ha":383,"x_min":0,"x_max":0,"o":"m 74 267 b 151 78 74 193 100 130 b 340 0 204 26 267 0 l 376 0 l 376 185 l 340 185 b 283 208 318 185 299 193 b 260 267 268 224 260 244 l 260 694 l 74 694 m 26 1018 b -44 989 -1 1018 -25 1008 b -74 918 -64 969 -74 946 b -44 849 -74 891 -64 868 b 26 818 -25 828 -1 818 b 96 849 53 818 76 828 b 126 918 116 868 126 891 b 96 989 126 946 116 969 b 26 1018 76 1008 53 1018 m 313 1018 b 243 989 286 1018 263 1008 b 213 918 223 969 213 946 b 243 849 213 891 223 868 b 313 818 263 828 286 818 b 383 849 340 818 364 828 b 413 918 403 868 413 891 b 383 989 413 946 403 969 b 313 1018 364 1008 340 1018 "},"ϋ":{"ha":744,"x_min":0,"x_max":0,"o":"m 28 510 l 57 510 b 103 488 75 510 90 502 b 113 436 115 473 118 456 l 82 333 b 78 196 66 284 65 238 b 103 136 84 175 93 155 b 140 85 114 118 126 100 b 191 43 156 69 173 55 b 250 10 209 31 229 20 b 315 -10 271 1 293 -5 b 381 -17 336 -14 358 -17 b 611 83 471 -17 548 17 b 706 333 674 149 706 232 b 631 694 706 457 681 578 l 428 694 b 458 633 439 674 449 654 b 481 572 466 613 474 593 b 510 459 494 538 503 500 b 521 326 516 418 520 374 b 481 213 522 279 508 241 b 381 168 454 183 420 168 b 285 213 340 168 308 183 b 267 326 259 243 253 281 l 299 436 b 304 497 304 456 306 477 b 286 554 302 516 296 536 b 243 617 275 578 261 599 b 179 663 225 635 204 650 b 119 687 160 674 140 682 b 57 694 99 692 78 694 l 28 694 m 161 1018 b 92 989 134 1018 111 1008 b 63 918 72 969 63 946 b 92 849 63 891 72 868 b 161 818 111 828 134 818 b 232 849 189 818 213 828 b 261 918 251 868 261 891 b 232 989 261 946 251 969 b 161 1018 213 1008 189 1018 m 524 1018 b 453 989 496 1018 472 1008 b 424 918 433 969 424 946 b 453 849 424 891 433 868 b 524 818 473 828 497 818 b 594 849 551 818 575 828 b 624 918 614 868 624 891 b 594 989 624 946 614 969 b 524 1018 575 1008 551 1018 "},"ό":{"ha":790,"x_min":0,"x_max":0,"o":"m 396 711 b 143 604 295 711 211 675 b 39 347 74 534 39 448 b 143 90 39 246 74 161 b 396 -17 211 19 295 -17 b 647 90 496 -17 580 19 b 751 347 717 161 751 246 b 647 604 751 448 717 534 b 396 711 580 675 496 711 m 396 526 b 517 474 444 526 484 509 b 565 347 549 439 565 397 b 553 278 565 322 561 299 b 517 221 546 256 533 238 b 396 168 484 186 444 168 b 274 221 347 168 306 186 b 225 347 241 255 225 297 b 237 417 225 372 229 395 b 274 474 245 438 257 457 b 396 526 306 509 347 526 m 479 779 l 578 974 l 374 974 l 300 779 "},"ύ":{"ha":744,"x_min":0,"x_max":0,"o":"m 28 510 l 57 510 b 103 488 75 510 90 502 b 113 436 115 473 118 456 l 82 333 b 78 196 66 284 65 238 b 103 136 84 175 93 155 b 140 85 114 118 126 100 b 191 43 156 69 173 55 b 250 10 209 31 229 20 b 315 -10 271 1 293 -5 b 381 -17 336 -14 358 -17 b 611 83 471 -17 548 17 b 706 333 674 149 706 232 b 631 694 706 457 681 578 l 428 694 b 458 633 439 674 449 654 b 481 572 466 613 474 593 b 510 459 494 538 503 500 b 521 326 516 418 520 374 b 481 213 522 279 508 241 b 381 168 454 183 420 168 b 285 213 340 168 308 183 b 267 326 259 243 253 281 l 299 436 b 304 497 304 456 306 477 b 286 554 302 516 296 536 b 243 617 275 578 261 599 b 179 663 225 635 204 650 b 119 687 160 674 140 682 b 57 694 99 692 78 694 l 28 694 m 439 779 l 539 974 l 333 974 l 260 779 "},"ώ":{"ha":1079,"x_min":0,"x_max":0,"o":"m 250 694 b 39 293 109 597 39 463 b 61 174 39 250 46 211 b 126 74 76 138 98 104 b 336 -17 184 13 254 -17 b 394 -11 356 -17 375 -15 b 450 7 414 -7 432 -1 b 497 33 467 14 482 23 b 539 69 512 44 526 56 b 579 35 552 56 565 45 b 624 10 593 25 608 16 b 743 -17 660 -8 700 -17 b 953 74 825 -17 895 13 b 1039 293 1010 135 1039 208 b 829 694 1039 463 969 597 l 697 565 b 854 293 802 483 854 392 b 846 245 854 276 851 260 b 821 206 840 230 832 217 b 743 168 800 181 775 168 b 665 201 713 168 687 179 b 632 279 643 223 632 249 l 632 474 l 447 474 l 447 279 b 439 237 447 264 444 250 b 414 201 433 223 425 212 b 336 168 393 179 367 168 b 257 206 305 168 278 181 b 225 293 236 230 225 259 b 382 565 225 392 277 483 l 250 694 m 628 779 l 726 974 l 522 974 l 449 779 "},"Ѐ":{"ha":817,"x_min":0,"x_max":0,"o":"m 535 1043 l 385 1238 l 163 1238 l 336 1043 m 729 0 l 729 185 l 288 185 l 288 399 l 633 399 l 633 583 l 288 583 l 288 788 l 728 788 l 728 972 l 101 972 l 101 0 "},"Ё":{"ha":817,"x_min":0,"x_max":0,"o":"m 228 1282 b 158 1253 201 1282 178 1272 b 128 1182 138 1233 128 1210 b 158 1113 128 1155 138 1132 b 228 1082 178 1092 201 1082 b 299 1113 256 1082 279 1092 b 328 1182 318 1132 328 1155 b 299 1253 328 1210 318 1233 b 228 1282 279 1272 256 1282 m 590 1282 b 519 1253 563 1282 539 1272 b 490 1182 500 1233 490 1210 b 519 1113 490 1155 500 1132 b 590 1082 539 1092 563 1082 b 661 1113 618 1082 642 1092 b 690 1182 681 1132 690 1155 b 661 1253 690 1210 681 1233 b 590 1282 642 1272 618 1282 m 729 0 l 729 185 l 288 185 l 288 399 l 633 399 l 633 583 l 288 583 l 288 788 l 728 788 l 728 972 l 101 972 l 101 0 "},"Ђ":{"ha":997,"x_min":0,"x_max":0,"o":"m 21 788 l 318 788 l 318 0 l 503 0 l 503 421 l 656 421 b 739 386 687 421 715 409 b 774 303 762 362 774 334 b 739 221 774 271 762 244 b 656 185 715 197 687 185 l 656 0 b 869 89 739 0 810 30 b 958 303 929 148 958 219 b 869 517 958 386 929 457 b 656 606 810 576 739 606 l 503 606 l 503 788 l 799 788 l 799 972 l 21 972 "},"Ѓ":{"ha":736,"x_min":0,"x_max":0,"o":"m 278 0 l 278 788 l 719 788 l 719 972 l 93 972 l 93 0 m 471 1038 l 650 1222 l 435 1222 l 278 1038 "},"Є":{"ha":922,"x_min":0,"x_max":0,"o":"m 538 989 b 186 839 398 989 281 939 b 46 486 93 742 46 624 b 183 136 46 349 92 232 b 538 -15 278 35 396 -15 b 732 24 607 -15 672 -2 b 816 72 762 38 790 53 b 889 135 842 90 867 111 l 747 276 b 538 185 692 215 622 185 b 331 272 455 185 386 214 b 272 386 301 305 281 343 l 638 386 l 638 588 l 272 588 b 294 647 277 609 284 629 b 331 700 303 666 316 683 b 538 788 386 758 455 788 b 747 696 622 788 692 757 l 890 839 b 816 902 867 863 842 884 b 732 950 790 920 762 936 b 638 979 701 963 670 973 b 538 989 605 986 572 989 "}}}
